/* XPM */
static const char * cursor_xpm[] = {
"50 55 663 2",
"  	c None",
". 	c #656666",
"+ 	c #1C1C1C",
"@ 	c #4E4E4E",
"# 	c #5C5C5D",
"$ 	c #050505",
"% 	c #5E5F5F",
"& 	c #2A2B2B",
"* 	c #30302F",
"= 	c #606061",
"- 	c #2C2C2C",
"; 	c #FFFFFF",
"> 	c #E4E4E4",
", 	c #262625",
"' 	c #3D3D3E",
") 	c #6C6D6E",
"! 	c #191919",
"~ 	c #E0E0E0",
"{ 	c #CCCCCB",
"] 	c #232322",
"^ 	c #414141",
"/ 	c #141414",
"( 	c #222222",
"_ 	c #121213",
": 	c #0B0B0C",
"< 	c #C5C5C4",
"[ 	c #3B3B3C",
"} 	c #CECECF",
"| 	c #19191A",
"1 	c #464645",
"2 	c #313131",
"3 	c #1E1E1E",
"4 	c #060606",
"5 	c #252525",
"6 	c #1A1A1A",
"7 	c #1D1D1E",
"8 	c #2B2C2C",
"9 	c #0F0F0F",
"0 	c #868788",
"a 	c #B8B8B8",
"b 	c #151515",
"c 	c #5F5F5F",
"d 	c #212223",
"e 	c #505051",
"f 	c #090909",
"g 	c #737373",
"h 	c #F6F6F6",
"i 	c #595959",
"j 	c #303030",
"k 	c #6A6A6A",
"l 	c #4B4C4D",
"m 	c #222323",
"n 	c #393A3A",
"o 	c #0A0A0A",
"p 	c #585858",
"q 	c #3E3E3E",
"r 	c #DBDBDA",
"s 	c #CCCCCC",
"t 	c #262626",
"u 	c #323232",
"v 	c #5D5D5D",
"w 	c #171717",
"x 	c #181818",
"y 	c #1F1F1F",
"z 	c #6C6C6D",
"A 	c #757676",
"B 	c #F4F4F4",
"C 	c #999999",
"D 	c #040404",
"E 	c #8C8C8C",
"F 	c #474747",
"G 	c #FDFDFE",
"H 	c #525253",
"I 	c #4C4C4D",
"J 	c #161616",
"K 	c #808080",
"L 	c #E7E7E7",
"M 	c #4B4B4B",
"N 	c #0D0D0E",
"O 	c #D7D7D7",
"P 	c #080808",
"Q 	c #818181",
"R 	c #484948",
"S 	c #676767",
"T 	c #000000",
"U 	c #A6A6A6",
"V 	c #EEEEEE",
"W 	c #4F4F4F",
"X 	c #444444",
"Y 	c #8A8A8A",
"Z 	c #8B8B8A",
"` 	c #BBBBBB",
" .	c #E4E4E5",
"..	c #070707",
"+.	c #515150",
"@.	c #8B8B8C",
"#.	c #1B1B1B",
"$.	c #D1D1D1",
"%.	c #8E8F8F",
"&.	c #5A5B5B",
"*.	c #353536",
"=.	c #09090A",
"-.	c #2B2B2B",
";.	c #292928",
">.	c #666666",
",.	c #030303",
"'.	c #969696",
").	c #2B2B2A",
"!.	c #535354",
"~.	c #F8F8F8",
"{.	c #8E8E8E",
"].	c #818281",
"^.	c #5B5B5A",
"/.	c #4E4F4F",
"(.	c #313132",
"_.	c #616161",
":.	c #3B3B3B",
"<.	c #9F9FA0",
"[.	c #131312",
"}.	c #545454",
"|.	c #606060",
"1.	c #0B0B0A",
"2.	c #868787",
"3.	c #FCFDFD",
"4.	c #363636",
"5.	c #929294",
"6.	c #060605",
"7.	c #A7A7A7",
"8.	c #848485",
"9.	c #0E0E0E",
"0.	c #6F6F6F",
"a.	c #020203",
"b.	c #2D2D2E",
"c.	c #7A7A7A",
"d.	c #3B3B3D",
"e.	c #767778",
"f.	c #D9D9D9",
"g.	c #D5D6D6",
"h.	c #404041",
"i.	c #3E3E3F",
"j.	c #383838",
"k.	c #C2C3C3",
"l.	c #818182",
"m.	c #181819",
"n.	c #232222",
"o.	c #727272",
"p.	c #303031",
"q.	c #474848",
"r.	c #DCDCDD",
"s.	c #989898",
"t.	c #7F7F7F",
"u.	c #2F2F2F",
"v.	c #727273",
"w.	c #F9F9F9",
"x.	c #8D8D8E",
"y.	c #101010",
"z.	c #848484",
"A.	c #272727",
"B.	c #363738",
"C.	c #CECECE",
"D.	c #5B5B5B",
"E.	c #212122",
"F.	c #1D1D1D",
"G.	c #89898A",
"H.	c #FAFAFA",
"I.	c #434343",
"J.	c #2A2A2A",
"K.	c #6B6B6C",
"L.	c #101011",
"M.	c #CBCBCB",
"N.	c #949493",
"O.	c #525252",
"P.	c #858585",
"Q.	c #434342",
"R.	c #5E5E5F",
"S.	c #121212",
"T.	c #141415",
"U.	c #7B7B7B",
"V.	c #767675",
"W.	c #505050",
"X.	c #D3D3D3",
"Y.	c #626262",
"Z.	c #3A3A3B",
"`.	c #080807",
" +	c #424242",
".+	c #707171",
"++	c #777776",
"@+	c #323233",
"#+	c #2E2E2E",
"$+	c #6F6F70",
"%+	c #F7F7F7",
"&+	c #79797A",
"*+	c #242424",
"=+	c #666767",
"-+	c #8A8B8B",
";+	c #4D4D4C",
">+	c #494948",
",+	c #0D0D0C",
"'+	c #777878",
")+	c #F2F3F3",
"!+	c #010101",
"~+	c #4E4E50",
"{+	c #4D4D4D",
"]+	c #C8C8C8",
"^+	c #C9C9C9",
"/+	c #3F3F40",
"(+	c #0B0C0C",
"_+	c #919092",
":+	c #0C0C0C",
"<+	c #575757",
"[+	c #595958",
"}+	c #080809",
"|+	c #4A4A4B",
"1+	c #9C9C9B",
"2+	c #616162",
"3+	c #888888",
"4+	c #EEF0F1",
"5+	c #FAFCFE",
"6+	c #7D7D7D",
"7+	c #272828",
"8+	c #707071",
"9+	c #060706",
"0+	c #414241",
"a+	c #9B9B9B",
"b+	c #676766",
"c+	c #171718",
"d+	c #4F4F50",
"e+	c #4E4D4C",
"f+	c #373737",
"g+	c #9D9D9E",
"h+	c #DDDDDD",
"i+	c #D9DBDD",
"j+	c #C9D5E6",
"k+	c #D3E2F7",
"l+	c #D5E1F4",
"m+	c #F4F7FC",
"n+	c #3B3B3A",
"o+	c #888889",
"p+	c #686868",
"q+	c #757575",
"r+	c #3E3F3F",
"s+	c #80807F",
"t+	c #1C1C1D",
"u+	c #131314",
"v+	c #525353",
"w+	c #1D1E1E",
"x+	c #54575A",
"y+	c #AFAEAE",
"z+	c #AFB0B0",
"A+	c #4C5259",
"B+	c #BBC6D6",
"C+	c #D5E3F7",
"D+	c #E2EAF6",
"E+	c #BFBFC0",
"F+	c #838385",
"G+	c #343435",
"H+	c #939393",
"I+	c #808081",
"J+	c #BFC3C9",
"K+	c #D5E0EE",
"L+	c #EFEFF0",
"M+	c #6E6E6E",
"N+	c #A7A7A8",
"O+	c #191918",
"P+	c #6F747D",
"Q+	c #D5E3F6",
"R+	c #E2EAF7",
"S+	c #6D6D6D",
"T+	c #2A2A29",
"U+	c #7B7B7C",
"V+	c #535353",
"W+	c #838384",
"X+	c #A9A9AA",
"Y+	c #DCE7F5",
"Z+	c #F3F8FF",
"`+	c #D7D6D5",
" @	c #CACBCB",
".@	c #FBFBFB",
"+@	c #3C3B3A",
"@@	c #535A6A",
"#@	c #D6E2F6",
"$@	c #F9FBFD",
"%@	c #CFCFD0",
"&@	c #525251",
"*@	c #747474",
"=@	c #8A8B8D",
"-@	c #49494A",
";@	c #A6A6A7",
">@	c #131313",
",@	c #B9C1CD",
"'@	c #373839",
")@	c #141413",
"!@	c #AFAFAF",
"~@	c #FEFEFE",
"{@	c #B0B0B0",
"]@	c #202021",
"^@	c #BABABA",
"/@	c #0E0E0F",
"(@	c #2D2D2D",
"_@	c #A8A8A7",
":@	c #212121",
"<@	c #969594",
"[@	c #0F0F0E",
"}@	c #4C4C4C",
"|@	c #D2D2D2",
"1@	c #747575",
"2@	c #555554",
"3@	c #DCDCDC",
"4@	c #E6E6E7",
"5@	c #3D3D3D",
"6@	c #484848",
"7@	c #151617",
"8@	c #3E4247",
"9@	c #A4A9B1",
"0@	c #C0C0C0",
"a@	c #020100",
"b@	c #282727",
"c@	c #A5A6A6",
"d@	c #161615",
"e@	c #B1B1B2",
"f@	c #0C0C0D",
"g@	c #99999A",
"h@	c #4A4A4A",
"i@	c #61676D",
"j@	c #DCEAFD",
"k@	c #DDEAFC",
"l@	c #F4F8FF",
"m@	c #989FA9",
"n@	c #CDD2DA",
"o@	c #FDFDFD",
"p@	c #A0A0A0",
"q@	c #2D2D2C",
"r@	c #28282B",
"s@	c #9F9F9F",
"t@	c #5A5A5A",
"u@	c #262627",
"v@	c #333232",
"w@	c #60666D",
"x@	c #D7E5F7",
"y@	c #D3E0F4",
"z@	c #DEE8F7",
"A@	c #DADBDA",
"B@	c #A9AAAC",
"C@	c #D2DFEF",
"D@	c #DDEBFF",
"E@	c #D7E4F6",
"F@	c #E7EEF8",
"G@	c #FCFCFC",
"H@	c #1C1B1B",
"I@	c #6E6F71",
"J@	c #BDC5D4",
"K@	c #F4F9FF",
"L@	c #F7FAFD",
"M@	c #EEEEEF",
"N@	c #59595A",
"O@	c #ABB5C2",
"P@	c #D7E4F8",
"Q@	c #D4E1F4",
"R@	c #EFF3F9",
"S@	c #A2A2A3",
"T@	c #191B1D",
"U@	c #B7C0CE",
"V@	c #DDE7F5",
"W@	c #FAFBFD",
"X@	c #747475",
"Y@	c #E2E1E0",
"Z@	c #F0F9FF",
"`@	c #D9E5F8",
" #	c #D7E3F5",
".#	c #E0E9F7",
"+#	c #FDFEFF",
"@#	c #373736",
"##	c #4E545C",
"$#	c #CAD7E9",
"%#	c #FDFFFF",
"&#	c #929291",
"*#	c #3C3F42",
"=#	c #E0EEFF",
"-#	c #E1EAF7",
";#	c #FBFCFE",
">#	c #E2E2E2",
",#	c #1A1A19",
"'#	c #3B3C40",
")#	c #AAB3C0",
"!#	c #D5E2F4",
"~#	c #EAF0F9",
"{#	c #A5A5A5",
"]#	c #0D0C0A",
"^#	c #9EA6B1",
"/#	c #E8F0FA",
"(#	c #282827",
"_#	c #F5F5F5",
":#	c #6B6B6B",
"<#	c #2E3033",
"[#	c #E4F2FF",
"}#	c #EAF0F8",
"|#	c #FFFFFE",
"1#	c #E3E3E3",
"2#	c #242423",
"3#	c #030200",
"4#	c #C3CDDB",
"5#	c #D5E2F5",
"6#	c #2F2E2F",
"7#	c #212424",
"8#	c #C8D3E6",
"9#	c #D7E3F4",
"0#	c #FAFDFF",
"a#	c #858584",
"b#	c #939394",
"c#	c #F5FCFF",
"d#	c #DCE6F5",
"e#	c #F8FAFD",
"f#	c #C9C9CA",
"g#	c #DFDFDF",
"h#	c #080707",
"i#	c #8C929D",
"j#	c #DDE9FA",
"k#	c #F4F6FB",
"l#	c #616262",
"m#	c #090908",
"n#	c #656870",
"o#	c #DEECFF",
"p#	c #D3E0F3",
"q#	c #E2EBF8",
"r#	c #F8F8F9",
"s#	c #ADACAC",
"t#	c #353535",
"u#	c #666665",
"v#	c #E3EBF7",
"w#	c #FEFFFF",
"x#	c #D9D9DA",
"y#	c #0B0B0B",
"z#	c #C8CCD1",
"A#	c #F6F9FE",
"B#	c #444445",
"C#	c #7C7C7C",
"D#	c #010100",
"E#	c #A9B2C2",
"F#	c #D9E6FA",
"G#	c #D4E1F3",
"H#	c #EFF4FA",
"I#	c #B6B6B5",
"J#	c #F4F7FA",
"K#	c #404040",
"L#	c #3F3F3F",
"M#	c #B5B5B4",
"N#	c #F3F9FF",
"O#	c #E8F2FF",
"P#	c #E3ECF9",
"Q#	c #ECF1F8",
"R#	c #151516",
"S#	c #232427",
"T#	c #DCE8FA",
"U#	c #D4E1F5",
"V#	c #DAE5F4",
"W#	c #757576",
"X#	c #393939",
"Y#	c #EEEDED",
"Z#	c #D9E4F5",
"`#	c #EFEFEF",
" $	c #9DA1A4",
".$	c #686D7A",
"+$	c #656F7A",
"@$	c #88919E",
"#$	c #C3D0E2",
"$$	c #DBE9FD",
"%$	c #D6E3F5",
"&$	c #DBE6F7",
"*$	c #666B70",
"=$	c #121111",
"-$	c #6A6A6B",
";$	c #0D0D0D",
">$	c #3C3C3C",
",$	c #707070",
"'$	c #0A0B0B",
")$	c #6A7079",
"!$	c #D2E0F4",
"~$	c #E6EDF8",
"{$	c #FEFEFF",
"]$	c #232323",
"^$	c #949494",
"/$	c #E7EDF6",
"($	c #686C72",
"_$	c #CDD9EB",
":$	c #767A83",
"<$	c #030302",
"[$	c #5C5C5C",
"}$	c #AEAEAD",
"|$	c #AEAEAE",
"1$	c #676768",
"2$	c #1A1B1D",
"3$	c #B6C0CD",
"4$	c #D7E5F8",
"5$	c #F7F8FB",
"6$	c #C4C9D1",
"7$	c #D8E4F5",
"8$	c #E3ECF7",
"9$	c #F7F6F5",
"0$	c #3C3D3D",
"a$	c #8E8E8D",
"b$	c #CDCDCD",
"c$	c #A5A5A7",
"d$	c #B5B5B6",
"e$	c #4C4B4C",
"f$	c #050504",
"g$	c #434547",
"h$	c #4F5255",
"i$	c #292929",
"j$	c #B9B9B9",
"k$	c #B7B7B7",
"l$	c #1F1F20",
"m$	c #555555",
"n$	c #424241",
"o$	c #252526",
"p$	c #868687",
"q$	c #4F5359",
"r$	c #D3E0F2",
"s$	c #DBE6F6",
"t$	c #9EA3AB",
"u$	c #F4F6FA",
"v$	c #070708",
"w$	c #8D8D8D",
"x$	c #8A8A89",
"y$	c #272726",
"z$	c #1F1F1E",
"A$	c #5C5D5C",
"B$	c #39393A",
"C$	c #7D7D7C",
"D$	c #8C8C8B",
"E$	c #A3A3A3",
"F$	c #B3B3B3",
"G$	c #636464",
"H$	c #212221",
"I$	c #949CA7",
"J$	c #DDE9FF",
"K$	c #B6B8BC",
"L$	c #525151",
"M$	c #EBEBEB",
"N$	c #686867",
"O$	c #979797",
"P$	c #4A4B4B",
"Q$	c #363637",
"R$	c #464647",
"S$	c #474847",
"T$	c #DADADA",
"U$	c #9B9C9C",
"V$	c #3C3C3D",
"W$	c #2B2B2C",
"X$	c #36383C",
"Y$	c #B1B9C7",
"Z$	c #5E6169",
"`$	c #151616",
" %	c #56595F",
".%	c #959595",
"+%	c #9E9E9E",
"@%	c #8F8F8F",
"#%	c #9D9D9D",
"$%	c #E5E5E5",
"%%	c #C3C3C3",
"&%	c #616060",
"*%	c #515152",
"=%	c #A1A1A1",
"-%	c #4D4D4B",
";%	c #282828",
">%	c #3D3D3C",
",%	c #585959",
"'%	c #0C0C0B",
")%	c #333332",
"!%	c #B1B1B1",
"~%	c #585957",
"{%	c #909092",
"]%	c #0F0F11",
"^%	c #313337",
"/%	c #A6AEBB",
"(%	c #CDDAEC",
"_%	c #E7EEFA",
":%	c #5D5D5E",
"<%	c #2C2C2D",
"[%	c #E8E8E8",
"}%	c #FBFBFC",
"|%	c #58585A",
"1%	c #333333",
"2%	c #9B9B9C",
"3%	c #151514",
"4%	c #111111",
"5%	c #272728",
"6%	c #C3CEDD",
"7%	c #D3E1F4",
"8%	c #DBE6F5",
"9%	c #4F4F51",
"0%	c #454546",
"a%	c #444443",
"b%	c #8E8E8F",
"c%	c #E4E4E3",
"d%	c #6A6A69",
"e%	c #787878",
"f%	c #9A9A9B",
"g%	c #828282",
"h%	c #999A9B",
"i%	c #78787A",
"j%	c #B6B6B6",
"k%	c #1B1B1A",
"l%	c #969EA9",
"m%	c #F5FBFF",
"n%	c #696969",
"o%	c #737374",
"p%	c #DBDBDB",
"q%	c #454545",
"r%	c #555558",
"s%	c #5D636A",
"t%	c #C5D1E2",
"u%	c #D8E6F9",
"v%	c #CFDCF1",
"w%	c #686A6F",
"x%	c #8A8A8B",
"y%	c #777777",
"z%	c #C4C4C3",
"A%	c #9E9F9F",
"B%	c #292927",
"C%	c #393B3E",
"D%	c #949BA5",
"E%	c #5B5F68",
"F%	c #1C1B1C",
"G%	c #6B6C6D",
"H%	c #646465",
"I%	c #565656",
"J%	c #A0A09F",
"K%	c #A9A9A9",
"L%	c #1C1C1B",
"M%	c #9D9D9F",
"N%	c #131211",
"O%	c #272725",
"P%	c #636363",
"Q%	c #414040",
"R%	c #161617",
"S%	c #979798",
"T%	c #2A292A",
"U%	c #9A9B9B",
"V%	c #393938",
"W%	c #F0F0F1",
"X%	c #6B6B6A",
"Y%	c #9F9FA1",
"Z%	c #767676",
"`%	c #E2E2E3",
" &	c #4B4B4C",
".&	c #050506",
"+&	c #919191",
"@&	c #343434",
"#&	c #7C7C7D",
"$&	c #909091",
"%&	c #646464",
"&&	c #DADADB",
"*&	c #DBDBDD",
"=&	c #D4D4D4",
"-&	c #4B4C4C",
";&	c #686869",
">&	c #8D8D8C",
",&	c #BCBCBD",
"'&	c #F3F3F3",
")&	c #989999",
"!&	c #BCBCBC",
"~&	c #424343",
"{&	c #474748",
"  . + @                                                                                             ",
"# $ % & *                                                                                           ",
"= - ; > , '                                                                                         ",
") ! ~ { ] ^                                                                                         ",
"  / ( ! _ : <                                                                                       ",
"    [ / } | / 1                                                                                     ",
"      2 3 4 5 6 7                                                                                   ",
"      8 9 0 ; a b c                                     d e                                         ",
"      f g ; ; h i j                         k       l m n o p                                       ",
"      q 6 r ; ; s t u                   v w x y z   w A B C D E                                     ",
"        x F ; ; G H I                 C J K L M N O P Q ; ; R +                                     ",
"        S T U V W T X           Y g   Z 9 ` ;  ...+.@.#.$.; %.T &.                                  ",
"          *.D =.6 -.;.        >...,.T '.).!.~.; {.T ].;.^./.T (.                                    ",
"            _.y :.<./ [.}.  |.1.2.3.4.#.5.6.7.; ; 6 t 8.P 9.0.                                      ",
"                y a.b.c.=.d.e.( f.; g...h.i.j.k.l.m.n.  0.  o.p.q.                                  ",
"                -.# r.; s.T t.u.v.w.; x.y.z.A./ 5 B.C.      T D.E.F.                                ",
"                5 G.; ; H.I.J.K.L.M.; N.T O.P.Q.  R.S.F     b ( T._.  U.V.                          ",
"                W.7 O ; ; X.4 Y.(.j.Z.`. +        o R y       O..+++o T T @+                        ",
"                  #+$+%+; w.&+*+=+P / -+          ,.;+3       >+,+9 '+)+X.!+~+                      ",
"                  {+4 ]+%+^+/+(+      _+f :+<+    [+}+|+1+2+_ y 3+4+; 5+; 6+6.                      ",
"                    7+j.8+9+0+a+      b+c+d+q       {.e+3 f+g+h+i+j+k+l+m+; #+n+                    ",
"                    o+S.j p+q+r+=     s+t+u+>.  v+j w+x+y+; z+@+7 A+B+C+D+; E+y.D.                  ",
"                          F+#.G+5         H+u S.$ I+J+K+; L+b M+N+O+P+Q+R+; H.S+T+                  ",
"                          U+f G++       V+$ *+W+T X+; Y+Z+`+D  @.@+@@@#@$@; ; %@/ &@                ",
"                            D.,.*@=@-@T 3 ;@.@; q+>@w.Z+,@'@!+)@q 9.!@; ; ~@{@u+T ]@                ",
"                              ^@I /@(@_@; ; ; ; ; :@v <@[@}@|@1@2@a ; .@3@}@}+U+4@5@6@              ",
"                            _.7@8@9@; ; ; ; ; ; ; 0@a@b@c@; ; ; ; ; > W+d@q.%@; ; e@f@g@            ",
"                            h@i@j@k@5+; ; ; ; ; ; l@m@n@; ; ; ; o@p@q@r@s@; ; ; ; ; t@u@            ",
"                            v@w@x@y@z@; ; ~@; A@B@C@D@E@F@G ; G@p+H@I@J@K@L@; ; ; ; M@>@N@          ",
"                            }.t+O@P@Q@R@; ; S@J ,.T@U@P@V@W@; o@X@y Y@Z@`@ #.#+#; ; ; *@o           ",
"                              @###$#Q@ #%#V f+&#; h@*#=#-#;#; ; >#y ,#'#)#Q@!#~#; ; ; {#T           ",
"                              6+]#^#Q@l+/#Y@(#{@_#:#<#[#}#|#; ; 1#2#(@A.3#4#5#-#; ; ;  .T           ",
"                                6#7#8#Q@9#0#a#*+6@T b#c#d#e#; ; f#,+~ g#h#i#j#k#; ; ; ; T l#        ",
"                                  m#n#o#p#q#r#s#K t#u#; -#v#w#; x#J p+Y.y#z#A#; |#; ; ; u B#        ",
"                                  C#D#E#F#G#H#; ; M./@I#; 9#J#; H.U K#L#M#; N#O#P#-#Q#w#Y.R#        ",
"                                    X S#T#U#V#;#; G@W#X#Y#/#Z#; ; o@B `# $.$+$@$#$$$%$&$*$=$        ",
"        -$;$T T 4 >$,$                '$)$o#!$~${$; h+]$^$; %$/$; ; {#w T D ..T ..($_$P@:$<$        ",
"      W D [$}$|$&+(@T 1$    g@        _.2$3$4$y@5$; ; C 2#6$7$8$9$V.<$0$a$b$c$d$e$f$g$h$T i$        ",
"    I.m.j$; ; ; ; k$/ l$m$n$P J o$p$    J.q$r$U#s$; B s.,+t$u$; '.v$w$q+! 9 w u+2+x$y$z$A$          ",
"    ]$B$d$h+; ; ; C$y D$q D E$F$3 I.    G$H$I$F#J$K$L$]$z.Y#; M$9 t@N$T.A ]+$.O$:@W O$S 2#P$        ",
"    N@Q$w (@R$++7.S$P V+h.#.; T$y U$V$T W$K#X$Y$Z$`$ %|@; ; ; .%;$+%P @%; #%Y $%%%! &%*%T 9.g       ",
"        =%-%[$;%o T >%,%'%)%; !%#.~%T {%F.6@l$]%^%/%(%_%o@; ; :%<%S (@[%W+;$/ M }%W.F |%,.1%]$      ",
"                  .     0.T W$#+q 2%T 3%>@6+&#4%5%6%P@7%8%e#; 9%5@0%I.%+a%t b%F.c%d%X#e%y#f%/ c     ",
"                          g%B$P -   h%F i%    j%k%f l%Q@5#y@m%n%( o%]@p%N+:+$ c ; q%V+r%;$p%K t     ",
"                                                  M h#s%t%u%v%w%T x%R#y%H.f.z%; A%! :#V++ ; h+;%,%  ",
"                                                    }.B%C%D%E%F%S$G%H%o I%J%K%,$L%+.M%T E ; ; a+S.  ",
"                                                        j N%O%P%Q%R%e S%#+t y$T%_.U%3 V%~.; ; W%:@:+",
"                                                          7.    t#T T @+X%G.Y%Z%K#v$f+`%; ; r. &.&+&",
"                                                                  4%{+@&T T T T o #&L+; ; $&f 5 b%  ",
"                                                                  %&( &&*&_@+%` h ; G@=&)%T -&      ",
"                                                                    u@;&G@; ; ; ; >#o%P + >&        ",
"                                                                    t@v$,&; ; '&)&u@6 i             ",
"                                                                      -.-.V !&~&F.*.                ",
"                                                                        P , w Q$P.                  ",
"                                                                          P {&                      "};
