/* XPM */
static const char * cursor2_xpm[] = {
"50 55 644 2",
"  	c None",
". 	c #868687",
"+ 	c #262625",
"@ 	c #606161",
"# 	c #C7C7C8",
"$ 	c #7A7B7C",
"% 	c #2E2E2E",
"& 	c #9E9E9E",
"* 	c #686869",
"= 	c #434343",
"- 	c #B4B4B5",
"; 	c #7F8081",
"> 	c #818181",
", 	c #FEFEFE",
"' 	c #F1F1F1",
") 	c #6B6B6B",
"! 	c #5C5C5D",
"~ 	c #8E8E8F",
"{ 	c #3C3D3D",
"] 	c #EEEEEE",
"^ 	c #E7E7E7",
"/ 	c #707071",
"( 	c #58595A",
"_ 	c #161615",
": 	c #7F7F7F",
"< 	c #2D2D2D",
"[ 	c #313132",
"} 	c #222223",
"| 	c #858585",
"1 	c #626364",
"2 	c #282828",
"3 	c #CCCCCC",
"4 	c #555555",
"5 	c #6B6B6A",
"6 	c #3F3F3F",
"7 	c #535354",
"8 	c #242425",
"9 	c #515152",
"0 	c #3E3E3E",
"a 	c #545556",
"b 	c #737373",
"c 	c #343434",
"d 	c #AAAAAB",
"e 	c #F5F5F5",
"f 	c #CECECE",
"g 	c #000100",
"h 	c #9D9D9D",
"i 	c #555658",
"j 	c #393939",
"k 	c #2C2C2B",
"l 	c #8B8B8C",
"m 	c #FFFFFF",
"n 	c #FBFBFC",
"o 	c #8A8B8C",
"p 	c #4B4B4B",
"q 	c #B2B2B3",
"r 	c #ADADAD",
"s 	c #848486",
"t 	c #464647",
"u 	c #3C3D3F",
"v 	c #434445",
"w 	c #585959",
"x 	c #7A7A7A",
"y 	c #303030",
"z 	c #E2E2E2",
"A 	c #3F3F3E",
"B 	c #838383",
"C 	c #B3B3B3",
"D 	c #424242",
"E 	c #262626",
"F 	c #1E1E1E",
"G 	c #858586",
"H 	c #424243",
"I 	c #EDEDEE",
"J 	c #E0E0E1",
"K 	c #2C2C2C",
"L 	c #8F8F8F",
"M 	c #5A5A5A",
"N 	c #808181",
"O 	c #FBFBFB",
"P 	c #959594",
"Q 	c #2A2B2A",
"R 	c #828282",
"S 	c #A7A7A8",
"T 	c #2C2D2D",
"U 	c #4D4D4D",
"V 	c #969696",
"W 	c #2D2D2E",
"X 	c #A1A1A1",
"Y 	c #0D0D0C",
"Z 	c #C6C6C7",
"` 	c #F2F2F2",
" .	c #A6A6A6",
"..	c #2B2B2B",
"+.	c #151514",
"@.	c #CFCFCF",
"#.	c #626263",
"$.	c #5D5D5C",
"%.	c #AFB0B0",
"&.	c #272727",
"*.	c #D7D7D7",
"=.	c #E0E0E0",
"-.	c #666667",
";.	c #737374",
">.	c #383838",
",.	c #4E4E4F",
"'.	c #202020",
").	c #6A6A6A",
"!.	c #373737",
"~.	c #A5A5A6",
"{.	c #404040",
"].	c #1D1D1E",
"^.	c #292929",
"/.	c #A6A6A7",
"(.	c #666666",
"_.	c #6D6E6E",
":.	c #F7F7F7",
"<.	c #D1D1D2",
"[.	c #0F0E0D",
"}.	c #A2A2A2",
"|.	c #686868",
"1.	c #6D6E6D",
"2.	c #B1B1B2",
"3.	c #454545",
"4.	c #3F4040",
"5.	c #98989A",
"6.	c #898989",
"7.	c #474747",
"8.	c #505051",
"9.	c #D6D6D7",
"0.	c #282827",
"a.	c #797979",
"b.	c #171718",
"c.	c #949494",
"d.	c #8A8A8B",
"e.	c #3C3C3C",
"f.	c #AFAFB0",
"g.	c #B8B8B8",
"h.	c #FDFDFD",
"i.	c #868686",
"j.	c #353536",
"k.	c #B0B0B1",
"l.	c #20201F",
"m.	c #212120",
"n.	c #808080",
"o.	c #262627",
"p.	c #929291",
"q.	c #5D5E5F",
"r.	c #ADADAF",
"s.	c #000000",
"t.	c #E9E9EA",
"u.	c #404041",
"v.	c #676869",
"w.	c #333334",
"x.	c #E6E6E7",
"y.	c #CACACA",
"z.	c #585858",
"A.	c #C8C8C8",
"B.	c #6D6E6F",
"C.	c #69696A",
"D.	c #454546",
"E.	c #747575",
"F.	c #DFDFDF",
"G.	c #BDBDBD",
"H.	c #242424",
"I.	c #A5A5A5",
"J.	c #535353",
"K.	c #B6B6B6",
"L.	c #282829",
"M.	c #ACACAC",
"N.	c #525252",
"O.	c #494949",
"P.	c #161616",
"Q.	c #525254",
"R.	c #6A6B6B",
"S.	c #636363",
"T.	c #6B6B6D",
"U.	c #2F2F2F",
"V.	c #FCFCFC",
"W.	c #656666",
"X.	c #979798",
"Y.	c #252525",
"Z.	c #9F9FA0",
"`.	c #4C4C4C",
" +	c #9B9B9A",
".+	c #6D6D6D",
"++	c #4E4E4E",
"@+	c #515151",
"#+	c #D3D3D3",
"$+	c #79797A",
"%+	c #3A3A3A",
"&+	c #ECECEC",
"*+	c #232324",
"=+	c #909090",
"-+	c #6E6E6F",
";+	c #5E5E5E",
">+	c #AEAEAE",
",+	c #323231",
"'+	c #484849",
")+	c #1E1E1F",
"!+	c #808081",
"~+	c #626262",
"{+	c #B9B9B9",
"]+	c #7F7F80",
"^+	c #646464",
"/+	c #8F8F90",
"(+	c #313131",
"_+	c #1E1E1D",
":+	c #141415",
"<+	c #848484",
"[+	c #CCCDCD",
"}+	c #949493",
"|+	c #3A3A3B",
"1+	c #919193",
"2+	c #676767",
"3+	c #1F1F1E",
"4+	c #717172",
"5+	c #CBCBCC",
"6+	c #636364",
"7+	c #909091",
"8+	c #D0D0D1",
"9+	c #080808",
"0+	c #5E5E60",
"a+	c #7C7C7C",
"b+	c #999998",
"c+	c #3B3B3B",
"d+	c #C4C4C4",
"e+	c #555556",
"f+	c #878786",
"g+	c #D5D5D6",
"h+	c #F5F6F8",
"i+	c #FCFDFE",
"j+	c #D4D4D4",
"k+	c #181818",
"l+	c #A4A4A5",
"m+	c #515153",
"n+	c #484848",
"o+	c #9F9F9F",
"p+	c #050504",
"q+	c #B8B8B9",
"r+	c #919191",
"s+	c #9B9C9C",
"t+	c #E2E3E3",
"u+	c #DCE6F4",
"v+	c #D4E1F4",
"w+	c #D5E2F4",
"x+	c #ECF1F9",
"y+	c #060605",
"z+	c #727273",
"A+	c #BCBCBD",
"B+	c #838385",
"C+	c #A9AAAA",
"D+	c #1C1C1D",
"E+	c #444445",
"F+	c #878888",
"G+	c #414142",
"H+	c #494849",
"I+	c #B0B0AF",
"J+	c #EBEBEB",
"K+	c #F4F4F4",
"L+	c #9A9A9A",
"M+	c #6D767F",
"N+	c #C3D0E2",
"O+	c #D6E2F4",
"P+	c #A9A9A9",
"Q+	c #BDBEBF",
"R+	c #373738",
"S+	c #2B2C2C",
"T+	c #949495",
"U+	c #A3A3A4",
"V+	c #59595A",
"W+	c #B3B6BB",
"X+	c #D0DDED",
"Y+	c #FBFCFE",
"Z+	c #9B9B9C",
"`+	c #545454",
" @	c #B1B1B1",
".@	c #6F7680",
"+@	c #D3E0F3",
"@@	c #FCFCFD",
"#@	c #BABABA",
"$@	c #060606",
"%@	c #212121",
"&@	c #A7A7A7",
"*@	c #757676",
"=@	c #6F6F6F",
"-@	c #3F3F40",
";@	c #BEBEBE",
">@	c #DDE7F4",
",@	c #E8EEF8",
"'@	c #A8A8A9",
")@	c #B0B0B0",
"!@	c #464B59",
"~@	c #CAD7EB",
"{@	c #E5EDF8",
"]@	c #575859",
"^@	c #696969",
"/@	c #707070",
"(@	c #6C6C6C",
"_@	c #7B7B7B",
":@	c #5B5B5C",
"<@	c #DCDCDC",
"[@	c #C0C1C1",
"}@	c #F5F7FB",
"|@	c #D3DEEE",
"1@	c #B8B9BA",
"2@	c #4D4D4C",
"3@	c #969799",
"4@	c #F4F6FA",
"5@	c #1F1F1F",
"6@	c #010100",
"7@	c #979799",
"8@	c #D1D1D1",
"9@	c #9D9D9E",
"0@	c #2D2E2E",
"a@	c #333333",
"b@	c #A4A4A4",
"c@	c #E8E8E8",
"d@	c #FAFAFA",
"e@	c #757576",
"f@	c #959596",
"g@	c #DDDDDD",
"h@	c #6B6E71",
"i@	c #BBBBBC",
"j@	c #5C5C5B",
"k@	c #C6C6C6",
"l@	c #545453",
"m@	c #D5D5D5",
"n@	c #A1A1A2",
"o@	c #4D5055",
"p@	c #A1A7B0",
"q@	c #F0F0F0",
"r@	c #2A2A2A",
"s@	c #E4E4E4",
"t@	c #3D3D3E",
"u@	c #F8F8F8",
"v@	c #717C85",
"w@	c #CEDAEB",
"x@	c #D7E3F5",
"y@	c #F8FAFC",
"z@	c #FDFEFF",
"A@	c #B0B5BC",
"B@	c #C7CBD0",
"C@	c #FEFEFD",
"D@	c #E8E8E9",
"E@	c #C5C5C5",
"F@	c #6B6C6C",
"G@	c #86909B",
"H@	c #E0E9F6",
"I@	c #FEFEFF",
"J@	c #DDE7F5",
"K@	c #D5E1F4",
"L@	c #E4ECF7",
"M@	c #DADADA",
"N@	c #5C5C5C",
"O@	c #414040",
"P@	c #A3A9B7",
"Q@	c #E8EDF4",
"R@	c #FEFFFF",
"S@	c #818182",
"T@	c #7D7D7D",
"U@	c #212324",
"V@	c #C3CDDC",
"W@	c #F1F4FA",
"X@	c #F6F6F6",
"Y@	c #2E2F2F",
"Z@	c #656F76",
"`@	c #C5D0DF",
" #	c #F9FAFC",
".#	c #D6D6D6",
"+#	c #F1F5FA",
"@#	c #DBE6F5",
"##	c #E5EDF7",
"$#	c #0F0F10",
"%#	c #616161",
"&#	c #6C7580",
"*#	c #D2DFF2",
"=#	c #D9E4F4",
"-#	c #666C75",
";#	c #FAFBFD",
">#	c #606060",
",#	c #767676",
"'#	c #9B9EA1",
")#	c #B4BFD1",
"!#	c #E5ECF7",
"~#	c #0D0D0D",
"{#	c #BBBCBC",
"]#	c #2C2D2E",
"^#	c #A9B1BF",
"/#	c #E7EEF8",
"(#	c #AFAFAF",
"_#	c #33373B",
":#	c #D5E2F3",
"<#	c #DEE7F5",
"[#	c #3B3B3C",
"}#	c #1F1F20",
"|#	c #ADB6C3",
"1#	c #676868",
"2#	c #878788",
"3#	c #464D52",
"4#	c #C8D5E6",
"5#	c #F5F7FA",
"6#	c #BEBEBF",
"7#	c #595958",
"8#	c #ECF2F9",
"9#	c #D6E3F4",
"0#	c #C0C0C0",
"a#	c #6C7179",
"b#	c #D5E2F5",
"c#	c #E6ECF6",
"d#	c #777777",
"e#	c #8D93A1",
"f#	c #DEE8F6",
"g#	c #FCFDFD",
"h#	c #BFC0C0",
"i#	c #838382",
"j#	c #E6EDF8",
"k#	c #F9F9F9",
"l#	c #A8A8A8",
"m#	c #4F4F4F",
"n#	c #86898E",
"o#	c #AAABAB",
"p#	c #626363",
"q#	c #1F1E1D",
"r#	c #BBC7D7",
"s#	c #EEF2F8",
"t#	c #DCDCDD",
"u#	c #343435",
"v#	c #FBFCFD",
"w#	c #DAE5F5",
"x#	c #1B1B1B",
"y#	c #EDEDED",
"z#	c #FAFBFC",
"A#	c #F1F5FB",
"B#	c #EEF2F9",
"C#	c #F0F4FA",
"D#	c #F4F7FB",
"E#	c #1F1F21",
"F#	c #5B5B5B",
"G#	c #616874",
"H#	c #D1DEF1",
"I#	c #D8E3F5",
"J#	c #A0A0A1",
"K#	c #EEF3F9",
"L#	c #D9E4F5",
"M#	c #E5E5E5",
"N#	c #F0F0F1",
"O#	c #D0D6E0",
"P#	c #B8C4D7",
"Q#	c #C5D3E7",
"R#	c #D0DDF0",
"S#	c #DBE6F6",
"T#	c #D4D9E0",
"U#	c #939393",
"V#	c #565656",
"W#	c #787878",
"X#	c #9FA8B5",
"Y#	c #E2EBF7",
"Z#	c #4F4F50",
"`#	c #F4F4F5",
" $	c #B9B9BA",
".$	c #0A0B0D",
"+$	c #000002",
"@$	c #474D55",
"#$	c #9BA5B2",
"$$	c #CCD9EB",
"%$	c #C0CADC",
"&$	c #080500",
"*$	c #767778",
"=$	c #252626",
"-$	c #9C9C9B",
";$	c #7D7E7E",
">$	c #8C8D8D",
",$	c #3D3E41",
"'$	c #C8D3E3",
")$	c #F3F6FA",
"!$	c #363636",
"~$	c #DFE1E4",
"{$	c #DFE8F5",
"]$	c #DAE5F4",
"^$	c #E5E5E6",
"/$	c #3C3D3E",
"($	c #585857",
"_$	c #BFBFBF",
":$	c #8B8B8D",
"<$	c #B3B3B4",
"[$	c #1D1C1C",
"}$	c #5D6167",
"|$	c #B0BAC9",
"1$	c #6A6D76",
"2$	c #818180",
"3$	c #A3A3A3",
"4$	c #DFDFE0",
"5$	c #414143",
"6$	c #8B8B8B",
"7$	c #3E3E3F",
"8$	c #434344",
"9$	c #4D4D4E",
"0$	c #7F8691",
"a$	c #DCE6F5",
"b$	c #595959",
"c$	c #838992",
"d$	c #E4EBF6",
"e$	c #7D7D7C",
"f$	c #BBBBBB",
"g$	c #0C0B09",
"h$	c #575757",
"i$	c #AEAEAD",
"j$	c #676768",
"k$	c #F3F3F3",
"l$	c #C9C9C9",
"m$	c #232323",
"n$	c #050505",
"o$	c #BDBDBE",
"p$	c #4A4A4A",
"q$	c #5D5D5D",
"r$	c #0C0C0B",
"s$	c #B6BFCE",
"t$	c #E9EEF6",
"u$	c #CBCBCB",
"v$	c #CACACB",
"w$	c #0E0E10",
"x$	c #606061",
"y$	c #939394",
"z$	c #C1C1C2",
"A$	c #323333",
"B$	c #626261",
"C$	c #6A6A6C",
"D$	c #B6B6B7",
"E$	c #555A61",
"F$	c #CFDBEE",
"G$	c #C4CEE0",
"H$	c #7C808C",
"I$	c #292828",
"J$	c #AEAEAF",
"K$	c #E9E9E9",
"L$	c #8E8E8E",
"M$	c #525253",
"N$	c #656565",
"O$	c #666767",
"P$	c #171717",
"Q$	c #060607",
"R$	c #565655",
"S$	c #929293",
"T$	c #4A4B4B",
"U$	c #1C1C1B",
"V$	c #6A6D74",
"W$	c #383B40",
"X$	c #6B7078",
"Y$	c #BFCBDD",
"Z$	c #EAF0F9",
"`$	c #161718",
" %	c #C2C2C2",
".%	c #737475",
"+%	c #707171",
"@%	c #BFBFC0",
"#%	c #101010",
"$%	c #CDCDCE",
"%%	c #121214",
"&%	c #2C2C2D",
"*%	c #343535",
"=%	c #3D3D3D",
"-%	c #878889",
";%	c #353535",
">%	c #888888",
",%	c #616160",
"'%	c #575A5F",
")%	c #CAD5E6",
"!%	c #E2EAF5",
"~%	c #B7B7B8",
"{%	c #848586",
"]%	c #1B1C1B",
"^%	c #212222",
"/%	c #E2E2E1",
"(%	c #090907",
"_%	c #818282",
":%	c #909192",
"<%	c #515252",
"[%	c #989898",
"}%	c #53585E",
"|%	c #BBC6D6",
"1%	c #F0F5FB",
"2%	c #C4C4C5",
"3%	c #2D2D2B",
"4%	c #DDDDDE",
"5%	c #19191A",
"6%	c #D7D7D8",
"7%	c #A3A4A5",
"8%	c #181817",
"9%	c #C0C0C1",
"0%	c #6E6E6E",
"a%	c #303031",
"b%	c #9CA5B3",
"c%	c #C5CBD5",
"d%	c #040303",
"e%	c #ABABAB",
"f%	c #474749",
"g%	c #8D8D8D",
"h%	c #464747",
"i%	c #7E7E7F",
"j%	c #727374",
"k%	c #2E2F30",
"l%	c #747980",
"m%	c #CAD6E7",
"n%	c #C4CDE1",
"o%	c #6F757C",
"p%	c #9A9A9B",
"q%	c #959696",
"r%	c #B4B4B4",
"s%	c #6C6C6E",
"t%	c #EFEFEF",
"u%	c #2B2B2C",
"v%	c #B7B7B7",
"w%	c #424343",
"x%	c #929292",
"y%	c #5E5E5F",
"z%	c #898A8C",
"A%	c #9B9B9B",
"B%	c #9C9C9C",
"C%	c #535355",
"D%	c #8F9090",
"E%	c #B5B5B6",
"F%	c #878787",
"G%	c #7D7D7E",
"H%	c #2F2F30",
"I%	c #383837",
"J%	c #525251",
"K%	c #7C7C7E",
"L%	c #5C5D5D",
"M%	c #ABABAA",
"N%	c #E3E3E3",
"O%	c #D9D9D9",
"P%	c #6D6D6E",
"Q%	c #6F7071",
"R%	c #5F5F5F",
"S%	c #0B0B0B",
"T%	c #383839",
"U%	c #727272",
"V%	c #272728",
"W%	c #535352",
"X%	c #A2A3A3",
"Y%	c #B2B2B1",
"Z%	c #252526",
"`%	c #919192",
"  . + @ #                                                                                           ",
"$ % & * = -                                                                                         ",
"; > , ' ) !                                                                                         ",
"~ { ] ^ / (                                                                                         ",
"  _ : < [ }                                                                                         ",
"  | 1 2 3 ! 4 5                                                                                     ",
"      6 7 8 9 0 a                                                                                   ",
"      b c d e f g h                                     i j                                         ",
"      k l m m n o p                         q r     s t u v w                                       ",
"      x y z m m ^ A B                   C D E F G   H > I J K L                                     ",
"        M N O m , P p                   Q R z S T f U V , , r W                                     ",
"        X Y Z `  ...7             C     +.@.m e #.$.%.&.*.m =.E -.                                  ",
"          ;.>.,.'.).!.        ~.{.].^./.(._.:.m <.[.}.|.1.2.3.4.5.                                  ",
"            6.7.8.9.&.0.a.    b.c.^ d.e.f.].g.m h.i.j.k.l.m.n.                                      ",
"                e.< o.p.H q.r.s.^ m t.u.v.. w.x.y.z.c   l }.A.B.C.                                  ",
"                D.E.F., G.H.I.J.6., m K.L.M.N.O.P.Q.        R.S.T.6                                 ",
"                U.C m m V.;.W.X.} f m z Y.R Z.`. +g.l B     .+++++@+    #+                          ",
"                $+%+&+m m =.*+=+-+;+>+,+'+/.      z.;+)+!+    ~+|.{+]+'.s.^+                        ",
"                  O./+, m ,  .(+q _+:+<+[+        j.}+|+=     1+2+3+4+5+z ^+6+                      ",
"                  7+'.8+m ] l 9+0+      u.E a+    b+c+7 d+& e+[ f+g+h+i+m j+k+l+                    ",
"                    m+S.K.%+n+7+      o+H l+p+      q+r+++0 s+t+:.u+v+w+x+h.P M                     ",
"                      + y+z+A+B+C+    C D+E+t     F+G+H+I+J+K+L+W.M+N+v+O+h.J+= 6.                  ",
"                      L P+Q++ R+S+      T+U+7+4+< V+W+X+Y+, Z+`+ @E+.@+@O+@@m #@(+                  ",
"                          a.$@U+%@      &@*@k+=@-@;@, >@,@h.O.'@m )@!@~@{@m m n ]@^@                ",
"                            /@s.(@  _@:@b.7+<@V.[@3.&+}@|@1@0.2@X n+3@4@, m ` U+5@6@7@              ",
"                              8@9@0@a@b@c@h.m m d@e@f@g@h@-@i@}.j@b@:.m V.k@l@S.m@b@'+              ",
"                            n@|+o@p@q@m m m m m m g@^.r@c.] m , h., , s@B t@ @u@m ' 4 7+            ",
"                            n.v@w@x@y@m m m m m m z@A@B@C@m m m m K+>+y | D@m m m m E@y             ",
"                            F@G@v+v+H@I@m m m , n J@v+K@L@I@m m M@N@O@P@Q@R@m m m m V.S@=@          ",
"                            T@U@V@v+v+W@m m X@r+Y@Z@`@v+v+ #m m K.l..#+#w+@###i+m m m =.$#          ",
"                              %#&#*#v+=#Y+m  .(.m@d.-#+@v+;#m m e >#,#'#)#v+v+!#m m m X@~#b@        ",
"                              {#]#^#v+v+/#m ,#(#m f _#:#<#, m m m r+D+[#}#|#v+O+I@m m d@1#J.        ",
"                                2#3#4#v+O+5#6#e.P+7#T+8#9#y@m m X@j 0#:.%#a#b#c#m m m , V d#        ",
"                                  p e#+@v+f#g#h#i#4 c., j#f#, m k#{.l#=.m#n#j#@@m m m m o#p#        ",
"                                  b@q#r#v+v+s#m m t#u#m@v#w#s#m m E@x#s.) y#z#A#B#C#D#m @.E#        ",
"                                    F#G#H#v+I#v#m m J#-.X@K#L#Y+m , q@M#N#O#P#Q#R#v+K@S#T#s.        ",
"          U#>#V#W#p#k@                R+X#v+v+Y#m m K+Z#C , H@!#m m `# $8.s..$+$@$#$$$v+%$&$*$      ",
"      T+=$V#-$o+;$K s.>$              T@,$'$v+w+)$m m 5+!$~${$]$i+^$p#/$($_$:$<$d#[$}$|$1$6@2$      ",
"    c.)+3$e m m O 4$)+5$Z+6$7$3.8$l+    9$0$+@v+a$i+m ` b$c$d$z#y#8.Z#Z e$c+t@%+2#f$m#g$h$i$        ",
"    p j$k$m m m m l$m$b m#n$b@o$p$q$    =+r$s$v+v+t$8+F#;+g+m m V h$u$J.7.b@y. .3.($v$& _@,#        ",
"    3.w$x$y$z$=.:.Z+A$_$(#c c@m B$C$D$%@^+$+E$F$G$H$I$J$e m m K$R+L$(.4 ^ u@z u@M#M$N$O$s.s.}.      ",
"      l ~ ($5@'.h$% 0.P$Q$R$, &+%+S$T$x$U$; = V$W$X$Y$Z$, m m 8@`$#+s. %k$.%H.+%K+@%#%$%%%&%*%      ",
"                : =%/.  R y k.>+*+-%;%>%!.,%}.m$'%)%v+v+!%Y+m ~%-@{%s.^ # ]%f@^%y./%(%_%u.L$++W#    ",
"                          *@t s.<   :%<%;.    [%J.}%|%v+v+L#1%2%3%~.s.M@4%5%v _+F.6%s.7%j >+d+8%P   ",
"                              o$9%                0%a%b%*#v+K@c%d%e%f%g%O #+e%j+O d.h%o$s.8+O i%t   ",
"                                                    j%k%l%m%n%o%&..%7+x#p%&+X@J+q%F r%s%'+t%m z u%B ",
"                                                      v%w%O.l.N@x%y%z%X D s.U.s.= I.- m$ @m m m n@)+",
"                                                          A%B%  C%s.} D%E%r+V+~   S$a%F%u@m m J+G%!$",
"                                                                  ^.H%I%;%J%K%L%^.r@n@u@m k#g.t@>.6#",
"                                                                  T+a@l$~%B a.: M%N%m , O%P%H.Q%    ",
"                                                                    R%n.V.m m m m m ] B%8%0%        ",
"                                                                    >+S%Z m m m O  %p T%G           ",
"                                                                      4+n+' , J _@}#U%              ",
"                                                                        + B & V%W%X%                ",
"                                                                        Y%a%Z%`%                    "};
