/* XPM */
static const char * n0_xpm[] = {
"35 35 3 1",
" 	c None",
".	c #8373FF",
"+	c #8272FD",
"                                   ",
"                                   ",
"       ....................        ",
"       ....................        ",
"     ........................      ",
"    ..........................     ",
"   ...........................     ",
"   ........           .........    ",
"  .......                ......    ",
"  .....                   .....    ",
"  .....                    .....   ",
"  ....                     .....   ",
"  ....                     .....   ",
"  ....+                    .....   ",
"  ....                     .....   ",
"  .....                    .....   ",
"  .....                    .....   ",
"  .....                    .....   ",
"  .....                    .....   ",
"  ....                     .....   ",
"  ....+                    .....   ",
"  ....                     .....   ",
"  ....                     .....   ",
"  .....                    .....   ",
"   ....                   .....    ",
"  .......                ......    ",
"   ........           .........    ",
"   ...........................     ",
"    ..........................     ",
"     ........................      ",
"      .....................        ",
"       ....................        ",
"                                   ",
"                                   ",
"                                   "};
