/* XPM */
static const char * n4_xpm[] = {
"35 35 3 1",
" 	c None",
".	c #8373FF",
"+	c #6252B6",
"                                   ",
"                                   ",
"                                   ",
"                                   ",
"                                   ",
"                    ...            ",
"                  .....            ",
"                 ......            ",
"                ... ...            ",
"               ...   ..            ",
"             ....    ..            ",
"            ...      ..            ",
"           ...       ..            ",
"          ...        ..            ",
"        ....         ..            ",
"       ...           ..            ",
"      ...            ..            ",
"     ...             ..            ",
"    ...              ..            ",
"  ...                ..            ",
" ...                 ..            ",
"............................       ",
"............................       ",
" ..........................        ",
"                     ..            ",
"                     ..            ",
"                     ..            ",
"                     ..            ",
"                                   ",
"                                   ",
"                                   ",
"                                   ",
"                                   ",
"                                   ",
"                                   "};
