/* XPM */
static const char * n6_xpm[] = {
"35 35 4 1",
" 	c None",
".	c #7566E2",
"+	c #8373FF",
"@	c #6252B6",
"                                   ",
"                                   ",
"                                   ",
"                                   ",
"                                   ",
"                                   ",
"               .+++++++++++++      ",
"          @+++++++++++++++++       ",
"        ++++++++++++++++++++       ",
"       +++++                       ",
"      +++                          ",
"     +++                           ",
"    @++                            ",
"    +++                            ",
"    ++                             ",
"   +++                             ",
"   +++                             ",
"   +++++++++++++++++++++++++       ",
"   +++++++++++++++++++++++++++     ",
"   +++                      +++    ",
"    ++                       ++    ",
"    ++                       ++    ",
"    +++                      +++   ",
"     ++                      ++    ",
"     +++                     ++    ",
"      +++                   +++    ",
"       +++++             @++++     ",
"        @++++++++++++++++++++      ",
"           +++++++++++++++         ",
"                                   ",
"                                   ",
"                                   ",
"                                   ",
"                                   ",
"                                   "};
