/* XPM */
static const char * n8_xpm[] = {
"35 35 5 1",
" 	c None",
".	c #8373FF",
"+	c #8272FE",
"@	c #8171FC",
"#	c #8172FD",
"                                   ",
"                                   ",
"                                   ",
"                                   ",
"                                   ",
"          .............            ",
"      ....................         ",
"     ......................        ",
"    ....                  ...      ",
"    ...                    ...     ",
"    ..                     ...     ",
"    ..                      ..     ",
"    ..                      ..     ",
"    ..                     ..      ",
"     ..                   ...      ",
"      ....              ...        ",
"       ...................         ",
"     .......................       ",
"    ...                   ...      ",
"    ...                    ...     ",
"   ...                      ..     ",
"   ...                      ..     ",
"   ...                      ..     ",
"   ...                      ..     ",
"    ..                     ...     ",
"    ....                  ....     ",
"     ........................      ",
"      .....................        ",
"          ..............           ",
"                                   ",
"                                   ",
"                                   ",
"                                   ",
"                                   ",
"                                   "};
