/* XPM */
static const char * n9_xpm[] = {
"35 35 4 1",
" 	c None",
".	c #8373FF",
"+	c #30688C",
"@	c #7767E4",
"                                   ",
"                                   ",
"                                   ",
"                                   ",
"                                   ",
"              ....                 ",
"        ................           ",
"      ....................         ",
"    .....             .....        ",
"    ...                  ...       ",
"   ..                     ...      ",
"   ..                      ...     ",
"   ..                       ..     ",
"   ..                       ...    ",
"   ...                      ...    ",
"    ...                     ...    ",
"    .......      ..............    ",
"      .........................    ",
"          ........           ..    ",
"                            ...    ",
"                            ...    ",
"                            ..     ",
"                            ..     ",
"                           ...     ",
"                          ...      ",
"                         ...       ",
"                       ....        ",
"       ...................         ",
"      ..................           ",
"     ..............                ",
"                                   ",
"                                   ",
"                                   ",
"                                   ",
"                                   "};
