/* XPM */
static const char * back_xpm[] = {
"145 35 5 1",
" 	c None",
".	c #000000",
"+	c #000001",
"@	c #7363DD",
"#	c #010002",
"                                                                                                                                                 ",
"                                                                                                                                                 ",
"                                                                                                                                                 ",
"                                                                                                                                                 ",
"                                                                                                                                                 ",
"           ..........+.+.+++                                                             ................     +++++             .........        ",
"           .........++++++++++..                      .....                        @....................      +++++            ........          ",
"          ........................                   .......                     ......................       .....           ........           ",
"         .........................                  .........                   .......................       .....         .........            ",
"        ...........................                ...........                 .......................        .....        ........              ",
"       ............................                ............               .......................         .....       ........               ",
"                             @.....               .............              ........                         .....      ........                ",
"                              .....              ...............            @.......                          .....     .......                  ",
"                              .....              ......   .......           .......                           .....    .......                   ",
"      ............................              .......   .......           .+....                            .....  .......                     ",
"      ...........................              .......     .......          ......                            .............                      ",
"      ..........................              .......       .......         ..++.                             ............                       ",
"      ............................            .......       .......         ..++.                             .............                      ",
"      .............................          .......         .......        ..++..                            ...............                    ",
"      ......                  .....         .......           .......       ......                            .....   ........                   ",
"      ......                  ......       @......            @.......      .......                           .....    ........                  ",
"      ......                  ......       .......             .......       .......                          .....     .........                ",
"      ......                 @......      .......               .......      ........                         .....      @........               ",
"      ..............................     .......     ...................      ...........................     .....        ........              ",
"      ++++.+.+.....................      .......     ...................       .........................      .....         ........             ",
"      ++...........................     .......     .....................       .......................       .....          .........           ",
"      #...........................     .......     .......................       @....................        .....           .........          ",
"      +..........................     .......     @.......................          ..................        .....            .........         ",
"      ......................          .......     .........................              ............         .....             .........        ",
"                                                                                                                                                 ",
"                                                                                                                                                 ",
"                                                                                                                                                 ",
"                                                                                                                                                 ",
"                                                                                                                                                 ",
"                                                                                                                                                 "};
