/* XPM */
static char * desafio_teclas_p_xpm[] = {
"50 51 65 1",
" 	c None",
".	c #212121",
"+	c #1A1A1A",
"@	c #000000",
"#	c #303030",
"$	c #010101",
"%	c #2B2B2B",
"&	c #676767",
"*	c #BEBEBE",
"=	c #D4D4D4",
"-	c #9F9F9F",
";	c #FBFBFB",
">	c #FFFFFF",
",	c #737373",
"'	c #FCFCFC",
")	c #BFBFBF",
"!	c #858585",
"~	c #7B7B7B",
"{	c #C1C1C1",
"]	c #CECECE",
"^	c #B5B5B5",
"/	c #E9E9E9",
"(	c #606060",
"_	c #595959",
":	c #D1D1D1",
"<	c #D8D8D8",
"[	c #D6D6D6",
"}	c #DADADA",
"|	c #C8C8C8",
"1	c #9D9D9D",
"2	c #2E2E2E",
"3	c #F4F4F4",
"4	c #EDEDED",
"5	c #767676",
"6	c #F7F7F7",
"7	c #575757",
"8	c #B3B3B3",
"9	c #9A9A9A",
"0	c #4F4F4F",
"a	c #CACACA",
"b	c #8D8D8D",
"c	c #C5C5C5",
"d	c #F0F0F0",
"e	c #EBEBEB",
"f	c #F6F6F6",
"g	c #B8B8B8",
"h	c #757575",
"i	c #A0A0A0",
"j	c #F2F2F2",
"k	c #F3F3F3",
"l	c #F1F1F1",
"m	c #C6C6C6",
"n	c #626262",
"o	c #080808",
"p	c #090909",
"q	c #0A0A0A",
"r	c #050505",
"s	c #FEFEFE",
"t	c #8C8C8C",
"u	c #E8E8E8",
"v	c #CDCDCD",
"w	c #B7B7B7",
"x	c #191919",
"y	c #252525",
"z	c #1E1E1E",
"  .+@@@@@@@@@@@@@@@@@@@@@@@@@@@@@@@@@@@@@@@@@@+#  ",
" $@@@@@@@@@@@@@@@@@@@@@@@@@@@@@@@@@@@@@@@@@@@@@@$ ",
"%@@@@@@@@@@@@@@@@@@@@@@@@@@@@@@@@@@@@@@@@@@@@@@@@%",
"+@@@@@@@@@@@@@@@@@@@@@@@@@@@@@@@@@@@@@@@@@@@@@@@@+",
"@@@@@@@@@@@@@@@@@@@@@@@@@@@@@@@@@@@@@@@@@@@@@@@@@@",
"@@@@@@@&*================================*&@@@@@@@",
"@@@@@@-;>>>>>>>>>>>>>>>>>>>>>>>>>>>>>>>>>>;-@@@@@@",
"@@@@@,;')!~~~~~~~~~~~~~~~~~~~~~~~~~~~~~~!{';,@@@@@",
"@@@@@]>^@@@@@@@@@@@@@@@@@@@@@@@@@@@@@@@@@@^>]@@@@@",
"@@@@@/>(@@@@@@@@@@@@@@@@@@@@@@@@@@@@@@@@@@(>/@@@@@",
"@@@@@/>_@@@:<[<}}[[}}[|12@@@@@@@@@@@@@@@@@_>/@@@@@",
"@@@@@/>_@@@3>>>>>>>>>>>>45@@@@@@@@@@@@@@@@_>/@@@@@",
"@@@@@/>_@@@3>>>>>>>>>>>>>67@@@@@@@@@@@@@@@_>/@@@@@",
"@@@@@/>_@@@3>>>>>>>>>>>>>>8@@@@@@@@@@@@@@@_>/@@@@@",
"@@@@@/>_@@@3>>>>90000a>>>>)@@@@@@@@@@@@@@@_>/@@@@@",
"@@@@@/>_@@@3>>>>b@@@@c>>>>)@@@@@@@@@@@@@@@_>/@@@@@",
"@@@@@/>_@@@3>>>>b@@@@c>>>>)@@@@@@@@@@@@@@@_>/@@@@@",
"@@@@@/>_@@@3>>>>b@@@@c>>>>)@@@@@@@@@@@@@@@_>/@@@@@",
"@@@@@/>_@@@3>>>>b@@@@c>>>>)@@@@@@@@@@@@@@@_>/@@@@@",
"@@@@@/>_@@@3>>>>b@@@@c>>>>)@@@@@@@@@@@@@@@_>/@@@@@",
"@@@@@/>_@@@3>>>>deeeef>>>>g@@@@@@@@@@@@@@@_>/@@@@@",
"@@@@@/>_@@@3>>>>>>>>>>>>>'h@@@@@@@@@@@@@@@_>/@@@@@",
"@@@@@/>_@@@3>>>>>>>>>>>>;i@@@@@@@@@@@@@@@@_>/@@@@@",
"@@@@@/>_@@@3>>>>fjjkkl/mn@@@@@@@@@@@@@@@@@_>/@@@@@",
"@@@@@/>_@@@3>>>>boopqr@@@@@@@@@@@@@@@@@@@@_>/@@@@@",
"@@@@@/>_@@@3>>>>b@@@@@@@@@@@@@@@@@@@@@@@@@_>/@@@@@",
"@@@@@/>_@@@3>>>>b@@@@@@@@@@@@@@@@@@@@@@@@@_>/@@@@@",
"@@@@@/>_@@@3>>>>b@@@@@@@@@@@@@@@@@@@@@@@@@_>/@@@@@",
"@@@@@/>_@@@3>>>>b@@@@@@@@@@@@@@@@@@@@@@@@@_>/@@@@@",
"@@@@@/>_@@@3>>>>b@@@@@@@@@@@@@@@@@@@@@@@@@_>/@@@@@",
"@@@@@/>_@@@ksssst@@@@@@@@@@@@@@@@@@@@@@@@@_>/@@@@@",
"@@@@@/>_@@@@@@@@@@@@@@@@@@@@@@@@@@@@@@@@@@_>/@@@@@",
"@@@@@/>_@@@@@@@@@@@@@@@@@@@@@@@@@@@@@@@@@@_>/@@@@@",
"@@@@@/>_@@@@@@@@@@@@@@@@@@@@@@@@@@@@@@@@@@_>/@@@@@",
"@@@@@/>_@@@@@@@@@@@@@@@@@@@@@@@@@@@@@@@@@@_>/@@@@@",
"@@@@@/>_@@@@@@@@@@@@@@@@@@@@@@@@@@@@@@@@@@_>/@@@@@",
"@@@@@/>_@@@@@@@@@@@@@@@@@@@@@@@@@@@@@@@@@@_>/@@@@@",
"@@@@@/>_@@@@@@@@@@@@@@@@@@@@@@@@@@@@@@@@@@_>/@@@@@",
"@@@@@/>_@@@@@@@@@@@@@@@@@@@@@@@@@@@@@@@@@@_>/@@@@@",
"@@@@@/>_@@@@@@@@@@@@@@@@@@@@@@@@@@@@@@@@@@_>/@@@@@",
"@@@@@/>_@@@@@@@@@@@@@@@@@@@@@@@@@@@@@@@@@@_>/@@@@@",
"@@@@@u>(@@@@@@@@@@@@@@@@@@@@@@@@@@@@@@@@@@(>u@@@@@",
"@@@@@v>w@@@@@@@@@@@@@@@@@@@@@@@@@@@@@@@@@@w>v@@@@@",
"@@@@@,;'{!~~~~~~~~~~~~~~~~~~~~~~~~~~~~~~!)';,@@@@@",
"@@@@@@-;>>>>>>>>>>>>>>>>>>>>>>>>>>>>>>>>>>;-@@@@@@",
"@@@@@@@&*================================*&@@@@@@@",
"@@@@@@@@@@@@@@@@@@@@@@@@@@@@@@@@@@@@@@@@@@@@@@@@@@",
"x@@@@@@@@@@@@@@@@@@@@@@@@@@@@@@@@@@@@@@@@@@@@@@@@x",
" @@@@@@@@@@@@@@@@@@@@@@@@@@@@@@@@@@@@@@@@@@@@@@@@ ",
" $@@@@@@@@@@@@@@@@@@@@@@@@@@@@@@@@@@@@@@@@@@@@@@@ ",
"  y+@@@@@@@@@@@@@@@@@@@@@@@@@@@@@@@@@@@@@@@@@@z.  "};
