/* XPM */
static char * desafio_teclas_shift_xpm[] = {
"50 50 86 1",
" 	c None",
".	c #585656",
"+	c #1A1A1A",
"@	c #010101",
"#	c #282828",
"$	c #272727",
"%	c #070707",
"&	c #000000",
"*	c #0F0F0F",
"=	c #454545",
"-	c #151515",
";	c #020202",
">	c #3E3E3E",
",	c #383838",
"'	c #050505",
")	c #2F2F2F",
"!	c #494949",
"~	c #6B6B6B",
"{	c #EEEEEE",
"]	c #ECECEC",
"^	c #616161",
"/	c #040404",
"(	c #303030",
"_	c #0E0E0E",
":	c #7F7F7F",
"<	c #F7F7F7",
"[	c #FFFFFF",
"}	c #F0F0F0",
"|	c #696969",
"1	c #2C2C2C",
"2	c #0D0D0D",
"3	c #F8F8F8",
"4	c #F1F1F1",
"5	c #6A6A6A",
"6	c #2B2B2B",
"7	c #2D2D2D",
"8	c #686868",
"9	c #2E2E2E",
"0	c #030303",
"a	c #808080",
"b	c #3C3C3C",
"c	c #424242",
"d	c #101010",
"e	c #323232",
"f	c #6F6F6F",
"g	c #858585",
"h	c #848484",
"i	c #F3F3F3",
"j	c #3B3535",
"k	c #EFEFEF",
"l	c #232222",
"m	c #1E1E1E",
"n	c #090909",
"o	c #080808",
"p	c #727272",
"q	c #787878",
"r	c #747474",
"s	c #707070",
"t	c #292929",
"u	c #E5E5E5",
"v	c #292828",
"w	c #423C3C",
"x	c #AFAFAF",
"y	c #423B3B",
"z	c #4E4C4C",
"A	c #252525",
"B	c #DADADA",
"C	c #DBDBDB",
"D	c #4F4949",
"E	c #313131",
"F	c #1D1D1D",
"G	c #A4A4A4",
"H	c #D9D9D9",
"I	c #EBEBEB",
"J	c #323333",
"K	c #2C2929",
"L	c #474343",
"M	c #1B1B1B",
"N	c #464343",
"O	c #463F3F",
"P	c #5C5050",
"Q	c #252323",
"R	c #1F1F1F",
"S	c #202020",
"T	c #181818",
"U	c #333333",
"                                                  ",
"                      .+@@#                       ",
"                     $%&&&&*=                     ",
"                    -@&;>,&&')                    ",
"                   !;@&~{]^@@/(                   ",
"                  _;&&:<[[}|&@/1                  ",
"                 2@&@:3[[[[45@@/6                 ",
"                *@&&:3[[[[[[4|@@/7                ",
"               *;&@:3[[[[[[[[48@@/9               ",
"              2@&@:3[[[[[[[[[[45@@/1              ",
"             _@@&:3[[[[[[[[[[[[45@@06             ",
"            9@&@:3[[[[[[[[[[[[[[48@@/7            ",
"           2@@@:3[[[[[[[[[[[[[[[[48@@'1           ",
"          *;&&a3[[[[[[[[[[[[[[[[[[45@@/6          ",
"         _@&@:3[[[[[[[[[[[[[[[[[[[[45@@/1         ",
"        _@&@:3[[[[[[[[[[[[[[[[[[[[[[48@@/7        ",
"       _;&&:3[[[[[[[[[[[[[[[[[[[[[[[[48@@/1       ",
"      b;&@a3[[[[[[[[[[[[[[[[[[[[[[[[[[45@@/c      ",
"      %@@a3[[[[[[[[[[[[[[[[[[[[[[[[[[[[45@@d      ",
"     e&&@fghhhhhggggi[[[[[[[[igggghhhhhg|&&@j     ",
"     e&&&&&&&&&&&&&_k[[[[[[[[k_&&&&&&&&&&&&@6     ",
"      l&&&&&&&&&&&&_k[[[[[[[[k_&&&&&&&&&&&&m      ",
"                 n&_k[[[[[[[[k_&o8pqqqrss         ",
"                 *&2{[[[[[[[[{2&*                 ",
"                 *&2{[[[[[[[[{2&*                 ",
"                 *&2{[[[[[[[[{2&*                 ",
"                 *&2{[[[[[[[[{2&*                 ",
"                 _&_k[[[[[[[[k*&2                 ",
"                 2&_k[[[[[[[[k_&_                 ",
"                 2&_k[[[[[[[[k_&_                 ",
"                 _&_k[[[[[[[[k_&_                 ",
"                 *&2{[[[[[[[[{2&*                 ",
"                 *&2{[[[[[[[[{2&*                 ",
"                 *&2{[[[[[[[[{2&*                 ",
"                 *&2{[[[[[[[[{2&d                 ",
"///              t&0u[[[[[[[[u/&v              ///",
"&&&              w&&x[[[[[[[[x@&y              &&&",
"&&&              z&&AB[[[[[[CA&@D              &&&",
"&&&               E@@FGH]IHGF@&J               &&&",
"&&&                K&&@&&&&@&@6                &&&",
"&&&                 1@@&&&&&@6                 &&&",
"&&&                   L+''MN                   &&&",
"&&&                                            &&&",
"_&&O                                          P&&_",
"9&&Q                                          R&&S",
" @&@/n''''''''''''''''''''''''''''''''''''''/@&&@ ",
" t@&&&&&&&&&&&&&&&&&&&&&&&&&&&&&&&&&&&&&&&&&&&@&6 ",
"  eT&&&&&&&&&&&&&&&&&&&&&&&&&&&&&&&&&&&&&&&&&&TU  ",
"                                                  ",
"                                                  "};
