/* XPM */
static char * desafio_teclas_control_xpm[] = {
"60 38 130 2",
"  	c None",
". 	c #040404",
"+ 	c #030303",
"@ 	c #010101",
"# 	c #000000",
"$ 	c #050505",
"% 	c #020202",
"& 	c #222222",
"* 	c #242424",
"= 	c #8B8B8B",
"- 	c #B0B0B0",
"; 	c #909090",
"> 	c #080808",
", 	c #575757",
"' 	c #A0A0A0",
") 	c #CBCBCB",
"! 	c #D9D9D9",
"~ 	c #DBDBDB",
"{ 	c #C8C8C8",
"] 	c #999999",
"^ 	c #4C4C4C",
"/ 	c #171717",
"( 	c #D8D8D8",
"_ 	c #FFFFFF",
": 	c #858585",
"< 	c #E7E7E7",
"[ 	c #FEFEFE",
"} 	c #FDFDFD",
"| 	c #E3E3E3",
"1 	c #7C7C7C",
"2 	c #757575",
"3 	c #9B9B9B",
"4 	c #8A8A8A",
"5 	c #181818",
"6 	c #767676",
"7 	c #EDEDED",
"8 	c #FAFAFA",
"9 	c #E9E9E9",
"0 	c #6A6A6A",
"a 	c #B9B9B9",
"b 	c #2D2D2D",
"c 	c #D6D6D6",
"d 	c #F6F6F6",
"e 	c #7A7A7A",
"f 	c #7B7B7B",
"g 	c #B4B4B4",
"h 	c #B7B7B7",
"i 	c #0F0F0F",
"j 	c #262626",
"k 	c #0D0D0D",
"l 	c #F7F7F7",
"m 	c #AAAAAA",
"n 	c #141414",
"o 	c #0B0B0B",
"p 	c #EBEBEB",
"q 	c #C9C9C9",
"r 	c #E6E6E6",
"s 	c #F0F0F0",
"t 	c #CCCCCC",
"u 	c #B5B5B5",
"v 	c #252525",
"w 	c #AFAFAF",
"x 	c #878787",
"y 	c #A1A1A1",
"z 	c #DADADA",
"A 	c #CACACA",
"B 	c #4F4F4F",
"C 	c #ACACAC",
"D 	c #F2F2F2",
"E 	c #606060",
"F 	c #E8E8E8",
"G 	c #E5E5E5",
"H 	c #FBFBFB",
"I 	c #E4E4E4",
"J 	c #3B3B3B",
"K 	c #DCDCDC",
"L 	c #ECECEC",
"M 	c #525252",
"N 	c #C5C5C5",
"O 	c #3E3E3E",
"P 	c #434343",
"Q 	c #797979",
"R 	c #D5D5D5",
"S 	c #393939",
"T 	c #1E1E1E",
"U 	c #BEBEBE",
"V 	c #535353",
"W 	c #464646",
"X 	c #FCFCFC",
"Y 	c #A9A9A9",
"Z 	c #333333",
"` 	c #D7D7D7",
" .	c #E1E1E1",
"..	c #303030",
"+.	c #1F1F1F",
"@.	c #B1B1B1",
"#.	c #BFBFBF",
"$.	c #484848",
"%.	c #8C8C8C",
"&.	c #414141",
"*.	c #9E9E9E",
"=.	c #787878",
"-.	c #929292",
";.	c #F4F4F4",
">.	c #696969",
",.	c #676767",
"'.	c #F1F1F1",
").	c #424242",
"!.	c #565656",
"~.	c #B8B8B8",
"{.	c #BBBBBB",
"].	c #B6B6B6",
"^.	c #9D9D9D",
"/.	c #353535",
"(.	c #555555",
"_.	c #3C3C3C",
":.	c #BCBCBC",
"<.	c #BABABA",
"[.	c #4D4D4D",
"}.	c #373737",
"|.	c #D4D4D4",
"1.	c #545454",
"2.	c #A5A5A5",
"3.	c #848484",
"4.	c #ABABAB",
"5.	c #1B1B1B",
"6.	c #898989",
"7.	c #5E5E5E",
"8.	c #888888",
"9.	c #060606",
"      . + @ @ @ @ @ # # # @ @ @ @ # # @ # # # # @ @ # @ @ @ # @ @ # @ # # # @ @ # @ # # @ @ # # # # @ # @ @ @ + $       ",
"    @ @ # # # # # # # # # @ # # # # # # # # # # # # # # # # # # # # # # # # # @ # # # # # # # # # # # # # # @ @ @ %     ",
"  + # # # # # # # # # # # # # # # # # # # # # # # # # # # # # # # # # # # # # # # # # # # # # # # # # # # # # # # # +   ",
"@ # # # # # # # # # # # # # # # # # # # # # # # # # # # # # # # # # # # # # # # # # # # # # # # # # # # # # # # # # @ @ ",
". # # # # # # # # # # # # # # # # # # # # # # # # # # # # # # # # # # # # # # # # # # # # # # # # # # # # # # # # # @ + ",
"+ # # # # # # # # # # # # # # # # # # # # # # # # # # # # # # # # # # # # # # # # # # # # # # # # # # # # # # # # # # % ",
"@ # # # # # # # # # # # # # # # # # # # # # # # # # # # # # # # # # # # # # # # # # # # # # # # # # # # # # # # # # # # ",
"# # # # # # # # # # # # # # # # # # # # # # # # # # # # # # # # # # # # # # # # # # # # # # # # # # # # # # # # # # # # ",
"@ # # # # # # # # # # # # # # # # # # # # # # # # # # # # # # # # # # # # # # # # # # # # # # # # # # # # # # # # # # @ ",
"@ # # # # # # # # # # # # # # # # # # # # # # # # # # # # # # # # # # # # # # # # # # # # # # # # # # # # # # # # # # # ",
"# # # # # # # # # # # # # # # # # # @ & * @ # # # # # # # # # # # # # # # # # # # # % = - - ; > # # # # # # # # # # # # ",
"# # # # # # # # # # # # # # @ @ , ' ) ! ~ { ] ^ @ # # # @ # # # # # # # # # # # # # / ( _ _ ( / # # # # # # # # # # # # ",
"# # # # # # # # # # # # # # @ : < [ _ _ _ _ } | 1 @ # + 2 3 3 4 / # # # # # # # # # / ! _ _ ! 5 # # # # # # # # # # # # ",
"@ # # # # # # # # # # # # # 6 7 _ _ [ 8 8 [ _ _ 9 0 # @ a [ [ ! 5 # # # # # # # # # 5 ! _ _ ! 5 # # # # # # # # # # # # ",
"@ # # # # # # # # # # # # b c _ _ d - e f g d _ _ { / @ h _ _ ! / i # # # # # # j k / ( _ _ ! 5 # # # # # # # # # # # @ ",
"# # # # # # # # # # # # @ 6 l _ [ m n # # o g _ _ p f q r _ _ s t u v w t ) x y z A B ( _ _ ( / # # # # # # # # # # # # ",
"# # # # # # # # # # # # @ C _ _ D E # # # @ e F p G y H _ _ _ _ _ I J K _ _ L H _ 7 M ! _ _ ! 5 # # # # # # # # # # # # ",
"@ # # # # # # # # # # # o N _ _ < O # # # # / P P P Q p l _ _ 8 s R S K _ _ _ _ _ < O ! _ _ ! 5 # # # # # # # # # # # @ ",
"@ # # # # # # # # # # # / ( _ _ ! / # # # # # @ # # T B U _ _ K V W T K _ _ X ( Y C J ! _ _ ( / # # # # # # # # # # # # ",
"# # # # # # # # # # # # / ( _ _ ! / # # # # # # # # # # h _ _ ( / # T K _ _ { Z @ @ / ( _ _ ( / # # # # # # # # # # # # ",
"@ # # # # # # # # # # # 5 ` _ _  ...# # # # # # # # # # h _ _ ! 5 # +.K _ _ @.@ # # 5 ! _ _ ! 5 # # # # # # # # # # # # ",
"# # # # # # # # # # # # + #._ _ 7 $.# # # # P = %.4 &.@ h _ _ ! 5 # +.K _ _ @.# # # / ( _ _ ! 5 # # # # # # # # # # # @ ",
"# # # # # # # # # # # # @ *.[ _ l =.# # # @ -.H } ;.>.@ h _ _ ( / # T K _ _ @.# # # / ( _ _ ( / # # # # # # # # # # # # ",
"# # # # # # # # # # # # @ ,.'._ _ q ).@ @ !.~ _ _ G &.@ ~._ _ ~ T @ T K _ _ @.# # # / ( _ _ ! / # # # # # # # # # # # # ",
"@ # # # # # # # # # # # @ k U _ _ } K {.#.| [ _ [ - # @ h _ _ d ].^./.K _ _ @.# # # 5 ( _ _ ! 5 # # # # # # # # # # # @ ",
"@ # # # # # # # # # # # # # (.! _ _ _ _ _ _ _ [ ! B # @ -.H _ _ [ I _.K _ _ @.# # # / ! _ _ ! 5 # # # # # # # # # # # # ",
"@ # # # # # # # # # # # # # @ V :.L X [ } X L <.[.@ # @ }.A 8 _ [ | &.! } X w # # # / |.X X |./ # # # # # # # # # # # # ",
"@ # # # # # # # # # # # # # # # > 1.x 2.] 3.!.+ # # # # # ..3.4.y f 5.2 6.6.7.@ # # # 0 8.8.0 @ # # # # # # # # # # # @ ",
"# # # # # # # # # # # # # # # # # # # # # @ # # # # # # # @ @ @ @ @ @ @ @ @ @ # # # # @ @ # @ @ # # # # # # # # # # # # ",
"# # # # # # # # # # # # # # # # # # # # # # # # # # # # # # # # # # # # # # # # # # # # # # # # # # # # # # # # # # # # ",
"@ # # # # # # # # # # # # # # # # # # # # # # # # # # # # # # # # # # # # # # # # # # # # # # # # # # # # # # # # # # @ ",
"@ # # # # # # # # # # # # # # # # # # # # # # # # # # # # # # # # # # # # # # # # # # # # # # # # # # # # # # # # # # # ",
"% # # # # # # # # # # # # # # # # # # # # # # # # # # # # # # # # # # # # # # # # # # # # # # # # # # # # # # # # # # @ ",
"% # # # # # # # # # # # # # # # # # # # # # # # # # # # # # # # # # # # # # # # # # # # # # # # # # # # # # # # # # @ % ",
"@ # # # # # # # # # # # # # # # # # # # # # # # # # # # # # # # # # # # # # # # # # # # # # # # # # # # # # # # # # @ + ",
"  . @ # # # # # # # # # # # # # # # # # # # # # # # # # # # # # # # # # # # # # # # # # # # # # # # # # # # # # @ @ .   ",
"    % # # # # # # # # # # # # # # # # # # # # # # # # # # # # # # # # # # # # # # # # # # # # # # # # # # # # # @ %     ",
"      9.+ % + % % % . + + + % % + . + + % % % + . . % % % + + . + % % + + + + % % + . + + % % % + . . % % % + + +       "};
