/* XPM */
static char * desafio_teclas_enter_xpm[] = {
"60 57 132 2",
"  	c None",
". 	c #1B1B1B",
"+ 	c #0E0E0E",
"@ 	c #000000",
"# 	c #181818",
"$ 	c #212121",
"% 	c #141414",
"& 	c #010101",
"* 	c #020202",
"= 	c #242424",
"- 	c #060606",
"; 	c #111111",
"> 	c #2A2A2A",
", 	c #8D8D8D",
"' 	c #B2B2B2",
") 	c #B4B4B4",
"! 	c #9C9C9C",
"~ 	c #4A4A4A",
"{ 	c #B9B9B9",
"] 	c #F8F8F8",
"^ 	c #F3F3F3",
"/ 	c #F0F0F0",
"( 	c #F1F1F1",
"_ 	c #F2F2F2",
": 	c #FAFAFA",
"< 	c #D8D8D8",
"[ 	c #4B4B4B",
"} 	c #6A6A6A",
"| 	c #F4F4F4",
"1 	c #CBCBCB",
"2 	c #636363",
"3 	c #555555",
"4 	c #575757",
"5 	c #565656",
"6 	c #545454",
"7 	c #5D5D5D",
"8 	c #A8A8A8",
"9 	c #9B9B9B",
"0 	c #909090",
"a 	c #888888",
"b 	c #5B5B5B",
"c 	c #AFAFAF",
"d 	c #969696",
"e 	c #808080",
"f 	c #525252",
"g 	c #EFEFEF",
"h 	c #818181",
"i 	c #979797",
"j 	c #515151",
"k 	c #EEEEEE",
"l 	c #040404",
"m 	c #1A1A1A",
"n 	c #050505",
"o 	c #1E1E1E",
"p 	c #A7A7A7",
"q 	c #BBBBBB",
"r 	c #BCBCBC",
"s 	c #D3D3D3",
"t 	c #FBFBFB",
"u 	c #8B8B8B",
"v 	c #F7F7F7",
"w 	c #7B7B7B",
"x 	c #313131",
"y 	c #DDDDDD",
"z 	c #E7E7E7",
"A 	c #7E7E7E",
"B 	c #595959",
"C 	c #585858",
"D 	c #252525",
"E 	c #BFBFBF",
"F 	c #383838",
"G 	c #C3C3C3",
"H 	c #717171",
"I 	c #5A5A5A",
"J 	c #A3A3A3",
"K 	c #FEFEFE",
"L 	c #FFFFFF",
"M 	c #E3E3E3",
"N 	c #3C3C3C",
"O 	c #C7C7C7",
"P 	c #0D0D0D",
"Q 	c #898989",
"R 	c #929292",
"S 	c #323232",
"T 	c #ABABAB",
"U 	c #919191",
"V 	c #CDCDCD",
"W 	c #FCFCFC",
"X 	c #E8E8E8",
"Y 	c #474747",
"Z 	c #070707",
"` 	c #7F7F7F",
" .	c #C1C1C1",
"..	c #CCCCCC",
"+.	c #2C2C2C",
"@.	c #A4A4A4",
"#.	c #F5F5F5",
"$.	c #F9F9F9",
"%.	c #353535",
"&.	c #C5C5C5",
"*.	c #373737",
"=.	c #E4E4E4",
"-.	c #404040",
";.	c #ACACAC",
">.	c #DADADA",
",.	c #C6C6C6",
"'.	c #7A7A7A",
").	c #0F0F0F",
"!.	c #606060",
"~.	c #FDFDFD",
"{.	c #E5E5E5",
"].	c #464646",
"^.	c #3D3D3D",
"/.	c #B5B5B5",
"(.	c #454545",
"_.	c #4D4D4D",
":.	c #AAAAAA",
"<.	c #E1E1E1",
"[.	c #E2E2E2",
"}.	c #5C5C5C",
"|.	c #262626",
"1.	c #D5D5D5",
"2.	c #DBDBDB",
"3.	c #1D1D1D",
"4.	c #1F1F1F",
"5.	c #0A0A0A",
"6.	c #131313",
"7.	c #161616",
"8.	c #282828",
"9.	c #2E2E2E",
"0.	c #171717",
"a.	c #292929",
"                                                        . + @ @ @ @ @ @ @ @ @ @ @ @ @ @ @ @ @ @ @ @ @ @ @ @ @ @ @ # $   ",
"                                                      % & & @ @ @ @ @ @ @ @ @ @ @ @ @ @ @ @ @ @ @ @ @ @ @ @ @ @ @ @ * = ",
"                                                      - @ @ @ @ @ @ @ @ @ @ @ @ @ @ @ @ @ @ @ @ @ @ @ @ @ @ @ @ @ @ @ ; ",
"                                                      @ @ @ @ & > , ' ) ) ) ) ) ) ) ) ) ) ) ) ) ) ) ) ) ) ) ! ~ & @ @ @ ",
"                                                      @ @ @ @ . { ] ^ / ( ( ( / / / / / ( ( / / / / / ( ( _ : < [ @ @ @ ",
"                                                      @ @ @ @ } | 1 2 3 4 5 4 3 6 6 6 5 4 4 5 6 6 6 3 4 4 7 8 : 9 @ @ @ ",
"                                                      @ @ @ @ 0 : a @ @ @ @ @ @ @ @ @ @ @ @ @ @ @ @ @ @ @ @ b ( c @ @ @ ",
"                                                      @ @ @ @ d : e @ @ @ @ @ @ @ @ @ @ @ @ @ @ @ @ @ @ @ @ f g c @ @ @ ",
"                                                      @ @ @ @ d : e @ @ @ @ @ @ @ @ @ @ @ @ @ @ @ @ @ @ @ @ f g c @ @ @ ",
"                                                      @ @ @ @ d : h @ @ @ @ @ @ @ @ @ @ @ @ @ @ @ @ @ @ @ @ f g c @ @ @ ",
"                                                      @ @ @ @ d : e @ @ @ @ @ @ @ @ @ @ @ @ @ @ @ @ @ @ @ @ f g c @ @ @ ",
"                                                      @ @ @ @ i : e @ @ @ @ @ @ @ @ @ @ @ @ @ @ @ @ @ @ @ @ j g c @ @ @ ",
"                                                      @ @ @ @ i : e @ @ @ @ @ @ @ @ @ @ @ @ @ @ @ @ @ @ @ @ j k c @ @ @ ",
"                                                      @ @ @ @ i : e @ @ @ @ @ @ @ @ @ @ @ @ @ @ @ @ @ @ @ @ j k c @ @ @ ",
"                                                      @ @ @ @ i : e @ @ @ @ @ @ @ @ @ @ @ @ @ @ @ @ @ @ @ @ j g c @ @ @ ",
"                                                      @ @ @ @ d : e @ @ @ @ @ @ @ @ @ @ @ @ @ @ @ @ @ @ @ @ f g c @ @ @ ",
"                                                      @ @ @ @ d : e @ @ @ @ @ @ @ @ @ @ @ @ @ @ @ @ @ @ @ @ f g c @ @ @ ",
"                                                      @ @ @ @ d : h @ @ @ @ @ @ @ @ @ @ @ @ @ @ @ @ @ @ @ @ f g c @ @ @ ",
"                                                      @ @ @ @ i : e @ @ @ @ @ @ @ @ @ @ @ @ @ @ @ @ @ @ @ @ j g c @ @ @ ",
"                                                      @ @ @ @ i : e @ @ @ @ @ @ @ @ @ @ @ @ @ @ @ @ @ @ @ @ j g c @ @ @ ",
"                                                      @ @ @ @ i : h @ @ @ @ @ @ @ @ @ @ @ @ @ @ @ @ @ @ @ @ j k c @ @ @ ",
"                                                      @ @ @ @ i : e @ @ @ @ @ @ @ @ @ @ @ @ @ @ @ @ @ @ @ @ j k c @ @ @ ",
"                                                      @ @ @ @ d : e @ @ @ @ @ @ @ @ @ @ @ @ @ @ @ @ @ @ @ @ f g c @ @ @ ",
"                                                      @ @ @ @ d : e @ @ @ @ @ @ @ @ @ @ @ @ @ @ @ @ @ @ @ @ f g c @ @ @ ",
"                                                    l & @ @ @ d : e @ @ @ @ @ @ @ @ @ @ @ @ @ @ @ @ @ @ @ @ f g c @ @ @ ",
"  m n & & @ & & & & @ @ @ & & & & @ @ @ @ & & & & @ & & @ @ @ i : e @ @ @ @ @ @ @ @ @ @ @ @ @ @ @ @ @ @ @ @ f g c @ @ @ ",
"o @ @ @ @ @ @ @ @ @ @ @ @ @ @ @ @ @ @ @ @ @ @ @ @ @ @ @ @ @ @ i : e @ @ @ @ @ @ @ @ @ @ @ @ @ @ @ @ @ @ @ @ j g c @ @ @ ",
"; @ @ @ @ @ @ @ @ @ @ @ @ @ @ @ @ @ @ @ @ @ @ @ @ @ @ @ @ @ @ i : e @ @ @ @ @ @ @ @ @ @ @ @ @ @ @ @ @ @ @ @ j g c @ @ @ ",
"& @ @ @ @ @ l } p q r r r r r r r r r r r r r r r r r r r r r s t h @ @ @ @ @ @ @ @ @ @ @ @ @ @ @ @ @ @ @ @ j k c @ @ @ ",
"@ @ @ @ @ @ u g v _ _ _ _ _ _ _ _ _ _ _ _ _ _ _ _ _ _ _ _ _ _ _ k w @ @ @ @ @ @ @ @ @ @ @ @ @ @ @ @ @ @ @ @ f g c @ @ @ ",
"& @ @ @ @ x y z A B B B B B B B B B B B B B B B B B B B B B B B C D @ @ @ @ @ @ @ @ @ @ @ @ @ @ @ @ @ @ @ @ f g c @ @ @ ",
"& @ @ @ @ C _ E & @ @ @ @ @ @ @ @ @ @ @ @ @ @ @ @ @ @ & & @ @ @ @ @ @ @ @ @ @ @ @ @ @ @ @ @ @ @ @ @ @ @ @ @ f g c @ @ @ ",
"& @ @ @ @ b ^ r @ @ @ @ @ @ @ @ @ @ @ @ @ @ @ @ @ @ F p G H @ @ @ @ @ @ @ @ @ @ @ @ @ @ @ @ @ @ @ @ @ @ @ @ f g c @ @ @ ",
"@ @ @ @ @ I ^ r @ @ @ @ @ @ @ @ @ @ @ @ @ @ @ @ @ @ J K L M N @ @ @ @ @ @ @ @ @ @ @ @ @ @ @ @ @ @ @ @ @ @ @ j k c @ @ @ ",
"@ @ @ @ @ b ^ r @ @ @ @ @ @ @ @ @ @ @ @ @ @ @ @ @ @ O L L ^ b @ @ @ @ @ @ @ @ @ @ @ @ @ @ @ @ @ @ @ @ @ @ @ j k c @ @ @ ",
"@ @ @ @ @ b ^ r @ @ @ @ @ @ @ @ @ @ @ P @ @ @ @ @ @ O L L ^ b @ @ @ @ @ @ @ @ @ @ @ @ @ @ @ @ @ @ @ @ @ @ @ j g c @ @ @ ",
"@ @ @ @ @ b ^ r @ @ @ @ @ @ @ @ @ ; Q R & @ @ @ @ @ O L L ^ b @ @ @ @ @ @ @ @ @ @ @ @ @ @ @ @ @ @ @ @ @ @ @ j k c @ @ @ ",
"@ @ @ @ @ b ^ r @ @ @ @ @ @ @ & S T ( U & @ @ @ @ @ O L L ^ b @ @ @ @ @ @ @ @ @ @ @ @ @ @ @ @ @ @ @ @ @ @ @ f g c @ @ @ ",
"& @ @ @ @ b ^ r @ @ @ @ @ @ @ C V W X Y & @ @ @ @ @ O L L ^ b @ @ @ @ @ @ @ @ @ @ @ @ @ @ @ @ @ @ @ @ @ @ @ f g c @ @ @ ",
"& @ @ @ @ b ^ r @ @ @ @ @ Z ` M L L  .j j j j j j j ..L L ^ b @ @ @ @ @ @ @ @ @ @ @ @ @ @ @ @ @ @ @ @ @ @ @ f g c @ @ @ ",
"@ @ @ @ @ b ^ r @ @ @ @ +.@.( L L L #./ / / / / / / $.L L ^ b @ @ @ @ @ @ @ @ @ @ @ @ @ @ @ @ @ @ @ @ @ @ @ f g c @ @ @ ",
"@ @ @ @ @ b ^ r @ @ @ %.&.t L L L L L L L L L L L L L L L ^ b @ @ @ @ @ @ @ @ @ @ @ @ @ @ @ @ @ @ @ @ @ @ @ j k c @ @ @ ",
"@ @ @ @ @ I ^ r @ @ @ *.1 W L L L L L L L L L L L L L L L =.-.@ @ @ @ @ @ @ @ @ @ @ @ @ @ @ @ @ @ @ @ @ @ @ j k c @ @ @ ",
"@ @ @ @ @ b ^ r @ @ @ @ S ;.#.L L K >.1 1 1 1 1 1 1 1 1 ,.'.& @ @ @ @ @ @ @ @ @ @ @ @ @ @ @ @ @ @ @ @ @ @ @ j k c @ @ @ ",
"@ @ @ @ @ b ^ r @ @ @ @ @ ).a X L L ' & & & & & & & & & & & @ @ @ @ @ @ @ @ @ @ @ @ @ @ @ @ @ @ @ @ @ @ @ @ f g c @ @ @ ",
"& @ @ @ @ b ^ r @ @ @ @ @ @ & !.s ~.{.].@ @ @ @ @ @ @ @ @ @ @ @ @ @ @ @ @ @ @ @ @ @ @ @ @ @ @ @ @ @ @ @ @ @ f g c @ @ @ ",
"& @ @ @ @ b ^ r @ @ @ @ @ @ @ & ^./.^ u @ @ @ @ @ @ @ @ @ @ @ @ @ @ @ @ @ @ @ @ @ @ @ @ @ @ @ @ @ @ @ @ @ @ f g c @ @ @ ",
"& @ @ @ @ b ^ r @ @ @ @ @ @ @ @ & # R i & @ @ @ @ @ @ @ @ @ @ @ @ @ @ @ @ @ @ @ @ @ @ @ @ @ @ @ @ @ @ @ @ @ f g c @ @ @ ",
"@ @ @ @ @ b ^ r @ @ @ @ @ @ @ @ @ @ @ + @ @ @ @ @ @ @ @ @ @ @ @ @ @ @ @ @ @ @ @ @ @ @ @ @ @ @ @ @ @ @ @ @ @ j g c @ @ @ ",
"@ @ @ @ @ b ^ r @ @ @ @ @ @ @ @ @ @ @ @ @ @ @ @ @ @ @ @ @ @ @ @ @ @ @ @ @ @ @ @ @ @ @ @ @ @ @ @ @ @ @ @ @ @ 3 / c @ @ @ ",
"@ @ @ @ @ (.X >._.> > > > > > > > > > > > > > > > > > > > > > > > > > > > > > > > > > > > > > > > > > > > > U $.J @ @ @ ",
"@ @ @ @ @ n :.$.X <.<.<.<.<.<.<.<.<.<.<.<.<.<.<.<.<.<.<.<.<.<.<.<.<.<.<.<.<.<.<.<.<.<.<.<.<.<.<.<.<.<.<.<.[.^ {.}.@ @ @ ",
"@ @ @ @ @ @ |.! 1.2.2.2.2.2.2.2.2.2.2.2.2.2.2.2.2.2.2.2.2.2.2.2.2.2.2.2.2.2.2.2.2.2.2.2.2.2.2.2.2.2.2.2.2.>. .} @ @ @ @ ",
"& @ @ @ @ @ @ & 3.4.o 4.4.o 4.4.o 4.4.o 4.4.o 4.4.o 4.4.o 4.4.o 4.4.o 4.4.o 4.4.o 4.4.o 4.4.o 4.4.o 4.4.o 4.5.@ @ @ @ @ ",
"6.@ @ @ @ @ @ @ @ @ @ @ @ @ @ @ @ @ @ @ @ @ @ @ @ @ @ @ @ @ @ @ @ @ @ @ @ @ @ @ @ @ @ @ @ @ @ @ @ @ @ @ @ @ @ @ @ @ @ 7.",
"8.* @ @ @ @ @ @ @ @ @ @ @ @ @ @ @ @ @ @ @ @ @ @ @ @ @ @ @ @ @ @ @ @ @ @ @ @ @ @ @ @ @ @ @ @ @ @ @ @ @ @ @ @ @ @ @ @ * 9.",
"  $ 0.@ @ @ @ @ @ @ @ @ @ @ @ @ @ @ @ @ @ @ @ @ @ @ @ @ @ @ @ @ @ @ @ @ @ @ @ @ @ @ @ @ @ @ @ @ @ @ @ @ @ @ @ @ @ P a.  "};
