/* XPM */
static const char * PLAY_xpm[] = {
"150 39 8 1",
" 	c None",
".	c #010101",
"+	c #020202",
"@	c #040404",
"#	c #000000",
"$	c #030303",
"%	c #080808",
"&	c #050505",
"                                                                                                                                                      ",
"                                                                                                                                                      ",
"                                                                                                                                                      ",
"                                                                                                                                                      ",
"                                                                                                                                                      ",
"                                                                                                                                                      ",
"                                                                                                                                                      ",
"                              .                                                              +@.             #                          #    #        ",
"               ################.+.##            #######                                    ##.$.##          #########                 #########       ",
"              #######################.$        ..######                                   ########           ########.               #########        ",
"             ###########################       #######                                   ##########          ..#######              #########         ",
"            .###########################.      #######                                  ############          ..#######            #########          ",
"           +.###########################.      #######                                 #############           .########          #########           ",
"          %&$$$$$$$$$$$$$$$$@@+###########    ..#####.                                .##############          .########         #######.$            ",
"                                  ########    .#######                               +.##############           .########       #######.$             ",
"                                  ########    #######                                .###############+           .#######+     ########               ",
"                                   #######    ######.                               ########  ########            +.######.   .#######                ",
"                                  ######.+    #######                             #########   ########$            ########+ .#######                 ",
"                                 #######.     #######                             #######.     #######+@           ########.+.######                  ",
"                               +#########     .######                            +######.      ########.            +##############                   ",
"         .##############################     .######                            ..######        ########$            ############.                    ",
"        ..##########################..#      #######                           ########         .#######.             #########++                     ",
"        ############################$+       .######                          ########           .#######             ########.&                      ",
"         #########################.+         #######                         &######.@           +#######.             .#####.$                       ",
"        .###################..###+$          #######                        $$######.             .########            .#####.+                       ",
"        .##################.+                #######                        ########              .########            #######                        ",
"        #######                             #########################      ########    +###################            #######                        ",
"       #######.                             #########################     ######.+    +.####################           #######                        ",
"       #######                              ########################     .######+    ..#####################          ########                        ",
"       #######                             +.######################     +.######     ########################         #######                         ",
"       #######                             ..#####################     #.######     ##########################        #######                         ",
"       #######                              #####################      ########    ###########################        .######                         ",
"                                                                                                                                                      ",
"                                                                                                                                                      ",
"                                                                                                                                                      ",
"                                                                                                                                                      ",
"                                                                                                                                                      ",
"                                                                                                                                                      ",
"                                                                                                                                                      "};
