/* XPM */
static const char * player_red_xpm[] = {
"79 131 8 1",
" 	c None",
".	c #FC3D3D",
"+	c #FF0000",
"@	c #FF2828",
"#	c #FF1313",
"$	c #FF3737",
"%	c #FE2020",
"&	c #FD3030",
"                                                                               ",
"                                        .++++++@                               ",
"                                       +++++++++++                             ",
"                                     ++++++++++++++                            ",
"                                    #+++++++++++++++                           ",
"                                   .+++++++++++++++++                          ",
"                                   ++++++++++++++++++$                         ",
"                                  .+++++++++++++++++++                         ",
"                                  ++++++++++++++++++++                         ",
"                                  ++++++++++++++++++++$                        ",
"                                  +++++++++++++++++++++                        ",
"                                  +++++++++++++++++++++                        ",
"                                  +++++++++++++++++++++                        ",
"                                  ++++++++++++++++++++                         ",
"                                  ++++++++++++++++++++                         ",
"                                   +++++++++++++++++++                         ",
"                                   ++++++++++++++++++                          ",
"                                    +++++++++++++++++                          ",
"                                    .+++++++++++++++                           ",
"                                      +++++++++++++                            ",
"                                       ++++++++++.                             ",
"                                          %+++.                                ",
"                                                                               ",
"                                                                               ",
"                                         .                                     ",
"                                    .++++++++                                  ",
"                                   ++++++++++++                                ",
"                                 &++++++++++++++                               ",
"                                +++++++++++++++++                              ",
"                               +++++++++++++++++++                             ",
"                              ++++++++++++++++++++.                            ",
"                            &++++++++++++++++++++++                            ",
"                           ++++++++++++++++++++++++&                           ",
"                          ++++++++++++++++++++++++++                           ",
"                         +++++++++++++++++++++++++++$                          ",
"                       .+++++++++++++++++++++++++++++                          ",
"                      +++++++++++++++++++++++++++++++&                         ",
"                     +++++++++++++++++++++++++++++++++                         ",
"                    ++++++++++++++++++++++++++++++++++@                        ",
"                  .++++++++++++++++++++++++++++++++++++                        ",
"                 #+++++++++++++++++++++++++++++++++++++&                       ",
"                ++++++++++++++++++++++++++++++++++++++++                       ",
"               +++++++++++++++++++++++++++++++++++++++++#                      ",
"              +++++++++++++++++++++++++++++++++++++++++++                      ",
"            $++++++++++++++++++++++++++++++++++++++++++++@                     ",
"            ++++++++++++++. ++++++++++++++++++++++++++++++                     ",
"           ++++++++++++++  @++++++++++++++++++++++++++++++%                    ",
"           +++++++++++++   ++++++++++++++++++++++++++++++++                    ",
"           ++++++++++++    ++++++++++++++++++++++++++++++++#                   ",
"           ++++++++++%     +++++++++++++++++++++& ++++++++++                   ",
"          .+++++++++      .+++++++++++++++++++++  ++++++++++%                  ",
"          +++++++++$      ++++++++++++++++++++++   ++++++++++                  ",
"          +++++++++       ++++++++++++++++++++++   ++++++++++++                ",
"          +++++++++       ++++++++++++++++++++++    ++++++++++++               ",
"         .+++++++++       +++++++++++++++++++++.    +++++++++++++%             ",
"         ++++++++++      &+++++++++++++++++++++      ++++++++++++++            ",
"         +++++++++.      ++++++++++++++++++++++      +++++++++++++++$          ",
"         +++++++++       ++++++++++++++++++++++       ++++++++++++++++         ",
"         +++++++++       +++++++++++++++++++++#        ++++++++++++++++.       ",
"        &+++++++++      .+++++++++++++++++++++           ++++++++++++++++      ",
"        +++++++++&      ++++++++++++++++++++++            ++++++++++++++++.    ",
"        +++++++++       ++++++++++++++++++++++             .++++++++++++++++   ",
"        +++++++++       +++++++++++++++++++++%               ++++++++++++++++  ",
"       .+++++++++       +++++++++++++++++++++.                .++++++++++++++  ",
"       #+++++++++      @+++++++++++++++++++++                   ++++++++++++++ ",
"       +++++++++       ++++++++++++++++++++++                    &++++++++++++ ",
"       +++++++++       ++++++++++++++++++++++                      ++++++++++@ ",
"       +++++++++       +++++++++++++++++++++.                       @++++++++  ",
"      .+++++++++      &+++++++++++++++++++++                          ++++++   ",
"       ++++++++@      ++++++++++++++++++++++                           .+++    ",
"       ++++++++       ++++++++++++++++++++++                                   ",
"       .++++++.       +++++++++++++++++++++++                                  ",
"         ++++.        ++++++++++++++++++++++++                                 ",
"                     ++++++++++++++++++++++++++                                ",
"                     ++++++++++++++++++++++++++.                               ",
"                     +++++++++++++++++++++++++++                               ",
"                     ++++++++++++++++++++++++++++                              ",
"                    $+++++++++++++++++++++++++++++                             ",
"                    +++++++++++++++++++++++++++++++                            ",
"                    ++++++++++++++++++++++++++++++++                           ",
"                    ++++++++++++++++++++++++++++++++%                          ",
"                   .+++++++++++++++++++++++++++++++++.                         ",
"                   +++++++++++++++ +++++++++++++++++++                         ",
"                   +++++++++++++++  +++++++++++++++++++                        ",
"                   +++++++++++++++   +++++++++++++++++++                       ",
"                   ++++++++++++++%    +++++++++++++++++++                      ",
"                  @++++++++++++++      ++++++++++++++++++#                     ",
"                  +++++++++++++++       ++++++++++++++++++$                    ",
"                  +++++++++++++++        ++++++++++++++++++.                   ",
"                  ++++++++++++++%        .++++++++++++++++++                   ",
"                 &++++++++++++++.         &++++++++++++++++++                  ",
"                 +++++++++++++++           &++++++++++++++++++                 ",
"                 +++++++++++++++            +++++++++++++++++++                ",
"                 +++++++++++++++             ++++++++++++++++++                ",
"                 ++++++++++++++%              ++++++++++++++++++               ",
"                +++++++++++++++                +++++++++++++++++               ",
"                +++++++++++++++                 ++++++++++++++++               ",
"               $+++++++++++++++                  +++++++++++++++               ",
"               ++++++++++++++++                   +++++++++++++++              ",
"              ++++++++++++++++                    @++++++++++++++              ",
"              ++++++++++++++++                     ++++++++++++++              ",
"             ++++++++++++++++                      ++++++++++++++              ",
"            .++++++++++++++++                      ++++++++++++++              ",
"            ++++++++++++++++                       ++++++++++++++.             ",
"           ++++++++++++++++@                       $++++++++++++++             ",
"           ++++++++++++++++                         ++++++++++++++             ",
"          ++++++++++++++++                          ++++++++++++++             ",
"         $++++++++++++++++                          ++++++++++++++             ",
"         ++++++++++++++++                           ++++++++++++++$            ",
"        ++++++++++++++++%                           +++++++++++++++            ",
"        ++++++++++++++++                             ++++++++++++++            ",
"       ++++++++++++++++.                             ++++++++++++++            ",
"      $++++++++++++++++                              ++++++++++++++            ",
"      ++++++++++++++++                               ++++++++++++++            ",
"     ++++++++++++++++#                               %+++++++++++++#           ",
"     ++++++++++++++++                                .++++++++++++++           ",
"    ++++++++++++++++.                                 ++++++++++++++           ",
"   .++++++++++++++++                                  ++++++++++++++           ",
"   ++++++++++++++++                                   ++++++++++++++           ",
"  +++++++++++++++++                                   ++++++++++++++&          ",
"  ++++++++++++++++                                    .++++++++++++++          ",
" .+++++++++++++++.                                     ++++++++++++++          ",
" ++++++++++++++++                                      ++++++++++++++          ",
" +++++++++++++++                                       ++++++++++++++          ",
" #++++++++++++++                                       ++++++++++++++          ",
"  +++++++++++++                                         +++++++++++++          ",
"  ++++++++++++.                                         ++++++++++++           ",
"   +++++++++++                                           +++++++++++           ",
"    +++++++++                                            .+++++++++            ",
"     @+++++                                                ++++++              ",
"                                                                               "};
