/* XPM */
static const char * QUIT_xpm[] = {
"150 57 15 1",
" 	c None",
".	c #080808",
"+	c #020202",
"@	c #000000",
"#	c #010101",
"$	c #0A0A0A",
"%	c #030303",
"&	c #050505",
"*	c #0B0B0B",
"=	c #070707",
"-	c #040404",
";	c #101010",
">	c #0D0D0D",
",	c #090909",
"'	c #060606",
"                                                                                                                                                      ",
"                                                                                                                                                      ",
"                                                                                                                                                      ",
"                                                                                                                                                      ",
"                                                                                                                                                      ",
"                                                                                                                                                      ",
"                                                                                                                                                      ",
"                                                                                                                                                      ",
"                                                                                                                                                      ",
"                                                                                                                                                      ",
"                                                                                                                                                      ",
"                                                                                                                                                      ",
"                                                                                                                                                      ",
"                                                                                                                                                      ",
"                            .+.                                                                                                                       ",
"                   @@@@@@@@@@@@@@@@@@@@@              @@@@@@@@                    @@@@@@@@      @@@@@@@@        @@@@@@@@@@@@@@@@@@@@@@@@@@@@@@@       ",
"                @@@@@@@@@@@@@@@@@@@@@@@@@#            @@@@@@@@                    @@@@@@@@      @@@@@@@+       @@@@@@@@@@@@@@@@@@@@@@@@@@@@@@@        ",
"              @@@@@@@@@@@@@@@@@@@@@@@@@@@@@@          @@@@@@@@                    @@@@@@@@     #@@@@@@@       @@@@@@@@@@@@@@@@@@@@@@@@@@@@@@@         ",
"            @@@@@@@@@@@@@@@@@@@@@@@@@@@@@@@@          @@@@@@@                    $@@@@@@@+     @@@@@@@@      @@@@@@@@@@@@@@@@@@@@@@@@@@@@@@%          ",
"           @@@@@@@@@@@@@@@@@@@@@@@@@@@@@@@@@@@        @@@@@@@                    @@@@@@@@      @@@@@@@@     @@@@@@@@@@@@@@@@@@@@@@@@@@@@@@@           ",
"          @@@@@@@@@@@@@@@@@#+@@@@@@@@@@@@@@@@@        @@@@@@@                    @@@@@@@@      @@@@@@@&    @@@@@@@@@@@@@@@@@@@@@@@@@@@@@@#*           ",
"         @@@@@@@@@@@=               @@@@@@@@@@@      #@@@@@@@                    @@@@@@@@     @@@@@@@@    ............&@@@@@@@@-.........             ",
"         #@@@@@@@@                   -@@@@@@@@@      @@@@@@@@                    @@@@@@@+     @@@@@@@@                 @@@@@@@@                       ",
"        .@@@@@@@@                      @@@@@@@@@     @@@@@@@@                    @@@@@@@@     @@@@@@@@                 @@@@@@@@                       ",
"        @@@@@@@@                       +@@@@@@@@     @@@@@@@@                    @@@@@@@@     &@@@@@@@                 @@@@@@@@                       ",
"       %@@@@@@@                         @@@@@@@@    @@@@@@@@                     @@@@@@@@     @@@@@@@@                @@@@@@@@                        ",
"       @@@@@@@@                         @@@@@@@@    @@@@@@@@                    @@@@@@@@      @@@@@@@@                @@@@@@@@                        ",
"       @@@@@@@@                         @@@@@@@@    @@@@@@@@                    @@@@@@@@      @@@@@@@@                @@@@@@@@                        ",
"       @@@@@@@@                        -@@@@@@@     @@@@@@@#                    @@@@@@@@     +@@@@@@@                 #@@@@@@+                        ",
"       +@@@@@@@                        @@@@@@@@     @@@@@@@                    ;@@@@@@@@     @@@@@@@@                 @@@@@@@@                        ",
"       @@@@@@@@        @@@@@@@@@@      @@@@@@@@     @@@@@@@                    @@@@@@@@=     @@@@@@@@                 @@@@@@@@                        ",
"       @@@@@@@@         @@@@@@@@@@    @@@@@@@@      @@@@@@@                    @@@@@@@@      @@@@@@@@                 @@@@@@@@                        ",
"       @@@@@@@@+         @@@@@@@@@@  >.,,,,,,,      @@@@@@@                    #@@@@@@%     @@@@@@@@=                %@@@@@@@                         ",
"       @@@@@@@@@          @@@@@@@@@@                @@@@@@@                   =@@@@@@@@      @@@@@@@                 @@@@@@@@                         ",
"        @@@@@@@@@@         '@@@@@@@@@               @@@@@@@@@                #@@@@@@@@       @@@@@@@                 @@@@@@@@                         ",
"        @@@@@@@@@@@@.       @@@@@@@@@#              @@@@@@@@@@             %@@@@@@@@@#      &@@@@@@@                 @@@@@@@@                         ",
"         @@@@@@@@@@@@@@@@@@@@@@@@@@@@@&             @@@@@@@@@@@@@@&@@@@'@@@@@@@@@@@@@       @@@@@@@@                @@@@@@@@                          ",
"         @@@@@@@@@@@@@@@@@@@@@@@@@@@@@@+            %@@@@@@@@@@@@@@@@@@@@@@@@@@@@@@#        @@@@@@@@                @@@@@@@@                          ",
"          @@@@@@@@@@@@@@@@@@@@@@@@@@@@@@%            @@@@@@@@@@@@@@@@@@@@@@@@@@@@@@         @@@@@@@@                @@@@@@@@                          ",
"           @@@@@@@@@@@@@@@@@@@@@@@@@@@@@@#            @@@@@@@@@@@@@@@@@@@@@@@@@@@@         #@@@@@@@.                +@@@@@@@                          ",
"              @@@@@@@@@@@@@@@@@@@@@@@@@@@@#             #@@@@@@@@@@@@@@@@@@@@@@+           @@@@@@@@                 @@@@@@@%                          ",
"                @@@@@@@@@@@@@@@@@@@@@@@@@@@@              @@@@@@@@@@@@@@@@@@@-             @@@@@@@@                 @@@@@@@@                          ",
"                                                                   =%'                                                                                ",
"                                                                                                                                                      ",
"                                                                                                                                                      ",
"                                                                                                                                                      ",
"                                                                                                                                                      ",
"                                                                                                                                                      ",
"                                                                                                                                                      ",
"                                                                                                                                                      ",
"                                                                                                                                                      ",
"                                                                                                                                                      ",
"                                                                                                                                                      ",
"                                                                                                                                                      ",
"                                                                                                                                                      ",
"                                                                                                                                                      ",
"                                                                                                                                                      "};
