/* XPM */
static const char * n1_xpm[] = {
"35 35 3 1",
" 	c None",
".	c #4E4599",
"+	c #8373FF",
"                                   ",
"                                   ",
"                                   ",
"                                   ",
"                                   ",
"                ....               ",
"               .....               ",
"              ......               ",
"              .. ...               ",
"             ..   ..               ",
"            ..    ..               ",
"                  ..               ",
"                  ..               ",
"                  ..               ",
"                  ..               ",
"                  ..               ",
"                  ..               ",
"                  ..               ",
"                  ..               ",
"                  ..               ",
"                  ..               ",
"                  ..               ",
"                  ..               ",
"                  ..               ",
"                  ..               ",
"                  ..               ",
"                  ..               ",
"                  ..               ",
"                  ..               ",
"                                   ",
"                                   ",
"                                   ",
"                                   ",
"                                   ",
"                                   "};
