/* XPM */
static const char * n2_xpm[] = {
"35 35 4 1",
" 	c None",
".	c #8373FF",
"+	c #8272FE",
"@	c #7767E4",
"                                   ",
"                                   ",
"                                   ",
"                                   ",
"                                   ",
"        ................           ",
"       .....................       ",
"       ......................      ",
"                          ....     ",
"                            ...    ",
"                             ..    ",
"                             ..    ",
"                             ..    ",
"                            ...    ",
"                            ..     ",
"                        ......     ",
"       .....................       ",
"      ..................           ",
"     ...                           ",
"     ..                            ",
"     ..                            ",
"    ...                            ",
"    ...                            ",
"    ...                            ",
"    ...                            ",
"    ...                            ",
"    ...........................    ",
"    ..........................     ",
"    .........................      ",
"                                   ",
"                                   ",
"                                   ",
"                                   ",
"                                   ",
"                                   "};
