/* XPM */
static const char * n3_xpm[] = {
"35 35 5 1",
" 	c None",
".	c #8373FF",
"+	c #6252B6",
"@	c #8272FE",
"#	c #2A3F46",
"                                   ",
"                                   ",
"                                   ",
"                                   ",
"                                   ",
"       .................           ",
"      .....................        ",
"     ........................      ",
"                          ...      ",
"                           ...     ",
"                            ..     ",
"                            ..     ",
"                            ..     ",
"                            ..     ",
"                           ..      ",
"                        ....       ",
"           ................        ",
"           .................       ",
"                           ..      ",
"                            ..     ",
"                            ..     ",
"                            ...    ",
"                            ...    ",
"                            ...    ",
"                           ...     ",
"                          ....     ",
"      .......................      ",
"     .......................       ",
"    .....................          ",
"                                   ",
"                                   ",
"                                   ",
"                                   ",
"                                   ",
"                                   "};
