/* XPM */
static const char * n7_xpm[] = {
"35 35 5 1",
" 	c None",
".	c #8373FF",
"+	c #8272FE",
"@	c #554AAD",
"#	c #000016",
"                                   ",
"                                   ",
"                                   ",
"                                   ",
"                                   ",
"    ......................         ",
"   .........................       ",
"   .........................       ",
"                        ...        ",
"                       ...         ",
"                      ...          ",
"                      ..           ",
"                     ...           ",
"                    ...            ",
"                   ...             ",
"                  ...              ",
"                 ...               ",
"                 ...               ",
"                ...                ",
"               ...                 ",
"              ...                  ",
"             ...                   ",
"             ..                    ",
"            ...                    ",
"           ...                     ",
"          ...                      ",
"         ...                       ",
"        ...                        ",
"        ...                        ",
"                                   ",
"                                   ",
"                                   ",
"                                   ",
"                                   ",
"                                   "};
