/* XPM */
static char * bomb1_xpm[] = {
"46 46 358 2",
"  	c None",
". 	c #900909",
"+ 	c #9F0A06",
"@ 	c #AA170F",
"# 	c #AF1F16",
"$ 	c #D78E89",
"% 	c #B55A59",
"& 	c #9F3C3C",
"* 	c #B65756",
"= 	c #B22A1A",
"- 	c #D67966",
"; 	c #C1736D",
"> 	c #C8574C",
", 	c #B46F6F",
"' 	c #D6B0AF",
") 	c #A81009",
"! 	c #D07364",
"~ 	c #D6A6A5",
"{ 	c #BE362B",
"] 	c #B22D19",
"^ 	c #CC5028",
"/ 	c #C53C0F",
"( 	c #CF5C39",
"_ 	c #C4574A",
": 	c #AC1E19",
"< 	c #D2420C",
"[ 	c #DE6812",
"} 	c #B64230",
"| 	c #D35510",
"1 	c #E47812",
"2 	c #F49C0E",
"3 	c #F7AB0A",
"4 	c #F5A10E",
"5 	c #DE5C13",
"6 	c #CF999A",
"7 	c #BB6665",
"8 	c #9A1514",
"9 	c #C18484",
"0 	c #BD7877",
"a 	c #C37879",
"b 	c #D58E8E",
"c 	c #D69895",
"d 	c #D59C99",
"e 	c #AD3B32",
"f 	c #EE930C",
"g 	c #FAB207",
"h 	c #FAB807",
"i 	c #FFCE02",
"j 	c #FFCE00",
"k 	c #FFCD00",
"l 	c #FEBD07",
"m 	c #BE350F",
"n 	c #CF745A",
"o 	c #BC2C14",
"p 	c #B21105",
"q 	c #CA6762",
"r 	c #BB6563",
"s 	c #AC221C",
"t 	c #BD1B10",
"u 	c #D23C18",
"v 	c #E2691B",
"w 	c #ED8215",
"x 	c #F9B309",
"y 	c #FFCC00",
"z 	c #FFCB00",
"A 	c #FFC901",
"B 	c #F6A50E",
"C 	c #D7550F",
"D 	c #C36456",
"E 	c #6A7071",
"F 	c #000606",
"G 	c #443027",
"H 	c #9D5B46",
"I 	c #AA4730",
"J 	c #B64624",
"K 	c #BF450E",
"L 	c #F39D0D",
"M 	c #F8AF0A",
"N 	c #C34B28",
"O 	c #E0ABA2",
"P 	c #17181A",
"Q 	c #2B241B",
"R 	c #9B8363",
"S 	c #BFA277",
"T 	c #B29670",
"U 	c #C3A87D",
"V 	c #883828",
"W 	c #B92411",
"X 	c #EF8B15",
"Y 	c #FFCA01",
"Z 	c #FFCB01",
"` 	c #FCBE06",
" .	c #E36C14",
"..	c #AD140F",
"+.	c #AC5655",
"@.	c #5B5B5B",
"#.	c #222222",
"$.	c #282828",
"%.	c #5F5F5F",
"&.	c #050506",
"*.	c #30281F",
"=.	c #CCAA80",
"-.	c #B2966F",
";.	c #C4A57A",
">.	c #A97D5D",
",.	c #790E0B",
"'.	c #800101",
").	c #7F0E0A",
"!.	c #BE310C",
"~.	c #FDBD06",
"{.	c #F8B606",
"].	c #EF9906",
"^.	c #F9B203",
"/.	c #E77710",
"(.	c #C57060",
"_.	c #121212",
":.	c #0B0B0B",
"<.	c #262324",
"[.	c #222121",
"}.	c #020204",
"|.	c #544537",
"1.	c #AA8F69",
"2.	c #C7A77C",
"3.	c #B89A71",
"4.	c #816D54",
"5.	c #19100B",
"6.	c #000000",
"7.	c #141414",
"8.	c #6A1110",
"9.	c #EC8112",
"0.	c #FFCE01",
"a.	c #F7A60C",
"b.	c #F3A00C",
"c.	c #FFCB02",
"d.	c #EA8709",
"e.	c #C27367",
"f.	c #C97A65",
"g.	c #C35323",
"h.	c #C73803",
"i.	c #C13623",
"j.	c #161616",
"k.	c #020101",
"l.	c #080707",
"m.	c #070707",
"n.	c #010101",
"o.	c #060606",
"p.	c #353234",
"q.	c #323031",
"r.	c #2E2C2E",
"s.	c #211C18",
"t.	c #A18762",
"u.	c #BD9F76",
"v.	c #A68C67",
"w.	c #715E47",
"x.	c #06080A",
"y.	c #636263",
"z.	c #B21814",
"A.	c #D75B13",
"B.	c #F7A909",
"C.	c #BD4228",
"D.	c #CA5415",
"E.	c #FDC205",
"F.	c #F7A70A",
"G.	c #BE4729",
"H.	c #BE625C",
"I.	c #242424",
"J.	c #181617",
"K.	c #232122",
"L.	c #2B292A",
"M.	c #302E2F",
"N.	c #312E2F",
"O.	c #312F30",
"P.	c #2F2C2D",
"Q.	c #050605",
"R.	c #333132",
"S.	c #353334",
"T.	c #0A0A0A",
"U.	c #A78C69",
"V.	c #7C674C",
"W.	c #DDBA89",
"X.	c #473C2E",
"Y.	c #636363",
"Z.	c #A02F2E",
"`.	c #B76264",
" +	c #E16411",
".+	c #CA5823",
"++	c #C64D2A",
"@+	c #EF8E11",
"#+	c #BD3A12",
"$+	c #DA4E13",
"%+	c #050505",
"&+	c #191718",
"*+	c #322F30",
"=+	c #2F2D2E",
"-+	c #272526",
";+	c #0C0A0B",
">+	c #191919",
",+	c #201E1F",
"'+	c #121112",
")+	c #8B7658",
"!+	c #A78B66",
"~+	c #75624A",
"{+	c #100F10",
"]+	c #262423",
"^+	c #C89E9D",
"/+	c #C45145",
"(+	c #D6521C",
"_+	c #BB4639",
":+	c #E77114",
"<+	c #B5342C",
"[+	c #BE443D",
"}+	c #101010",
"|+	c #2A2829",
"1+	c #1D1B1C",
"2+	c #080808",
"3+	c #0D0D0D",
"4+	c #1A1A1A",
"5+	c #232021",
"6+	c #191717",
"7+	c #362E23",
"8+	c #161311",
"9+	c #2E2C2D",
"0+	c #040404",
"a+	c #6A6A6A",
"b+	c #B01209",
"c+	c #BC5250",
"d+	c #D94B18",
"e+	c #B55857",
"f+	c #151314",
"g+	c #222021",
"h+	c #111010",
"i+	c #030303",
"j+	c #1D1C1D",
"k+	c #343132",
"l+	c #4F4F4F",
"m+	c #C07E7D",
"n+	c #BE6562",
"o+	c #C56D6D",
"p+	c #C22314",
"q+	c #171516",
"r+	c #262425",
"s+	c #242223",
"t+	c #2D2B2C",
"u+	c #1C1A1B",
"v+	c #090808",
"w+	c #1B1B1B",
"x+	c #292728",
"y+	c #272626",
"z+	c #1D1D1D",
"A+	c #282727",
"B+	c #A13735",
"C+	c #AD130C",
"D+	c #252324",
"E+	c #1D1C1C",
"F+	c #212121",
"G+	c #0D0C0C",
"H+	c #A62422",
"I+	c #1A1819",
"J+	c #211F20",
"K+	c #0B090A",
"L+	c #050606",
"M+	c #181918",
"N+	c #151615",
"O+	c #090809",
"P+	c #B04544",
"Q+	c #2D2D2D",
"R+	c #1E1C1D",
"S+	c #000100",
"T+	c #060405",
"U+	c #B86665",
"V+	c #3B3A3A",
"W+	c #9C9B9B",
"X+	c #CCCBCB",
"Y+	c #B8B8B8",
"Z+	c #7A797A",
"`+	c #343233",
" @	c #2C2A2B",
".@	c #0F0E0E",
"+@	c #2C2C2C",
"@@	c #1F1F1F",
"#@	c #A5A4A5",
"$@	c #EFEFEF",
"%@	c #EEEEEE",
"&@	c #D0CECF",
"*@	c #2D2A2B",
"=@	c #D1D1D1",
"-@	c #F1F1F1",
";@	c #ABAAAA",
">@	c #252525",
",@	c #181717",
"'@	c #D0CFD0",
")@	c #E3E3E3",
"!@	c #424041",
"~@	c #1B191A",
"{@	c #ADACAC",
"]@	c #F5F6F6",
"^@	c #555354",
"/@	c #545253",
"(@	c #F6F6F6",
"_@	c #F5F5F5",
":@	c #525051",
"<@	c #1F1D1E",
"[@	c #282627",
"}@	c #6F6D6E",
"|@	c #EAE9EA",
"1@	c #F0F0F0",
"2@	c #D4D3D4",
"3@	c #3C3A3B",
"4@	c #212020",
"5@	c #484647",
"6@	c #918F90",
"7@	c #BFC0C0",
"8@	c #A5A3A4",
"9@	c #4C4B4B",
"0@	c #222122",
"a@	c #7E7C7D",
"b@	c #8E8D8D",
"c@	c #201F1F",
"d@	c #737172",
"e@	c #FAFBFA",
"f@	c #F3F3F3",
"g@	c #E4E4E4",
"h@	c #474546",
"i@	c #1B1A1B",
"j@	c #838182",
"k@	c #F2F2F2",
"l@	c #B2B2B2",
"m@	c #3A3839",
"n@	c #CCCBCC",
"o@	c #171717",
"p@	c #1C1C1C",
"q@	c #525151",
"r@	c #DCDCDC",
"s@	c #EBEBEB",
"t@	c #595758",
"u@	c #2F2F2F",
"v@	c #302D2F",
"w@	c #252424",
"x@	c #1D1E1D",
"y@	c #111111",
"z@	c #1F1E1E",
"A@	c #323333",
"B@	c #0A0909",
"C@	c #262525",
"D@	c #0C0C0C",
"E@	c #0E0C0D",
"F@	c #141213",
"G@	c #272828",
"H@	c #191818",
"I@	c #282728",
"J@	c #242122",
"K@	c #2E2B2C",
"L@	c #1A191A",
"M@	c #070607",
"N@	c #1A1919",
"O@	c #151515",
"P@	c #0F1010",
"Q@	c #111211",
"                                                                      .                     ",
"                                                                      +                     ",
"                                                                      @                     ",
"                                                                      # $   %               ",
"                                                          &       *   = - ; >     ,         ",
"                                                          ' ) !   ~ { ] ^ / ( _ :           ",
"                                                              < [ } | 1 2 3 4 5 6     7 8 9 ",
"                                                0 a b c d     e f g h i j k l m n o p q     ",
"                                                    r s t u v w x y z z y y A B C D         ",
"                                                    E F G H I J K L j y y y k M N O         ",
"                                                  P Q R S T U V W X Y z y y k Z `  ...+.    ",
"                                        @.#.$.%.&.*.=.-.;.>.,.'.).!.~.y k y {.].^./.(.      ",
"                                      _.:.<.[.}.|.1.2.3.4.5.6.7.8.9.0.a.b.c.d.e.f.g.h.i.    ",
"                        j.6.k.l.m.n.6.o.p.q.r.s.t.u.v.w.x.y.    z.A.B.C.D.E.F.G.        H.  ",
"                  I.J.K.L.M.N.M.O.P.Q._.R.S.T.U.V.W.X.6.Y.    Z.`. +.+  ++@+#+$+            ",
"              %+&+*+=+=+=+=+=+=+-+;+%+>+,+S.'+)+!+~+{+]+6.  ^+  /+(+    _+:+  <+[+          ",
"            }+|+M.=+=+=+=+=+=+M.1+2+3+4+>+5+O.6+7+8+9+q.0+a+    b+      c+d+    e+          ",
"          f+|+=+=+=+=+=+=+=+=+M.g+h+i+>+>+j+q.q.R.R.q.k+2+l+  m+n+      o+p+                ",
"        q+r+s+=+=+=+=+=+=+=+=+=+t+u+v+:.w+x+q.y+z+O.q.A+6.    B+          C+                ",
"      3+D+&+|+=+=+=+=+=+=+=+=+=+=+t+&+0+T.M.q.E+F+R.R.G+6.                H+                ",
"    3+L.&+I+9+=+=+=+=+=+=+=+=+=+=+=+9+J+K+L+M+N+O.q.w+O+L.F+              P+                ",
"  Q+D+I+&+R+M.=+=+=+=+=+=+=+=+=+=+=+=+=+9+J+K+6.6.S+T+|+=+1+              U+                ",
"  6.K.&+J.K.M.=+=+=+=+=+=+=+=+=+=+=+=+=+=+V+W+X+Y+Z+`+=+=+ @.@                              ",
"+@@@u+&+J.-+=+=+=+=+=+=+=+=+=+=+=+=+=+=+M.#@$@%@$@$@&@ @=+M.{+                              ",
"7.*@&+&+J.x+=+=+=+=+=+=+=+=+=+=+=+=+=+=+S.=@%@%@%@%@-@;@M.=+*@>@                            ",
",@K.&+&+J.x+=+=+=+=+=+=+=+=+=+=+=+=+=+=+S.'@%@%@%@%@%@)@!@=+*+z+                            ",
"K.~@&+&+J.-+=+=+=+=+=+=+=+=+=+=+=+=+=+=+O.{@%@%@%@%@%@]@^@9+M.z+                            ",
"-+J.&+&+J.s+M.=+=+=+=+=+=+=+=+=+=+=+=+=+=+/@(@%@%@%@%@_@:@9+M.R+                            ",
"r+J.&+&+&+<@M.=+=+=+=+=+=+=+=+=+=+=+=+=+=+[@}@|@1@$@1@2@3@=+=+4@                            ",
"r+J.&+&+&+~@=+=+=+=+=+=+=+=+=+=+=+=+=+=+=+=+ @5@6@7@8@9@9+=+=+0@                            ",
"-+J.&+&+&+I+L.=+=+=+=+=+=+=+=+=+=+=+=+=+=+=+O.a@b@3@L.=+=+=+=+c@                            ",
"[@J.&+&+&+&+r+=+=+=+=+=+=+=+=+=+=+=+=+=+=+|+d@e@f@g@h@9+=+=+M.i@                            ",
"g+1+&+&+&+&+1+=+=+=+=+=+=+=+=+=+=+=+=+=+=+x+j@_@%@k@l@r+=+=+O.4+                            ",
"E+D+&+&+&+&+J.x+M.=+=+=+=+=+=+=+=+=+=+=+=+9+m@g@$@-@n@s+=+=+q.o@                            ",
"p@t+&+&+&+&+&+~@=+=+=+=+=+=+=+=+=+=+=+=+=+=+=+q@r@s@t@t+=+=+K.u@                            ",
"  u+1+&+&+&+&+&+s+=+=+=+=+=+=+=+=+=+=+=+=+=+=+t+D+|+ @=+=+v@k.                              ",
"  6.w@J.&+&+&+&+&+L.=+=+=+=+=+=+=+=+=+=+=+=+=+=+=+=+=+=+=+[@x@                              ",
"    4@<@&+&+&+&+&+&+L.=+=+=+=+=+=+=+=+=+=+=+=+=+=+=+=+=+O.y@                                ",
"    z+9+~@&+&+&+&+&+~@ @=+=+=+=+=+=+=+=+=+=+=+=+=+=+=+M.z@A@                                ",
"      B@-+&+&+&+&+&+&+&+[@=+=+=+=+=+=+=+=+=+=+=+=+=+=+C@}+                                  ",
"        .@t+&+&+&+&+&+&+&+,+=+=+=+=+=+=+=+=+=+=+=+=+Q+D@                                    ",
"          '+[@R+&+&+&+&+&+&+I+-+t+=+=+=+=+=+=+=+M.s+_.                                      ",
"            E@s+x+I+J.&+&+&+&+&+~@,+[@=+M.=+=+O.F@G@                                        ",
"                H@I@D+1+~@I+&+&+&+&+&+I+g+L.J@7.                                            ",
"                    o.{+c@*@K@*@*@P.[@L@M@N@                                                ",
"                          O@y@P@}+Q@I.                                                      "};
