/* XPM */
static const char * bomb1_xpm[] = {
"70 48 533 2",
"  	c #EFEFEF",
". 	c #F4F4F4",
"+ 	c #FFFFFF",
"@ 	c #FCFCFC",
"# 	c #EDEDED",
"$ 	c #F7F7F7",
"% 	c #F0F0F0",
"& 	c #F1F1F1",
"* 	c #FEFEFE",
"= 	c #EEEEEE",
"- 	c #F9F9F9",
"; 	c #F3F3F3",
"> 	c #FBFBFB",
", 	c #F6F6F6",
"' 	c #F2F2F2",
") 	c #FDFDFD",
"! 	c #F8F8F8",
"~ 	c #FAFAFA",
"{ 	c #F5F5F5",
"] 	c #F6F1F1",
"^ 	c #CDA8A7",
"/ 	c #F0F3F3",
"( 	c #A64E4E",
"_ 	c #F9FFFF",
": 	c #F8FCFE",
"< 	c #900909",
"[ 	c #9F0A06",
"} 	c #E6D5D4",
"| 	c #F7F7F8",
"1 	c #EFF0EF",
"2 	c #AA170F",
"3 	c #D7AAA8",
"4 	c #F7F8F6",
"5 	c #E9D8D9",
"6 	c #F0F0EF",
"7 	c #F5F6F6",
"8 	c #E7DFDE",
"9 	c #F9FAFA",
"0 	c #FEFFFF",
"a 	c #BF8B8C",
"b 	c #FCFFFF",
"c 	c #AF1F16",
"d 	c #D78E89",
"e 	c #F3EEEE",
"f 	c #B55A59",
"g 	c #EDE9E8",
"h 	c #F6F5F6",
"i 	c #E7D9D9",
"j 	c #9F3C3C",
"k 	c #EDDDDE",
"l 	c #EEEFEF",
"m 	c #B65756",
"n 	c #DCB9BA",
"o 	c #B22A1A",
"p 	c #D67966",
"q 	c #C1736D",
"r 	c #C8574C",
"s 	c #FDFAF9",
"t 	c #D7ADAD",
"u 	c #B46F6F",
"v 	c #F7FDFB",
"w 	c #EFEEEE",
"x 	c #ECECEC",
"y 	c #F2F2F1",
"z 	c #FBFAFA",
"A 	c #D6B0AF",
"B 	c #A81009",
"C 	c #D07364",
"D 	c #DEC1C2",
"E 	c #D6A6A5",
"F 	c #BE362B",
"G 	c #B22D19",
"H 	c #CC5028",
"I 	c #C53C0F",
"J 	c #CF5C39",
"K 	c #C4574A",
"L 	c #AC1E19",
"M 	c #FAF3F3",
"N 	c #FDFFFF",
"O 	c #F0F6F6",
"P 	c #E7D1D0",
"Q 	c #D4BBBA",
"R 	c #F4F5F6",
"S 	c #F7F8F8",
"T 	c #F6F8F7",
"U 	c #F6F7F7",
"V 	c #F8FAFA",
"W 	c #C68787",
"X 	c #D2420C",
"Y 	c #DE6812",
"Z 	c #B64230",
"` 	c #D35510",
" .	c #E47812",
"..	c #F49C0E",
"+.	c #F7AB0A",
"@.	c #F5A10E",
"#.	c #DE5C13",
"$.	c #CF999A",
"%.	c #FCFDFD",
"&.	c #E1C7C7",
"*.	c #BB6665",
"=.	c #9A1514",
"-.	c #C18484",
";.	c #F7F9F8",
">.	c #ECECED",
",.	c #DBBDBC",
"'.	c #CD9D9C",
").	c #BD7877",
"!.	c #C37879",
"~.	c #D58E8E",
"{.	c #D69895",
"].	c #D59C99",
"^.	c #E0B0AC",
"/.	c #E4BDB8",
"(.	c #AD3B32",
"_.	c #EE930C",
":.	c #FAB207",
"<.	c #FAB807",
"[.	c #FFCE02",
"}.	c #FFCE00",
"|.	c #FFCD00",
"1.	c #FEBD07",
"2.	c #BE350F",
"3.	c #CF745A",
"4.	c #BC2C14",
"5.	c #B21105",
"6.	c #CA6762",
"7.	c #E6D5D5",
"8.	c #F1F6F5",
"9.	c #EEECED",
"0.	c #EEEAEB",
"a.	c #F6EDEE",
"b.	c #D9B6B6",
"c.	c #BB6563",
"d.	c #AC221C",
"e.	c #BD1B10",
"f.	c #D23C18",
"g.	c #E2691B",
"h.	c #ED8215",
"i.	c #F9B309",
"j.	c #FFCC00",
"k.	c #FFCB00",
"l.	c #FFC901",
"m.	c #F6A50E",
"n.	c #D7550F",
"o.	c #C36456",
"p.	c #F1E5E5",
"q.	c #EFEFEE",
"r.	c #EAECEC",
"s.	c #6A7071",
"t.	c #000606",
"u.	c #443027",
"v.	c #9D5B46",
"w.	c #AA4730",
"x.	c #B64624",
"y.	c #BF450E",
"z.	c #F39D0D",
"A.	c #F8AF0A",
"B.	c #C34B28",
"C.	c #E0ABA2",
"D.	c #E7CECE",
"E.	c #EEECEC",
"F.	c #E0E0E0",
"G.	c #17181A",
"H.	c #2B241B",
"I.	c #9B8363",
"J.	c #BFA277",
"K.	c #B29670",
"L.	c #C3A87D",
"M.	c #883828",
"N.	c #B92411",
"O.	c #EF8B15",
"P.	c #FFCA01",
"Q.	c #FFCB01",
"R.	c #FCBE06",
"S.	c #E36C14",
"T.	c #AD140F",
"U.	c #AC5655",
"V.	c #EDECEA",
"W.	c #D3D3D3",
"X.	c #5B5B5B",
"Y.	c #222222",
"Z.	c #282828",
"`.	c #5F5F5F",
" +	c #050506",
".+	c #30281F",
"++	c #CCAA80",
"@+	c #B2966F",
"#+	c #C4A57A",
"$+	c #A97D5D",
"%+	c #790E0B",
"&+	c #800101",
"*+	c #7F0E0A",
"=+	c #BE310C",
"-+	c #FDBD06",
";+	c #F8B606",
">+	c #EF9906",
",+	c #F9B203",
"'+	c #E77710",
")+	c #C57060",
"!+	c #FCF9F9",
"~+	c #F7FAFB",
"{+	c #B6B6B6",
"]+	c #B5B5B5",
"^+	c #D4D4D4",
"/+	c #E5E5E5",
"(+	c #121212",
"_+	c #0B0B0B",
":+	c #262324",
"<+	c #222121",
"[+	c #020204",
"}+	c #544537",
"|+	c #AA8F69",
"1+	c #C7A77C",
"2+	c #B89A71",
"3+	c #816D54",
"4+	c #19100B",
"5+	c #000000",
"6+	c #141414",
"7+	c #6A1110",
"8+	c #EC8112",
"9+	c #FFCE01",
"0+	c #F7A60C",
"a+	c #F3A00C",
"b+	c #FFCB02",
"c+	c #EA8709",
"d+	c #C27367",
"e+	c #C97A65",
"f+	c #C35323",
"g+	c #C73803",
"h+	c #C13623",
"i+	c #E0B7B5",
"j+	c #BABABA",
"k+	c #656565",
"l+	c #161616",
"m+	c #020101",
"n+	c #080707",
"o+	c #070707",
"p+	c #010101",
"q+	c #060606",
"r+	c #353234",
"s+	c #323031",
"t+	c #2E2C2E",
"u+	c #211C18",
"v+	c #A18762",
"w+	c #BD9F76",
"x+	c #A68C67",
"y+	c #715E47",
"z+	c #06080A",
"A+	c #636263",
"B+	c #EBC6C5",
"C+	c #B21814",
"D+	c #D75B13",
"E+	c #F7A909",
"F+	c #BD4228",
"G+	c #CA5415",
"H+	c #FDC205",
"I+	c #F7A70A",
"J+	c #BE4729",
"K+	c #FBFFFF",
"L+	c #FAFFFF",
"M+	c #EDE8E9",
"N+	c #DCACA9",
"O+	c #BE625C",
"P+	c #D8BBBC",
"Q+	c #242424",
"R+	c #181617",
"S+	c #232122",
"T+	c #2B292A",
"U+	c #302E2F",
"V+	c #312E2F",
"W+	c #312F30",
"X+	c #2F2C2D",
"Y+	c #050605",
"Z+	c #333132",
"`+	c #353334",
" @	c #0A0A0A",
".@	c #A78C69",
"+@	c #7C674C",
"@@	c #DDBA89",
"#@	c #473C2E",
"$@	c #636363",
"%@	c #E8D6D6",
"&@	c #A02F2E",
"*@	c #B76264",
"=@	c #E16411",
"-@	c #CA5823",
";@	c #E5D8D8",
">@	c #C64D2A",
",@	c #EF8E11",
"'@	c #BD3A12",
")@	c #DA4E13",
"!@	c #D7A3A4",
"~@	c #F0F0F1",
"{@	c #F3F4F4",
"]@	c #F7FAFA",
"^@	c #EDEDEC",
"/@	c #A7A7A7",
"(@	c #050505",
"_@	c #191718",
":@	c #322F30",
"<@	c #2F2D2E",
"[@	c #272526",
"}@	c #0C0A0B",
"|@	c #191919",
"1@	c #201E1F",
"2@	c #121112",
"3@	c #8B7658",
"4@	c #A78B66",
"5@	c #75624A",
"6@	c #100F10",
"7@	c #262423",
"8@	c #DAD9DA",
"9@	c #C89E9D",
"0@	c #C45145",
"a@	c #D6521C",
"b@	c #E3C0BF",
"c@	c #FDFCFB",
"d@	c #BB4639",
"e@	c #E77114",
"f@	c #DBB6B6",
"g@	c #B5342C",
"h@	c #BE443D",
"i@	c #525252",
"j@	c #101010",
"k@	c #2A2829",
"l@	c #1D1B1C",
"m@	c #080808",
"n@	c #0D0D0D",
"o@	c #1A1A1A",
"p@	c #232021",
"q@	c #191717",
"r@	c #362E23",
"s@	c #161311",
"t@	c #2E2C2D",
"u@	c #040404",
"v@	c #6A6A6A",
"w@	c #F1E0E1",
"x@	c #B01209",
"y@	c #D19592",
"z@	c #FBFDFE",
"A@	c #F9F8F8",
"B@	c #BC5250",
"C@	c #D94B18",
"D@	c #EEDCD9",
"E@	c #B55857",
"F@	c #E2C5C5",
"G@	c #F9FBFA",
"H@	c #373636",
"I@	c #151314",
"J@	c #222021",
"K@	c #111010",
"L@	c #030303",
"M@	c #1D1C1D",
"N@	c #343132",
"O@	c #4F4F4F",
"P@	c #C07E7D",
"Q@	c #BE6562",
"R@	c #C56D6D",
"S@	c #C22314",
"T@	c #EBDCD9",
"U@	c #FBFCFB",
"V@	c #C69999",
"W@	c #474747",
"X@	c #171516",
"Y@	c #262425",
"Z@	c #242223",
"`@	c #2D2B2C",
" #	c #1C1A1B",
".#	c #090808",
"+#	c #1B1B1B",
"@#	c #292728",
"##	c #272626",
"$#	c #1D1D1D",
"%#	c #282727",
"&#	c #AEAEAE",
"*#	c #F9FDFC",
"=#	c #A13735",
"-#	c #F2EDEC",
";#	c #C98283",
">#	c #AD130C",
",#	c #FCF3F1",
"'#	c #F6F6F7",
")#	c #FAFDFE",
"!#	c #5A5A5A",
"~#	c #252324",
"{#	c #1D1C1C",
"]#	c #212121",
"^#	c #0D0C0C",
"/#	c #B1B2B3",
"(#	c #CDA7A7",
"_#	c #F4EAEB",
":#	c #CD9899",
"<#	c #A62422",
"[#	c #BFBFBF",
"}#	c #1A1819",
"|#	c #211F20",
"1#	c #0B090A",
"2#	c #050606",
"3#	c #181918",
"4#	c #151615",
"5#	c #090809",
"6#	c #ECEEEE",
"7#	c #DFBBBA",
"8#	c #B04544",
"9#	c #F6FEFF",
"0#	c #2D2D2D",
"a#	c #1E1C1D",
"b#	c #000100",
"c#	c #060405",
"d#	c #8A8A8A",
"e#	c #EBD9D8",
"f#	c #B86665",
"g#	c #F2F7F6",
"h#	c #B1B1B1",
"i#	c #3B3A3A",
"j#	c #9C9B9B",
"k#	c #CCCBCB",
"l#	c #B8B8B8",
"m#	c #7A797A",
"n#	c #343233",
"o#	c #2C2A2B",
"p#	c #0F0E0E",
"q#	c #E7E0DF",
"r#	c #BF8C8C",
"s#	c #2C2C2C",
"t#	c #1F1F1F",
"u#	c #A5A4A5",
"v#	c #D0CECF",
"w#	c #F3EEEB",
"x#	c #F8F8F9",
"y#	c #DDDDDD",
"z#	c #2D2A2B",
"A#	c #D1D1D1",
"B#	c #ABAAAA",
"C#	c #252525",
"D#	c #B0B0B0",
"E#	c #181717",
"F#	c #D0CFD0",
"G#	c #E3E3E3",
"H#	c #424041",
"I#	c #D7D7D7",
"J#	c #828282",
"K#	c #1B191A",
"L#	c #ADACAC",
"M#	c #555354",
"N#	c #BDBDBD",
"O#	c #646464",
"P#	c #545253",
"Q#	c #525051",
"R#	c #B2B2B2",
"S#	c #1F1D1E",
"T#	c #282627",
"U#	c #6F6D6E",
"V#	c #EAE9EA",
"W#	c #D4D3D4",
"X#	c #3C3A3B",
"Y#	c #212020",
"Z#	c #9D9E9E",
"`#	c #4A4A4A",
" $	c #484647",
".$	c #918F90",
"+$	c #BFC0C0",
"@$	c #A5A3A4",
"#$	c #4C4B4B",
"$$	c #222122",
"%$	c #8E8E8E",
"&$	c #595959",
"*$	c #7E7C7D",
"=$	c #8E8D8D",
"-$	c #201F1F",
";$	c #9E9E9E",
">$	c #777777",
",$	c #737172",
"'$	c #FAFBFA",
")$	c #E4E4E4",
"!$	c #474546",
"~$	c #1B1A1B",
"{$	c #B7B7B7",
"]$	c #999999",
"^$	c #838182",
"/$	c #C0C0C0",
"($	c #3A3839",
"_$	c #CCCBCC",
":$	c #171717",
"<$	c #DEDEDE",
"[$	c #1C1C1C",
"}$	c #525151",
"|$	c #DCDCDC",
"1$	c #EBEBEB",
"2$	c #595758",
"3$	c #2F2F2F",
"4$	c #595A59",
"5$	c #302D2F",
"6$	c #A6A6A6",
"7$	c #252424",
"8$	c #1D1E1D",
"9$	c #6F6F6F",
"0$	c #111111",
"a$	c #AAAAAA",
"b$	c #DADADA",
"c$	c #1F1E1E",
"d$	c #323333",
"e$	c #9D9D9D",
"f$	c #0A0909",
"g$	c #262525",
"h$	c #989898",
"i$	c #0C0C0C",
"j$	c #C8C8C8",
"k$	c #717171",
"l$	c #ABABAB",
"m$	c #0E0C0D",
"n$	c #141213",
"o$	c #272828",
"p$	c #CCCCCC",
"q$	c #D8D8D8",
"r$	c #313131",
"s$	c #191818",
"t$	c #282728",
"u$	c #242122",
"v$	c #595A5A",
"w$	c #2E2B2C",
"x$	c #1A191A",
"y$	c #070607",
"z$	c #1A1919",
"A$	c #838383",
"B$	c #DBDBDB",
"C$	c #959595",
"D$	c #484848",
"E$	c #151515",
"F$	c #0F1010",
"G$	c #111211",
"H$	c #676767",
"  . + .   @ + # $ + % & * @ = - + = ; + $   > + # , + ' % ) ) = ! +   ' + - = ~ + # { + . % ] ^ / $ + % & * > = - + = . + ,   > + # , + &   ",
". , ~ , . - ~ . $ ~ { { - ! . ! ~ . , ~ $ . ! ~ . $ ~ { { - - . $ ~ . { ~ ! . ! ~ . , ~ , { ~ ( _ $ ~ { { - ! . ! ~ . , ~ $ . ! ~ . $ ~ { . ",
"+ ~ = ~ + '   + $ # * ) % ' + { # + > = $ + ; = + ! # @ * % % + , # + @   { + . # + ~ = ~ + : < + $ # + )   ; + { # + > = ! + ' = + ! # ) + ",
". , ~ , { - ~ . $ ~ { { - ! . ! ~ . , ~ $ . ! ~ . $ ~ { { - - . $ ~ . { ~ ! . ! ~ . , ~ , { + [ } | @ { { - ! . ! ~ . , ~ $ . ! ~ . $ ~ { . ",
"  . + { % @ * = $ + & & * >   - +   . + $   > + = , + ' & ) ) = ! +   ; * -   ~ + = { + . 1 + 2 3 4 5 6 ' * >   - +   . + , % > + = , + '   ",
"@ - ' - @ . ' ) $ & > > ; . ) , & ) - ' $ @ . ' ) ! & ~ > ; ; ) $ & @ ~ ' , @ 7 8 + 9 & 0 a b c d e f - 0 g h ) , & ) - ' ! @ . ' ) ! & > @ ",
"+ ~   - * '   + $ = ) ) % ; + { = + >   $ + ;   + ! = @ ) & & + , = + @   { + 7 i j k l + m n o p q r s t u v + { w + ~   ! + ;   + ! = @ + ",
"# . + . = ) + x , +   % + @ x - + # ; + $ # @ + x { + &   * * x ! + # y + - # z + A B C D E F G H I J K L M N O b P Q R + , = @ + x , + % # ",
"$ $ $ $ $ $ $ $ $ $ $ $ $ $ $ $ $ $ $ $ $ $ $ $ $ $ $ $ $ $ $ $ $ $ S T S U $ $ $ V W X Y Z `  ...+.@.#.$.%.&.*.=.-.;.$ $ $ $ $ $ $ $ $ $ $ ",
"+ ~ # ~ + & = + ! x + *   ' + { x + > # $ + ' # + - x ) + % % + , >.,.'.).!.~.{.].^./.(._.:.<.[.}.|.1.2.3.4.5.6.7.8.+ > # ! + ' # + ! x * + ",
"% { * { % > *   $ + & ' ) >   ! +   . * $ % ~ *   , + ; & @ @   ! + 9.0.a.b.c.d.e.f.g.h.i.j.k.k.j.j.l.m.n.o.p.q.- +   . * , % > *   , + ' % ",
"& { ) { ' > ) % $ * ' ; @ ~ & ! * & . ) $ & ~ ) % , ) ; ' > > % ! * & . * r.s.t.u.v.w.x.y.z.}.j.j.j.|.A.B.C.D.E.- * & { ) , & ~ ) % , * ; & ",
"* -   - * ; % + $   ) @ & ; + {   + ~ % $ * ;   + !   > ) ' ' + ) - + + F.G.H.I.J.K.L.M.N.O.P.k.j.j.|.Q.R.S.T.U.V.  + ~ % ! * ; % + !   @ * ",
"> ! ; ! > { ; @ $ ' ~ ~ . { > , ' > - ; $ > { ; @ ! { @ ) , { W.X.Y.Z.`. +.+++@+#+$+%+&+*+=+-+j.|.j.;+>+,+'+)+!+~+' > - ; ! > { ; @ ! ' ~ > ",
"= . + .   ) + x $ + % % + @ # - + # ; + $ = ) + >   W.{+]+^+/+(+_+:+<+[+}+|+1+2+3+4+5+6+7+8+9+0+a+b+c+d+e+f+g+h+i++ # ; + , = @ + x , + & = ",
"- ! { ! - , { - $ { - ! { , - $ { - ! { ~ /+j+k+l+5+m+n+o+p+5+q+r+s+t+u+v+w+x+y+z+A+r.B+C+D+E+F+G+H+I+J+K+L+M+N+O+P+9 ! { $ - , { - $ { ! - ",
"+ ~ # ~ + & = + ! x + *   ' + { x + + x k+Q+R+S+T+U+V+U+W+X+Y+(+Z+`+ @.@+@@@#@5+$@+ %@&@*@=@-@;@>@,@'@)@!@~@{@+ ]@^@+ > # ! + ' # + ! x * + ",
"= . + . = ) + x $ + % % + @ # - + x /@(@_@:@<@<@<@<@<@<@[@}@(@|@1@`+2@3@4@5@6@7@5+8@9@+ 0@a@b@c@d@e@f@g@h@!+> # - + # ; + , = @ + x , + & = ",
". , > , . - ~ ; $ > . { ~ - ; - ~ i@j@k@U+<@<@<@<@<@<@U+l@m@n@o@|@p@W+q@r@s@t@s+u@v@b w@x@y@z@A@B@C@D@E.E@F@G@; ! > ; , > $ . - > ; $ > { . ",
"+ ~ = ~ + '   + $ # * ) % ' + x H@I@k@<@<@<@<@<@<@<@<@U+J@K@L@|@|@M@s+s+Z+Z+s+N@m@O@+ P@Q@+ &   R@S@T@+ U@V@]@+ { # + > = ! + ' = + ! # ) + ",
", $ ! $ , ! ! , $ ! , , ! ! @ W@X@Y@Z@<@<@<@<@<@<@<@<@<@`@ #.#_++#@#s+##$#W+s+%#5+&#*#=#-#, ! ! ;#>#,#, '#)#$ , $ ! , $ ! $ , ! ! , $ ! , , ",
"  . + { % @ + = $ + % & * + !#n@~#_@k@<@<@<@<@<@<@<@<@<@<@`@_@u@ @U+s+{#]#Z+Z+^#5+/#(#_#{ % @ + :#<#+ % & * > = - + = . + ,   > + = , + &   ",
"> ! ' ! > . ; @ $ ' > ~ . [#n@T+_@}#t@<@<@<@<@<@<@<@<@<@<@<@t@|#1#2#3#4#W+s++#5#T+]#6#; - > . ; 7#8#9#> ~ ; { @ , ' @ - ' ! > { ' @ ! ' ~ > ",
"+ ~ = ~ + '   + $ # * ) > 0#~#}#_@a#U+<@<@<@<@<@<@<@<@<@<@<@<@<@t@|#1#5+5+b#c#k@<@l@d#' ~ + &   e#f#g#* ) % ; + { # + ~ = ! + ' = + ! # ) + ",
"# . + . = ) + x , +   . h#5+S+_@R+S+U+<@<@<@<@<@<@<@<@<@<@<@<@<@<@i#j#k#l#m#n#<@<@o#p#+ . = ) + q#r#+   % + @ x - + x ; + , = @ + x , + % # ",
", $ ! $ , ! ! , $ ! , ~ s#t# #_@R+[@<@<@<@<@<@<@<@<@<@<@<@<@<@<@U+u#  =     v#o#<@U+6@d#@ , ! ! , w#x#, , ! $ , $ ! , $ ! $ , ! ! , $ ! , , ",
"+ ~ # ~ + & = + ! x + y#6+z#_@_@R+@#<@<@<@<@<@<@<@<@<@<@<@<@<@<@`+A#= = = = & B#U+<@z#C#) + & = + | x + )   ; + { x + > # ! + ' # + ! x ) + ",
"& { ) { & > ) % $ * ' D#E#S+_@_@R+@#<@<@<@<@<@<@<@<@<@<@<@<@<@<@`+F#= = = = = G#H#<@:@$#I#' > @ % $ * ' ; @ ~ % ! * % { ) , & ~ ) % , * ; & ",
"& { * { & > ) % $ * . J#S+K#_@_@R+[@<@<@<@<@<@<@<@<@<@<@<@<@<@<@W+L#= = = = = 7 M#t@U+$#N#& > ) % $ * & ; ) ~ % - * % . * , & ~ *   , * ; & ",
"* - % - ) ; & + $   + O#[@R+_@_@R+Z@U+<@<@<@<@<@<@<@<@<@<@<@<@<@<@P#, = = = = { Q#t@U+a#R#) ; & + $   ) @ & . * {   * ~ % ! * ; % + !   @ * ",
"@ - & - @ . ' ) $ & + i@Y@R+_@_@_@S#U+<@<@<@<@<@<@<@<@<@<@<@<@<@<@T#U#V#%   % W#X#<@<@Y#Z#) . ' ) $ & @ > ' . ) , & ) - & ! @ . & ) ! & > @ ",
"= . + . = ) + x , + { `#Y@R+_@_@_@K#<@<@<@<@<@<@<@<@<@<@<@<@<@<@<@<@o# $.$+$@$#$t@<@<@$$%$% ) + x $ +   & + > # - + # ; + , = @ + x , + & = ",
"! $ , $ ! , , - $ , ) &$[@R+_@_@_@}#T+<@<@<@<@<@<@<@<@<@<@<@<@<@<@<@W+*$=$X#T+<@<@<@<@-$;$- , , - $ { ! ! , , ! $ { ! ! , $ ! , , - $ , ! ! ",
"+ ~ # ~ + & = + ! x + >$T#R+_@_@_@_@Y@<@<@<@<@<@<@<@<@<@<@<@<@<@<@k@,$'$; )$!$t@<@<@U+~${$+ & = + $ x + * = ' + { x + > # ! + ' # + ! x * + ",
"= . + .   @ + # $ + & ]$J@l@_@_@_@_@l@<@<@<@<@<@<@<@<@<@<@<@<@<@<@@#^${ = ' R#Y@<@<@W+o@/$  ) + # $ +   & + > # - + # ; + ,   @ + # , + & = ",
"; , > , ; ~ > ' $ @ . /${#~#_@_@_@_@R+@#U+<@<@<@<@<@<@<@<@<@<@<@<@t@($)$  & _$Z@<@<@s+:$<$; ~ > ' $ @ ; . > - ' ! @ ' { > , ; - > ' , @ . ; ",
"+ ~ = - + '   + $ = * = [$`@_@_@_@_@_@K#<@<@<@<@<@<@<@<@<@<@<@<@<@<@<@}$|$1$2$`@<@<@S+3$+ * '   + $ = * ) % ; + { # + ~   ! + ;   + ! = ) + ",
"$ $ $ $ $ $ $ $ $ $ $ + 4$ #l@_@_@_@_@_@Z@<@<@<@<@<@<@<@<@<@<@<@<@<@<@`@~#k@o#<@<@5$m+6$> $ $ $ $ $ $ $ $ $ $ $ $ $ $ $ $ $ $ $ $ $ $ $ $ $ ",
"  . + .   @ + # $ + % ' x 5+7$R+_@_@_@_@_@T+<@<@<@<@<@<@<@<@<@<@<@<@<@<@<@<@<@<@<@T#8$+ .   @ + # $ + % & * > = - + = . + ,   > + # , + &   ",
"> ! ; ! > { ; > $ ; ~ ~ @ 9$Y#S#_@_@_@_@_@_@T+<@<@<@<@<@<@<@<@<@<@<@<@<@<@<@<@<@W+0$a${ ! ~ { . > $ ; ~ ~ . { > , ; > - ; $ > { ; > $ ; ~ > ",
"+ ~ = ~ + ' = + $ # * )   b$$#t@K#_@_@_@_@_@K#o#<@<@<@<@<@<@<@<@<@<@<@<@<@<@<@U+c$d${ # ~ + &   + $ # + )   ; + { # + > = ! + ' = + ! # ) + ",
"# . + . = ) + x , +   % + + e$f$[@_@_@_@_@_@_@_@T#<@<@<@<@<@<@<@<@<@<@<@<@<@<@g$j@^+, + ; = ) + x $ +   % + @ x - + x ; + , = @ + x , + % = ",
"{ , - , { ! - { $ - , , ! ! ~ h$p#`@_@_@_@_@_@_@_@1@<@<@<@<@<@<@<@<@<@<@<@<@0#i$j$! , - , { ! - { $ - , , ! ! { $ - { , - $ { ! - { $ - , { ",
"+ ~ # ~ + & = + $ x + *   ' + $ k$2@T#a#_@_@_@_@_@_@}#[@`@<@<@<@<@<@<@<@U+Z@(+6$% + ~ # > + &   + $ x + )   ; + { x + > = ! + ' = + ! # ) + ",
"' { @ , ; ~ @ & $ @ ; . > ~ ' ! + l$m$Z@@#}#R+_@_@_@_@_@K#1@T#<@U+<@<@W+n$o$p$) @ ' , @ { ; ~ > ' $ @ ; . > - ' ! @ ' { @ , ' ~ @ & , @ . ' ",
"% { * { & > *   $ + & ' ) >   ! + ' q$r$s$t$~#l@K#}#_@_@_@_@_@}#J@T+u$6+O#> % ~ +   { * . & @ )   $ + & ' ) ~   - +   . * , % > *   , + ' % ",
") - & - ) ; & * $ % @ > ' . * , % * @ ' N#v$q+6@-$z#w$z#z#X+T#x$y$z$A$B$$ , ) { % * - % - ) ; & * $ % @ > ' . * { % * ~ & ! ) . & * ! % > ) ",
"* - % - ) ; & + $   @ @ & ; * ,   * ~ % ! + % C$D$E$0$F$j@G$Q+H$N#- + > & , * { % + - % ~ ) ; & + $   ) > & . * {   * ~ % ! ) . % + ! % @ ) "};
