/* XPM */
static const char * desafio_teclas_p_xpm[] = {
"100 56 7 1",
" 	c #FFFFFF",
".	c #E6E6E6",
"+	c #000000",
"@	c #9D9D9D",
"#	c #7E7E7E",
"$	c #C6C6C6",
"%	c #2D2D2D",
"  .  .. .. ..  .  .. .. ..  .  .. ..  .  .  .. ..  .  .  .. ..  .  .  .. ..  .  .. .. ..  .  .. .. .",
"  .  .. .. ..  .  .. .. ..  .  .. ..  .  .  .. ..  .  .  .. ..  .  .  .. ..  .  .. .. ..  .  .. .. .",
".. ..  .  .  .. ..  .  .  .. ..  .  .. .. ..  .  .. .. ..  .  .. .. ..  .  .. ..  .  .  .. ..  .  . ",
"  .  .. .. ..  .  .. .. ..  .  .. ..  .  .  .. ..  .  .  .. ..  .  .  .. ..  .  .. .. ..  .  .. .. .",
"  .  .. .. ..  .  .. .. ..  .  .. ..  .  .  .. ..  .  .  .. ..  .  .  .. ..  .  .. .. ..  .  .. .. .",
".. ..  .  .  .. ..  .  .  .. ..  .  .. .. ..  .  .. .. ..  .  .. .. ..  .  .. ..  .  .  .. ..  .  . ",
".. ..  .  .  .. ..  .  .  .. ..  .  .. .. ..  .  .. .. ..  .  .. .. ..  .  .. ..  .  .  .. ..  .  . ",
"  .  .. .. ..  .  .. .. ..  .  .. ..  .  .  .. ..  .  .  .. ..  .  .  .. ..  .  .. .. ..  .  .. .. .",
".. ..  .  .  .. ..  .  .  .. ..  .  .. .. ..  .  .. .. ..  .  .. .. ..  .  .. ..  .  .  .. ..  .  . ",
".. ..  .  .  .. ..  .  .  .. ..   ++++++++++++++++++++++++++++++++  ..  .  .. ..  .  .  .. ..  .  . ",
"  .  .. .. ..  .  .. .. ..  .  .++++++++++++++++++++++++++++++++++++  .. ..  .  .. .. ..  .  .. .. .",
".. ..  .  .  .. ..  .  .  .. .. ++++++++++++++++++++++++++++++++++++..  .  .. ..  .  .  .. ..  .  . ",
".. ..  .  .  .. ..  .  .  .. .. ++++++++++++++++++++++++++++++++++++ .  .  .. ..  .  .  .. ..  .  . ",
"  .  .. .. ..  .  .. .. ..  .   +++++ .  .  .. ..  .  .  .. .. +++++  .. ..  .  .. .. ..  .  .. .. .",
"  .  .. .. ..  .  .. .. ..  .   ++++  $######################$  ++++  .. ..  .  .. .. ..  .  .. .. .",
".. ..  .  .  .. ..  .  .  .. .. ++++.++++++++++++++++++++++++++.++++ .  .  .. ..  .  .  .. ..  .  . ",
"  .  .. .. ..  .  .. .. ..  .   +++  ++++++++++++++++++++++++++  +++  .. ..  .  .. .. ..  .  .. .. .",
"  .  .. .. ..  .  .. .. ..  .   +++  +++ .  .. .. +++++++++++++  +++  .. ..  .  .. .. ..  .  .. .. .",
".. ..  .  .  .. ..  .  .  .. .. +++ .+++. ..  .  ..++++++++++++. +++ .  .  .. ..  .  .  .. ..  .  . ",
".. ..  .  .  .. ..  .  .  .. .. +++ .+++. .      ..++++++++++++. +++ .  .  .. ..  .  .  .. ..  .  . ",
"  .  .. .. ..  .  .. .. ..  .   +++  +++ . .+++ .  ++++++++++++  +++  .. ..  .  .. .. ..  .  .. .. .",
".. ..  .  .  .. ..  .  .  .. .. +++ .+++. .$+++  ..++++++++++++. +++ .  .  .. ..  .  .  .. ..  .  . ",
".. ..  .  .  .. ..  .  .  .. .. +++ .+++. .$+++  ..++++++++++++. +++ .  .  .. ..  .  .  .. ..  .  . ",
"  .  .. .. ..  .  .. .. ..  .   +++  +++ . .+++ .  ++++++++++++  +++  .. ..  .  .. .. ..  .  .. .. .",
"  .  .. .. ..  .  .. .. ..  .   +++  +++ .  .. ..  ++++++++++++  +++  .. ..  .  .. .. ..  .  .. .. .",
".. ..  .  .  .. ..  .  .  .. .. +++ .+++. ..  .  ..++++++++++++. +++ .  .  .. ..  .  .  .. ..  .  . ",
"  .  .. .. ..  .  .. .. ..  .   +++  +++ .  .. ..++++++++++++++  +++  .. ..  .  .. .. ..  .  .. .. .",
"  .  .. .. ..  .  .. .. ..  .   +++  +++ . $+++++++++++++++++++  +++  .. ..  .  .. .. ..  .  .. .. .",
".. ..  .  .  .. ..  .  .  .. .. +++ .+++. .$+++++++++++++++++++. +++ .  .  .. ..  .  .  .. ..  .  . ",
".. ..  .  .  .. ..  .  .  .. .. +++ .+++. .$+++++++++++++++++++. +++ .  .  .. ..  .  .  .. ..  .  . ",
"  .  .. .. ..  .  .. .. ..  .   +++  +++ . $+++++++++++++++++++  +++  .. ..  .  .. .. ..  .  .. .. .",
".. ..  .  .  .. ..  .  .  .. .. +++ .+++. .$+++++++++++++++++++. +++ .  .  .. ..  .  .  .. ..  .  . ",
".. ..  .  .  .. ..  .  .  .. .. +++ .++++++++++++++++++++++++++. +++ .  .  .. ..  .  .  .. ..  .  . ",
"  .  .. .. ..  .  .. .. ..  .   +++  ++++++++++++++++++++++++++  +++  .. ..  .  .. .. ..  .  .. .. .",
".. ..  .  .  .. ..  .  .  .. .. +++ .++++++++++++++++++++++++++. +++ .  .  .. ..  .  .  .. ..  .  . ",
".. ..  .  .  .. ..  .  .  .. .. +++ .++++++++++++++++++++++++++. +++ .  .  .. ..  .  .  .. ..  .  . ",
"  .  .. .. ..  .  .. .. ..  .   +++  ++++++++++++++++++++++++++  +++  .. ..  .  .. .. ..  .  .. .. .",
"  .  .. .. ..  .  .. .. ..  .   +++  ++++++++++++++++++++++++++  +++  .. ..  .  .. .. ..  .  .. .. .",
".. ..  .  .  .. ..  .  .  .. .. +++ .++++++++++++++++++++++++++. +++ .  .  .. ..  .  .  .. ..  .  . ",
"  .  .. .. ..  .  .. .. ..  .   +++  ++++++++++++++++++++++++++  +++  .. ..  .  .. .. ..  .  .. .. .",
"  .  .. .. ..  .  .. .. ..  .   ++++ ++++++++++++++++++++++++++ ++++  .. ..  .  .. .. ..  .  .. .. .",
".. ..  .  .  .. ..  .  .  .. .. ++++..$######################$..++++ .  .  .. ..  .  .  .. ..  .  . ",
".. ..  .  .  .. ..  .  .  .. .. +++++  .. ..  .  .. .. ..  .  .+++++ .  .  .. ..  .  .  .. ..  .  . ",
"  .  .. .. ..  .  .. .. ..  .  .++++++++++++++++++++++++++++++++++++  .. ..  .  .. .. ..  .  .. .. .",
".. ..  .  .  .. ..  .  .  .. .. ++++++++++++++++++++++++++++++++++++..  .  .. ..  .  .  .. ..  .  . ",
".. ..  .  .  .. ..  .  .  .. .. ++++++++++++++++++++++++++++++++++++..  .  .. ..  .  .  .. ..  .  . ",
"  .  .. .. ..  .  .. .. ..  .  .. ++++++++++++++++++++++++++++++++ .  .. ..  .  .. .. ..  .  .. .. .",
"  .  .. .. ..  .  .. .. ..  .  .. ..  .  .  .. ..  .  .  .. ..  .  .  .. ..  .  .. .. ..  .  .. .. .",
".. ..  .  .  .. ..  .  .  .. ..  .  .. .. ..  .  .. .. ..  .  .. .. ..  .  .. ..  .  .  .. ..  .  . ",
"  .  .. .. ..  .  .. .. ..  .  .. ..  .  .  .. ..  .  .  .. ..  .  .  .. ..  .  .. .. ..  .  .. .. .",
"  .  .. .. ..  .  .. .. ..  .  .. ..  .  .  .. ..  .  .  .. ..  .  .  .. ..  .  .. .. ..  .  .. .. .",
".. ..  .  .  .. ..  .  .  .. ..  .  .. .. ..  .  .. .. ..  .  .. .. ..  .  .. ..  .  .  .. ..  .  . ",
".. ..  .  .  .. ..  .  .  .. ..  .  .. .. ..  .  .. .. ..  .  .. .. ..  .  .. ..  .  .  .. ..  .  . ",
"  .  .. .. ..  .  .. .. ..  .  .. ..  .  .  .. ..  .  .  .. ..  .  .  .. ..  .  .. .. ..  .  .. .. .",
".. ..  .  .  .. ..  .  .  .. ..  .  .. .. ..  .  .. .. ..  .  .. .. ..  .  .. ..  .  .  .. ..  .  . ",
".. ..  .  .  .. ..  .  .  .. ..  .  .. .. ..  .  .. .. ..  .  .. .. ..  .  .. ..  .  .  .. ..  .  . "};
