/* XPM */
static char * desafio_teclas_m_xpm[] = {
"50 51 84 1",
" 	c None",
".	c #070707",
"+	c #010101",
"@	c #000000",
"#	c #080808",
"$	c #0F0F0F",
"%	c #686868",
"&	c #BEBEBE",
"*	c #D4D4D4",
"=	c #D5D5D5",
"-	c #BFBFBF",
";	c #9E9E9E",
">	c #FBFBFB",
",	c #FFFFFF",
"'	c #9D9D9D",
")	c #6E6E6E",
"!	c #FCFCFC",
"~	c #C1C1C1",
"{	c #828282",
"]	c #707070",
"^	c #767676",
"/	c #737373",
"(	c #6D6D6D",
"_	c #717171",
":	c #727272",
"<	c #C2C2C2",
"[	c #CBCBCB",
"}	c #B7B7B7",
"|	c #CCCCCC",
"1	c #E8E8E8",
"2	c #5E5E5E",
"3	c #E9E9E9",
"4	c #595959",
"5	c #666666",
"6	c #F1F1F1",
"7	c #808080",
"8	c #919191",
"9	c #3E3E3E",
"0	c #747474",
"a	c #2A2A2A",
"b	c #393939",
"c	c #424242",
"d	c #B4B4B4",
"e	c #C4C4C4",
"f	c #646464",
"g	c #7A7A7A",
"h	c #FDFDFD",
"i	c #DBDBDB",
"j	c #191919",
"k	c #E5E5E5",
"l	c #A0A0A0",
"m	c #B0B0B0",
"n	c #F3F3F3",
"o	c #757575",
"p	c #F9F9F9",
"q	c #EBEBEB",
"r	c #7E7E7E",
"s	c #8A8A8A",
"t	c #171717",
"u	c #C5C5C5",
"v	c #B9B9B9",
"w	c #5F5F5F",
"x	c #3C3C3C",
"y	c #979797",
"z	c #FEFEFE",
"A	c #848484",
"B	c #040404",
"C	c #D8D8D8",
"D	c #CACACA",
"E	c #EEEEEE",
"F	c #464646",
"G	c #3F3F3F",
"H	c #6C6C6C",
"I	c #F0F0F0",
"J	c #151515",
"K	c #E7E7E7",
"L	c #606060",
"M	c #6F6F6F",
"N	c #777777",
"O	c #9B9B9B",
"P	c #676767",
"Q	c #060606",
"R	c #0A0A0A",
"S	c #0B0B0B",
"   .+@@@@@@@@@@@@@@@@@@@@@@@@@@@@@@@@@@@@@@@@@.   ",
" #+@@@@@@@@@@@@@@@@@@@@@@@@@@@@@@@@@@@@@@@@@@@@+. ",
" @@@@@@@@@@@@@@@@@@@@@@@@@@@@@@@@@@@@@@@@@@@@@@@+ ",
"$@@@@@@@@@@@@@@@@@@@@@@@@@@@@@@@@@@@@@@@@@@@@@@@@$",
"+@@@@@@@@@@@@@@@@@@@@@@@@@@@@@@@@@@@@@@@+@@@@@@@@@",
"@@@@@@+%&*==============================*-%+@@@@@@",
"@@@@@@;>,,,,,,,,,,,,,,,,,,,,,,,,,,,,,,,,,,>'+@@@@@",
"@@@@@)!!~{)]^^/((_^^:((:^^_((:^^]((/^^]({<!!)@@@@@",
"@@@@@[,}@@@@@@@@@@@@@@@@@@@@@@@@@@@@@@@@@+},|@@@@@",
"@@@@@1,2@@@@@@@@@@@@@@@@@@@@@@@@@@@@@@@@@@2,1@@@@@",
"@@@@@3,4@@@@+@@@++@@@@@@@@@@@@++@@@@@@@@@@4,3@@@@@",
"@@@@@3,4@@@5666667@@@@@@@8666669@@@@@@@@@@4,3@@@@@",
"@@@@@3,4@@@0,,,,,3a@@@@@b6,,,,,c@@@@@@@@@@4,3@@@@@",
"@@@@@3,4@@@0,,,,,,d@@@@@e,,,,,,c@@@@@@@@@@4,3@@@@@",
"@@@@@3,4@@@0,,,,,,>f@@@gh,,,,,,c@@@@@@@@@@4,3@@@@@",
"@@@@@3,4@@@0,,,,,,,i@@jk,,,,,,,c@@@@@@@@@@4,3@@@@@",
"@@@@@3,4@@@0,,,,,,,,l+m,,,,,,,,c@@@@@@@@@@4,3@@@@@",
"@@@@@3,4@@@0,,,,,,,,nop,,,,,,,,c@@@@@@@@@@4,3@@@@@",
"@@@@@3,4@@@0,,,,,,,,,p,,,,,,,,,c@@@@@@@@@@4,3@@@@@",
"@@@@@3,4@@@0,,,,,,,,,,,,,,,,,,,c@@@@@@@@@@4,3@@@@@",
"@@@@@3,4@@@0,,,,,1,,,,,,,q,,,,,c@@@@@@@@@@4,3@@@@@",
"@@@@@3,4@@@0,,,,,rh,,,,,>s,,,,,c@@@@@@@@@@4,3@@@@@",
"@@@@@3,4@@@0,,,,,tu,,,,,vw,,,,,c@@@@@@@@@@4,3@@@@@",
"@@@@@3,4@@@0,,,,,tx6,,,qaw,,,,,c@@@@@@@@@@4,3@@@@@",
"@@@@@3,4@@@0,,,,,t@y,,zA@w,,,,,c@@@@@@@@@@4,3@@@@@",
"@@@@@3,4@@@0,,,,,t@BC,D@@w,,,,,c@@@@@@@@@@4,3@@@@@",
"@@@@@3,4@@@0,,,,,t@@wEF@@w,,,,,c@@@@@@@@@@4,3@@@@@",
"@@@@@3,4@@@0,,,,,t@@+G@@@w,,,,,c@@@@@@@@@@4,3@@@@@",
"@@@@@3,4@@@0,,,,,t@@@@@@@w,,,,,c@@@@@@@@@@4,3@@@@@",
"@@@@@3,4@@@0,,,,,t@@@@@@@w,,,,,c@@@@@@@@@@4,3@@@@@",
"@@@@@3,4@@@0,,,,,t@@@@@@@w,,,,,c@@@@@@@@@@4,3@@@@@",
"@@@@@3,4@@@HIIIIIJ@@@@@@@4IIIII9@@@@@@@@@@4,3@@@@@",
"@@@@@3,4@@@@+@@@@+@@@@@@@@+@@@@+@@@@@@@@@@4,3@@@@@",
"@@@@@3,4@@@@@@@@@@@@@@@@@@@@@@@@@@@@@@@@@@4,3@@@@@",
"@@@@@3,4@@@@@@@@@@@@@@@@@@@@@@@@@@@@@@@@@@4,3@@@@@",
"@@@@@3,4@@@@@@@@@@@@@@@@@@@@@@@@@@@@@@@@@@4,3@@@@@",
"@@@@@3,4@@@@@@@@@@@@@@@@@@@@@@@@@@@@@@@@@@4,3@@@@@",
"@@@@@3,4@@@@@@@@@@@@@@@@@@@@@@@@@@@@@@@@@@4,3@@@@@",
"@@@@@3,4@@@@@@@@@@@@@@@@@@@@@@@@@@@@@@@@@@4,3@@@@@",
"@@@@@3,4@@@@@@@@@@@@@@@@@@@@@@@@@@@@@@@@@@4,3@@@@@",
"@@@@@3,4@@@@@@@@@@@@@@@@@@@@@@@@@@@@@@@@@@4,3@@@@@",
"@@@@@K,L@@@@@@@@@@@@@@@@@@@@@@@@@@@@@@@@@@L,K@@@@@",
"@@@@@[,}@@@@@@@@@@@@@@@@@@@@@@@@@@@@@@@@@+},[@@@@@",
"@@@@@)!!~{M]^^0((_^^/((:^N_((:^N]((/^NM({<!!)@@@@@",
"@@@@@@O>,,,,,,,,,,,,,,,,,,,,,,,,,,,,,,,,,,>O@@@@@@",
"@@@@@@+5-*==============================*-P+@@@@@@",
"+@@@@@@@@@@@@@@@@@@@@@@@@@@@@@@@@@@@@@@@+@@@@@@@@@",
"Q@@@@@@@@@@@@@@@@@@@@@@@@@@@@@@@@@@@@@@@@@@@@@@@@.",
" @@@@@@@@@@@@@@@@@@@@@@@@@@@@@@@@@@@@@@@@@@@@@@@+ ",
" .+@@@@@@@@@@@@@@@@@@@@@@@@@@@@@@@@@@@@@@@@@@@@+. ",
"   R+@@@@@@@@@@@@@@@@@@@@@@@@@@@@@@@@@@@@@@@@+S   "};
