/* XPM */
static const char * desafio_teclas_p_xpm[] = {
"36 38 3 1",
" 	c None",
".	c #000000",
"+	c #FFFFFF",
"  ................................  ",
"....................................",
"....................................",
"....................................",
".....++++++++++++++++++++++++++.....",
"....++++++++++++++++++++++++++++....",
"....+..........................+....",
"...++..........................++...",
"...++...++++++++++.............++...",
"...++...+++++++++++............++...",
"...++...+++++++++++............++...",
"...++...++++...++++............++...",
"...++...++++...++++............++...",
"...++...++++...++++............++...",
"...++...++++...++++............++...",
"...++...+++++++++++............++...",
"...++...+++++++++++............++...",
"...++...+++++++++..............++...",
"...++...++++...................++...",
"...++...++++...................++...",
"...++...++++...................++...",
"...++...++++...................++...",
"...++...++++...................++...",
"...++..........................++...",
"...++..........................++...",
"...++..........................++...",
"...++..........................++...",
"...++..........................++...",
"...++..........................++...",
"...++..........................++...",
"...++..........................++...",
"....+..........................+....",
"....++++++++++++++++++++++++++++....",
".....++++++++++++++++++++++++++.....",
"....................................",
"....................................",
"....................................",
"  ................................  "};
