/* XPM */
static const char * desafio_teclas_r_xpm[] = {
"98 100 3 1",
" 	c None",
".	c #000000",
"+	c #FFFFFF",
"      ......................................................................................      ",
"    ..........................................................................................    ",
"   ............................................................................................   ",
"  ..............................................................................................  ",
" ................................................................................................ ",
" ................................................................................................ ",
"..................................................................................................",
"..................................................................................................",
"..................................................................................................",
"..................................................................................................",
"..................................................................................................",
"...............++++++++++++++++++++++++++++++++++++++++++++++++++++++++++++++++++++...............",
"..............++++++++++++++++++++++++++++++++++++++++++++++++++++++++++++++++++++++..............",
"............++++++++++++++++++++++++++++++++++++++++++++++++++++++++++++++++++++++++++............",
"............+++++................................................................++++++...........",
"...........+++++..................................................................+++++...........",
"...........++++....................................................................++++...........",
"..........++++......................................................................++++..........",
"..........++++......................................................................++++..........",
"..........++++......................................................................++++..........",
"..........++++......+++++++++++++++++++++++.........................................++++..........",
"..........++++......++++++++++++++++++++++++++......................................++++..........",
"..........++++......++++++++++++++++++++++++++++....................................++++..........",
"..........++++......+++++++++++++++++++++++++++++...................................++++..........",
"..........++++......++++++++++++++++++++++++++++++..................................++++..........",
"..........++++......++++++++++++++++++++++++++++++..................................++++..........",
"..........++++......+++++++++++++++++++++++++++++++.................................++++..........",
"..........++++......+++++++++++++++++++++++++++++++.................................++++..........",
"..........++++......+++++++++++..........++++++++++.................................++++..........",
"..........++++......+++++++++++..........++++++++++.................................++++..........",
"..........++++......+++++++++++..........++++++++++.................................++++..........",
"..........++++......+++++++++++..........++++++++++.................................++++..........",
"..........++++......+++++++++++..........++++++++++.................................++++..........",
"..........++++......+++++++++++..........++++++++++.................................++++..........",
"..........++++......+++++++++++..........++++++++++.................................++++..........",
"..........++++......+++++++++++..........++++++++++.................................++++..........",
"..........++++......+++++++++++..........++++++++++.................................++++..........",
"..........++++......+++++++++++++++++++++++++++++++.................................++++..........",
"..........++++......+++++++++++++++++++++++++++++++.................................++++..........",
"..........++++......++++++++++++++++++++++++++++++..................................++++..........",
"..........++++......+++++++++++++++++++++++++++++...................................++++..........",
"..........++++......++++++++++++++++++++++++++++....................................++++..........",
"..........++++......+++++++++++++++++++++++++++.....................................++++..........",
"..........++++......+++++++++++++++++++++++++.......................................++++..........",
"..........++++......+++++++++++...+++++++++++.......................................++++..........",
"..........++++......+++++++++++...+++++++++++.......................................++++..........",
"..........++++......+++++++++++....++++++++++.......................................++++..........",
"..........++++......+++++++++++....+++++++++++......................................++++..........",
"..........++++......+++++++++++.....+++++++++++.....................................++++..........",
"..........++++......+++++++++++.....+++++++++++.....................................++++..........",
"..........++++......+++++++++++......+++++++++++....................................++++..........",
"..........++++......+++++++++++......+++++++++++....................................++++..........",
"..........++++......+++++++++++.......+++++++++++...................................++++..........",
"..........++++......+++++++++++.......+++++++++++...................................++++..........",
"..........++++......+++++++++++........+++++++++++..................................++++..........",
"..........++++......+++++++++++........+++++++++++..................................++++..........",
"..........++++......+++++++++++.........+++++++++++.................................++++..........",
"..........++++......+++++++++++..........++++++++++.................................++++..........",
"..........++++......+++++++++++..........+++++++++++................................++++..........",
"..........++++......+++++++++++...........++++++++++................................++++..........",
"..........++++......+++++++++++...........+++++++++++...............................++++..........",
"..........++++......................................................................++++..........",
"..........++++......................................................................++++..........",
"..........++++......................................................................++++..........",
"..........++++......................................................................++++..........",
"..........++++......................................................................++++..........",
"..........++++......................................................................++++..........",
"..........++++......................................................................++++..........",
"..........++++......................................................................++++..........",
"..........++++......................................................................++++..........",
"..........++++......................................................................++++..........",
"..........++++......................................................................++++..........",
"..........++++......................................................................++++..........",
"..........++++......................................................................++++..........",
"..........++++......................................................................++++..........",
"..........++++......................................................................++++..........",
"..........++++......................................................................++++..........",
"..........++++......................................................................++++..........",
"..........++++......................................................................++++..........",
"..........++++......................................................................++++..........",
"..........++++......................................................................++++..........",
"..........++++......................................................................++++..........",
"..........++++......................................................................++++..........",
"...........++++....................................................................++++...........",
"...........+++++..................................................................+++++...........",
"............+++++................................................................++++++...........",
"............++++++++++++++++++++++++++++++++++++++++++++++++++++++++++++++++++++++++++............",
".............++++++++++++++++++++++++++++++++++++++++++++++++++++++++++++++++++++++++.............",
"...............++++++++++++++++++++++++++++++++++++++++++++++++++++++++++++++++++++...............",
"..................................................................................................",
"..................................................................................................",
"..................................................................................................",
"..................................................................................................",
"..................................................................................................",
" ................................................................................................ ",
" ................................................................................................ ",
"  ..............................................................................................  ",
"   ............................................................................................   ",
"    ..........................................................................................    ",
"      ......................................................................................      "};
