/* XPM */
static char * desafio_teclas_enter_xpm[] = {
"61 58 149 2",
"  	c None",
". 	c #737373",
"+ 	c #000000",
"@ 	c #1A1A1A",
"# 	c #CBCBCB",
"$ 	c #A3A3A3",
"% 	c #161616",
"& 	c #3B3B3B",
"* 	c #262626",
"= 	c #010101",
"- 	c #020202",
"; 	c #040404",
"> 	c #505050",
", 	c #7B7B7B",
"' 	c #838383",
") 	c #858585",
"! 	c #7C7C7C",
"~ 	c #848484",
"{ 	c #7F7F7F",
"] 	c #4F4F4F",
"^ 	c #080808",
"/ 	c #141414",
"( 	c #C4C4C4",
"_ 	c #EEEEEE",
": 	c #C5C5C5",
"< 	c #D2D2D2",
"[ 	c #D4D4D4",
"} 	c #D5D5D5",
"| 	c #C6C6C6",
"1 	c #D3D3D3",
"2 	c #C9C9C9",
"3 	c #D6D6D6",
"4 	c #F4F4F4",
"5 	c #B4B4B4",
"6 	c #0A0A0A",
"7 	c #7E7E7E",
"8 	c #EBEBEB",
"9 	c #2F2F2F",
"0 	c #111111",
"a 	c #121212",
"b 	c #101010",
"c 	c #131313",
"d 	c #444444",
"e 	c #EAEAEA",
"f 	c #6F6F6F",
"g 	c #A2A2A2",
"h 	c #BBBBBB",
"i 	c #A1A1A1",
"j 	c #292929",
"k 	c #ACACAC",
"l 	c #E2E2E2",
"m 	c #AEAEAE",
"n 	c #2A2A2A",
"o 	c #ADADAD",
"p 	c #C3C3C3",
"q 	c #E0E0E0",
"r 	c #B7B7B7",
"s 	c #D1D1D1",
"t 	c #B8B8B8",
"u 	c #272727",
"v 	c #A6A6A6",
"w 	c #BCBCBC",
"x 	c #D7D7D7",
"y 	c #282828",
"z 	c #A7A7A7",
"A 	c #BEBEBE",
"B 	c #D9D9D9",
"C 	c #AAAAAA",
"D 	c #C1C1C1",
"E 	c #DEDEDE",
"F 	c #ABABAB",
"G 	c #414141",
"H 	c #3C3C3C",
"I 	c #3A3A3A",
"J 	c #383838",
"K 	c #3E3E3E",
"L 	c #0B0B0B",
"M 	c #E3E3E3",
"N 	c #545454",
"O 	c #9E9E9E",
"P 	c #B2B2B2",
"Q 	c #B3B3B3",
"R 	c #C2C2C2",
"S 	c #C0C0C0",
"T 	c #B9B9B9",
"U 	c #E4E4E4",
"V 	c #B6B6B6",
"W 	c #5F5F5F",
"X 	c #F9F9F9",
"Y 	c #DADADA",
"Z 	c #DBDBDB",
"` 	c #CCCCCC",
" .	c #CACACA",
"..	c #CDCDCD",
"+.	c #A5A5A5",
"@.	c #A9A9A9",
"#.	c #E1E1E1",
"$.	c #222222",
"%.	c #5D5D5D",
"&.	c #5B5B5B",
"*.	c #333333",
"=.	c #FFFFFF",
"-.	c #252525",
";.	c #F1F1F1",
">.	c #616161",
",.	c #F0F0F0",
"'.	c #242424",
").	c #EDEDED",
"!.	c #4E4E4E",
"~.	c #5A5A5A",
"{.	c #707070",
"].	c #0C0C0C",
"^.	c #313131",
"/.	c #232323",
"(.	c #E8E8E8",
"_.	c #030303",
":.	c #0F0F0F",
"<.	c #E5E5E5",
"[.	c #5C5C5C",
"}.	c #0E0E0E",
"|.	c #0D0D0D",
"1.	c #DDDDDD",
"2.	c #1D1D1D",
"3.	c #1B1B1B",
"4.	c #4A4A4A",
"5.	c #7D7D7D",
"6.	c #606060",
"7.	c #A4A4A4",
"8.	c #1F1F1F",
"9.	c #797979",
"0.	c #9A9A9A",
"a.	c #ECECEC",
"b.	c #373737",
"c.	c #363636",
"d.	c #3D3D3D",
"e.	c #393939",
"f.	c #3F3F3F",
"g.	c #424242",
"h.	c #8F8F8F",
"i.	c #FAFAFA",
"j.	c #CFCFCF",
"k.	c #EFEFEF",
"l.	c #F8F8F8",
"m.	c #454545",
"n.	c #464646",
"o.	c #404040",
"p.	c #434343",
"q.	c #656565",
"r.	c #686868",
"                                                        . + + + + + + + + + + + + + + + + + + + + + + + + + + + + + + @ # ",
"                                                      $ + + + + + + + + + + + + + + + + + + + + + + + + + + + + + + + + % ",
"                                                      & + + + + + + + + + + + + + + + + + + + + + + + + + + + + + + + + + ",
"                                                      * + + + = - ; > , ' ) ) ) ! ! ! ! ) ) ) ~ ! ! ! { ) ) ' ] ^ - + + = ",
"                                                      * + + + + / ( _ : < [ [ } | | | : } [ [ 1 : | | 2 [ [ 3 4 5 6 + + = ",
"                                                      * + + + + 7 8 9 0 0 a a a b 0 0 0 a a a a 0 0 0 0 a a c d e f + + = ",
"                                                      * + + + + g h + + + + + + + + + + + + + + + + + + + + + + [ i + + = ",
"                                                      j + + + + k : + + + + + + + + + + + + + + + + + + + + + + l m + + = ",
"                                                      n + + + + o : + + + + + + + + + + + + + + + + + + + + + + l m + + = ",
"                                                      n + + + + o : + + + + + + + + + + + + + + + + + + + + + + l m + + = ",
"                                                      j + + + + k p + + + + + + + + + + + + + + + + + + + + + + q k + + = ",
"                                                      * + + + + g r + + + + + + + + + + + + + + + + + + + + + + s g + + = ",
"                                                      * + + + + $ t + + + + + + + + + + + + + + + + + + + + + + < $ + + = ",
"                                                      * + + + + $ t + + + + + + + + + + + + + + + + + + + + + + < $ + + = ",
"                                                      u + + + + v w + + + + + + + + + + + + + + + + + + + + + + x v + + = ",
"                                                      j + + + + o : + + + + + + + + + + + + + + + + + + + + + + l m + + = ",
"                                                      n + + + + o : + + + + + + + + + + + + + + + + + + + + + + l m + + = ",
"                                                      n + + + + o : + + + + + + + + + + + + + + + + + + + + + + l m + + = ",
"                                                      y + + + + z A + + + + + + + + + + + + + + + + + + + + + + B z + + = ",
"                                                      * + + + + $ t + + + + + + + + + + + + + + + + + + + + + + < $ + + = ",
"                                                      * + + + + $ t + + + + + + + + + + + + + + + + + + + + + + < $ + + = ",
"                                                      * + + + + g r + + + + + + + + + + + + + + + + + + + + + + < g + + = ",
"                                                      y + + + + C D + + + + + + + + + + + + + + + + + + + + + + E F + + = ",
"                                                      n + + + + o : + + + + + + + + + + + + + + + + + + + + + + l m + + = ",
"                                                      y + + + + o : + + + + + + + + + + + + + + + + + + + + + + l m + + = ",
"  , G H & I J J J I & & & J J J J & & & & J J J J & K L + + + + o | + + + + + + + + + + + + + + + + + + + + + + M m + + = ",
"N + + + + + + + + + + + + + + + + + + + + + + + + + + + + + + + $ t + + + + + + + + + + + + + + + + + + + + + + 1 $ + + = ",
"+ + + + + + + + + + + + + + + + + + + + + + + + + + + + + + + + $ t + + + + + + + + + + + + + + + + + + + + + + < $ + + = ",
"- + + + + + + + + + + + + + + + + + + + + + + + + + + + + + + + O t + + + + + + + + + + + + + + + + + + + + + + < $ + + = ",
"= + + + + = + G P t 5 5 Q D R R p 5 Q 5 5 p R R S Q 5 Q T R R D U V + + + + + + + + + + + + + + + + + + + + + + < g + + = ",
"= + + + + + W X x } Y Y Z ` # #  .B Y Y Y  .# # ..Y Y Y [  .#  .x +.+ + + + + + + + + + + + + + + + + + + + + + l m + + = ",
"- + + + + L x @.+ + + + + + + + + + + + + + + + + + + + + + + + + + = + + + + + + + + + + + + + + + + + + + + + #.m + + = ",
"- + + + + $.#.%.+ + + + + + + + + + + + + + + + + + + + + + + + + + + + + + + + + + + + + + + + + + + + + + + + #.m + + = ",
"- + + + + $.#.&.+ + + + + + + + + + + + + + + + + + + *.=.=.= + + + + + + + + + + + + + + + + + + + + + + + + + #.o + + = ",
"- + + + + -.;.>.+ + + + + + + + + + + + + + + + + + ; =.=.=.=.+ + + + + + + + + + + + + + + + + + + + + + + + + s g + + = ",
"- + + + + -.,.>.+ + + + + + + + + + + + + + + + + + $.=.=.=.=.+ + + + + + + + + + + + + + + + + + + + + + + + + < $ + + = ",
"- + + + + -.,.>.+ + + + + + + + + + + + + + + + + + '.=.=.=.=.+ + + + + + + + + + + + + + + + + + + + + + + + + < $ + + = ",
"= + + + + '.).W + + + + + + + + + + =.!.- + + + + + -.=.=.=.=.+ + + + + + + + + + + + + + + + + + + + + + + + + } +.+ + = ",
"- + + + + $.q ~.+ + + + + + + = + =.=.{.= + + + + + * =.=.=.=.+ + + + + + + + + + + + + + + + + + + + + + + + + l m + + = ",
"- + + + + $.#.&.+ + + + + + + + =.=.=.n = + + + + + * =.=.=.=.+ + + + + + + + + + + + + + + + + + + + + + + + + l m + + = ",
"- + + + + $.#.&.+ + + + + + c =.=.=.=.b ].6 6 6 6 ^ ^.=.=.=.=.+ + + + + + + + + + + + + + + + + + + + + + + + + l m + + = ",
"- + + + + /.(.%.+ + + + + =.=.=.=.=.=.=.=.=.=.=.=.=.=.=.=.=.=.+ + + + + + + + + + + + + + + + + + + + + + + + + Z @.+ + = ",
"- + + + + -.,.>.+ + + _.=.=.=.=.=.=.=.=.=.=.=.=.=.=.=.=.=.=.=.+ + + + + + + + + + + + + + + + + + + + + + + + + < g + + = ",
"- + + + + -.,.>.+ + + :.=.=.=.=.=.=.=.=.=.=.=.=.=.=.=.=.=.=.=.+ + + + + + + + + + + + + + + + + + + + + + + + + < $ + + = ",
"- + + + + -.;.>.+ + + + - =.=.=.=.=.=.=.=.=.=.=.=.=.=.=.=.=.+ = + + + + + + + + + + + + + + + + + + + + + + + + < g + + = ",
"= + + + + /.<.[.+ + + + + + =.=.=.=.=.6 }.:.:.:.:.}.}.}.|.+ + + + + + + + + + + + + + + + + + + + + + + + + + + 1.C + + = ",
"- + + + + $.#.&.+ + + + + + + 2.=.=.=.3.+ + + + + + + + + + + + + + + + + + + + + + + + + + + + + + + + + + + + l m + + = ",
"- + + + + $.#.&.+ + + + + + + + + =.=.4.= + + + + + + + + + + + + + + + + + + + + + + + + + + + + + + + + + + + l m + + = ",
"- + + + + $.q ~.+ + + + + + + + = + =.5.= + + + + + + + + + + + + + + + + + + + + + + + + + + + + + + + + + + + M m + + = ",
"- + + + + '._ 6.+ + + + + + + + + + - L + + + + + + + + + + + + + + + + + + + + + + + + + + + + + + + + + + + + [ 7.+ + = ",
"- + + + + -.,.>.+ + + + + + + + + + + + + + + + + + + + + + + + + + + + + + + + + + + + + + + + + + + + + + + + < $ + + = ",
"- + + + + 8.).9.+ + + + + + + + + + + + + + + + + + + + + + + + + + + + + + + + + + + + + + + + + + + + + + + + x 0.+ + = ",
"= + + + + + | a.W b.c.c.c.& H H H b.c.c.c.d.H H H b.b.b.e.K d.d.I J J b.H d.K f.e.J J J f.K K K J e.e.I f.f.g.h.i.G + + = ",
"= + + + + + a j._ i.=.=.=.k._ _ _ =.=.=.=.)._ _ ;.=.=.=.X )._ _ l.=.=.=.,._ _ ).=.=.=.=.a._ _ ,.=.=.=.i.)._ ).l., + + + = ",
"- + + + + + + + *.m.n.n.n.G o.o.o.m.n.n.n.o.o.o.G n.n.n.d o.o.o.p.n.n.d K d.d.d.g.g.g.p.d.d.d.K g.g.g.G d.d.H @ + + + + = ",
"- + + + + + + + + + + + + + + + + + + + + + + + + + + + + + + + + + + + + + + + + + + + + + + + + + + + + + + + + + + + = ",
"= + + + + + + + + + + + + + + + + + + + + + + + + + + + + + + + + + + + + + + + + + + + + + + + + + + + + + + + + + + + + ",
"q.- + + + + + + + + + + + + + + + + + + + + + + + + + + + + + + + + + + + + + + + + + + + + + + + + + + + + + + + + + _.r."};
