/* XPM */
static const char * desafio_teclas_c_xpm[] = {
"50 50 8 1",
" 	c None",
".	c #000000",
"+	c #E4E4E4",
"@	c #F5F5F5",
"#	c #FFFFFF",
"$	c #FDFDFD",
"%	c #FEFEFE",
"&	c #E1E1E1",
"   ............................................   ",
"  ..............................................  ",
" ................................................ ",
" ................................................ ",
"..................................................",
".........+@@@@@@@@@@@@@@@@@@@@@@@@@@@@@@+.........",
".......####################################.......",
"......## ................................ ##......",
"......#$..................................%#......",
"......#....................................#......",
"......#...... ######## ....................#......",
"......#.... ############ ..................#......",
"......#....############## .................#......",
"......#... ####      #### .................#......",
"......#... ####......#### .................#......",
"......#... ####............................#......",
"......#... ####............................#......",
"......#... ####............................#......",
"......#... ####............................#......",
"......#... ####............................#......",
"......#... ####............................#......",
"......#... ####............................#......",
"......#... ####............................#......",
"......#... ####............................#......",
"......#... ####............................#......",
"......#... ####......#### .................#......",
"......#... ####      #### .................#......",
"......#....############## .................#......",
"......#.... ############ ..................#......",
"......#...... ######## ....................#......",
"......#....................................#......",
"......#....................................#......",
"......#....................................#......",
"......#....................................#......",
"......#....................................#......",
"......#....................................#......",
"......#....................................#......",
"......#....................................#......",
"......#....................................#......",
"......#....................................#......",
"......#....................................#......",
"......#%..................................##......",
"......## ................................ ##......",
".......####################################.......",
".........&@@@@@@@@@@@@@@@@@@@@@@@@@@@@@@&.........",
"..................................................",
" ................................................ ",
" ................................................ ",
"  ..............................................  ",
"   ............................................   "};
