/* XPM */
static char * desafio_teclas_t_xpm[] = {
"50 51 83 1",
" 	c None",
".	c #1C1C1C",
"+	c #000000",
"@	c #181818",
"#	c #2C2C2C",
"$	c #010101",
"%	c #232323",
"&	c #1B1B1B",
"*	c #0F0F0F",
"=	c #292929",
"-	c #373737",
";	c #575757",
">	c #BABABA",
",	c #D6D6D6",
"'	c #D7D7D7",
")	c #C7C7C7",
"!	c #7F7F7F",
"~	c #333333",
"{	c #909090",
"]	c #F7F7F7",
"^	c #FFFFFF",
"/	c #BDBDBD",
"(	c #393939",
"_	c #565656",
":	c #CCCCCC",
"<	c #868686",
"[	c #858585",
"}	c #B0B0B0",
"|	c #F9F9F9",
"1	c #FEFEFE",
"2	c #969696",
"3	c #3F3F3F",
"4	c #CDCDCD",
"5	c #979797",
"6	c #E4E4E4",
"7	c #3C3C3C",
"8	c #8D8D8D",
"9	c #1F1F1F",
"0	c #FCFCFC",
"a	c #FDFDFD",
"b	c #4F4F4F",
"c	c #D3D3D3",
"d	c #5B5B5B",
"e	c #FBFBFB",
"f	c #5F5F5F",
"g	c #6E6E6E",
"h	c #656565",
"i	c #353535",
"j	c #161616",
"k	c #363636",
"l	c #515151",
"m	c #4C4C4C",
"n	c #383838",
"o	c #1A1A1A",
"p	c #3E3E3E",
"q	c #3A3A3A",
"r	c #3B3B3B",
"s	c #F3F3F3",
"t	c #F1F1F1",
"u	c #3D3D3D",
"v	c #D5D5D5",
"w	c #939393",
"x	c #2F2F2F",
"y	c #AEAEAE",
"z	c #D9D9D9",
"A	c #A9A9A9",
"B	c #DCDCDC",
"C	c #EFEFEF",
"D	c #E1E1E1",
"E	c #A8A8A8",
"F	c #C9C9C9",
"G	c #888888",
"H	c #777777",
"I	c #EEEEEE",
"J	c #A3A3A3",
"K	c #9E9E9E",
"L	c #C2C2C2",
"M	c #AFAFAF",
"N	c #1D1D1D",
"O	c #101010",
"P	c #202020",
"Q	c #020202",
"R	c #313131",
"   .++++++++++++++++++++++++++++++++++++++++++@#  ",
" $+++++++++++++++++++++++++++++++++++++++++++++++ ",
" ++++++++++++++++++++++++++++++++++++++++++++++++%",
"&++++++++++++++++++++++++++++++++++++++++++++++++*",
"=+++++++++++++++++++++++++++++++++++++++++++++++++",
"-++++++;>,''''''''''''''''''''''''''''''')!+++++++",
"~+++++{]^^^^^^^^^^^^^^^^^^^^^^^^^^^^^^^^^^^/++++++",
"(++++_]^:<[[[[[[[[[[[[[[[[[[[[[[[[[[[[[[[}|12+++++",
"3++++>^4++++++++++++++++++++++++++++++++++5^6+++++",
"7++++,^8++++++++++++++++++++++++++++++++++90a+++++",
"~++++,^<+bcccccccccccccccd+++++++++++++++++ea+++++",
"~++++,^<+f^^^^^^^^^^^^^^^g+++++++++++++++++ea+++++",
"3++++,^<+h^^^^^^^^^^^^^^^g+++++++++++++++++ea+++++",
"3++++,^<+h^^^^^^^^^^^^^^^g+++++++++++++++++ea+++++",
"i++++,^<+j-k--l^^^^1m-nkko+++++++++++++++++ea+++++",
"~++++,^<++++++p^^^^1k++++++++++++++++++++++ea+++++",
"q++++,^<++++++p^^^^1k++++++++++++++++++++++ea+++++",
"3++++,^<++++++p^^^^1k++++++++++++++++++++++ea+++++",
"r++++,^<++++++p^^^^1k++++++++++++++++++++++ea+++++",
"~++++,^<++++++p^^^^1k++++++++++++++++++++++ea+++++",
"i++++,^<++++++p^^^^1k++++++++++++++++++++++ea+++++",
"3++++,^<++++++p^^^^1k++++++++++++++++++++++ea+++++",
"3++++,^<++++++p^^^^1k++++++++++++++++++++++ea+++++",
"~++++,^<++++++p^^^^1k++++++++++++++++++++++ea+++++",
"~++++,^<++++++p^^^^1k++++++++++++++++++++++ea+++++",
"7++++,^<++++++p^^^^1k++++++++++++++++++++++ea+++++",
"3++++,^<++++++p^^^^1k++++++++++++++++++++++ea+++++",
"(++++,^<++++++p^^^^1k++++++++++++++++++++++ea+++++",
"~++++,^<++++++p^^^^1k++++++++++++++++++++++ea+++++",
"k++++,^<++++++p^^^^1k++++++++++++++++++++++ea+++++",
"3++++,^<++++++qsssst~++++++++++++++++++++++ea+++++",
"p++++,^<+++++++++++++++++++++++++++++++++++ea+++++",
"~++++,^<+++++++++++++++++++++++++++++++++++ea+++++",
"~++++,^<+++++++++++++++++++++++++++++++++++ea+++++",
"u++++,^<+++++++++++++++++++++++++++++++++++ea+++++",
"3++++,^<+++++++++++++++++++++++++++++++++++ea+++++",
"n++++,^<+++++++++++++++++++++++++++++++++++ea+++++",
"~++++,^<+++++++++++++++++++++++++++++++++++ea+++++",
"n++++,^<+++++++++++++++++++++++++++++++++++ea+++++",
"3++++,^<+++++++++++++++++++++++++++++++++++ea+++++",
"u++++,^<+++++++++++++++++++++++++++++++++++ea+++++",
"~++++v^w++++++++++++++++++++++++++++++++++x0a+++++",
"~++++y^z$+++++++++++++++++++++++++++++++++A^B+++++",
"3++++3C^DAEEEEEEEEEEEEEEEEEEEEEEEEEEEEEEEF11G+++++",
"3+++++HI^^^^^^^^^^^^^^^^^^^^^^^^^^^^^^^^^^eJ++++++",
"k++++++#KLLLLLLLLLLLLLLLLLLLLLLLLLLLLLLLLM_+++++++",
"N+++++++++++++++++++++++++++++++++++++++++++++++++",
".++++++++++++++++++++++++++++++++++++++++++++++++O",
" ++++++++++++++++++++++++++++++++++++++++++++++++P",
"  Q+++++++++++++++++++++++++++++++++++++++++++++$ ",
"   .P3333333333333333333333333333333333333333R&   "};
