/* XPM */
static char * desafio_teclas_xpm[] = {
"37 37 46 1",
" 	c None",
".	c #000000",
"+	c #272727",
"@	c #FFFFFF",
"#	c #1D1D1D",
"$	c #323232",
"%	c #1E1E1E",
"&	c #090909",
"*	c #333333",
"=	c #0A0A0A",
"-	c #0B0B0B",
";	c #0C0C0C",
">	c #020202",
",	c #202020",
"'	c #FEFEFE",
")	c #0F0F0F",
"!	c #141414",
"~	c #010101",
"{	c #1C1C1C",
"]	c #030303",
"^	c #1F1F1F",
"/	c #080808",
"(	c #E8E8E8",
"_	c #171717",
":	c #BCBCBC",
"<	c #181818",
"[	c #191919",
"}	c #AAAAAA",
"|	c #444444",
"1	c #595959",
"2	c #D3D3D3",
"3	c #2C2C2C",
"4	c #D2D2D2",
"5	c #2E2E2E",
"6	c #070707",
"7	c #2F2F2F",
"8	c #4B4B4B",
"9	c #575757",
"0	c #535353",
"a	c #424242",
"b	c #161616",
"c	c #1B1B1B",
"d	c #242424",
"e	c #111111",
"f	c #3B3B3B",
"g	c #2D2D2D",
" ................................... ",
".....................................",
".....................................",
".....+@@@@@@@@@@@@@@@@@@@@@@@@@@#....",
"....$@@@@@@@@@@@@@@@@@@@@@@@@@@@@%...",
"...&@@*=-;;---;---;;--;;---;;-&@@@...",
"...#@@>.........................@@...",
"...,@@...'@@'=.....)@@@!~.......@@...",
"...{@@...@@@@@....)@@@@@].......@@...",
"...#@@...@@@@@@...@@@@@@].......@@...",
"...^@@...@@@@@@/.^(@@@@@].......@@...",
"...,@@...@@@@@@@.@@@@@@@].......@@...",
"...#@@...@@@@@@@@@@@@@@@].......@@...",
"...{@@...@@@@@@@@@@@@@@@].......@@...",
"...%@@...@@@@@@@@@@@@@@@].......@@...",
"...,@@...@@@(_:@@(.:@@@@].......@@...",
"...^@@...@@@@<[}@}.}@@@@].......@@...",
"...{@@...@@@@,/|@1.2@@@@].......@@...",
"...#@@...@@@@3.!.=.4@@@@].......@@...",
"...^@@...@@@@5.6...:@@@@].......@@...",
"...,@@...@@@@7.....(@@@@].......@@...",
"...#@@...@@@@3.....(@@@@].......@@...",
"...{@@...@@@@3.....4@@@@].......@@...",
"...%@@...890a).....b@@@@~.......@@...",
"...,@@..........................@@...",
"...^@@..........................@@...",
"...{@@..........................@@...",
"...#@@..........................@@...",
"...^@@..........................@@...",
"...,@@..........................@@...",
"...c@@..........................@@...",
"...=@@d.~~~~~~~~~~~~~~~~~~~~~~.e@@...",
"....f@@@@@@@@@@@@@@@@@@@@@@@@@@@@&...",
".....g@@@@@@@@@@@@@@@@@@@@@@@@@@.....",
".....................................",
".....................................",
" ................................... "};
