/* XPM */
static const char * desafio_teclas_xpm[] = {
"100 58 188 2",
"  	g None",
". 	g #FDFDFD",
"+ 	g #FFFFFF",
"@ 	g #F6F6F6",
"# 	g #EDEDED",
"$ 	g #F3F3F3",
"% 	g #FBFBFB",
"& 	g #F0F0F0",
"* 	g #FEFEFE",
"= 	g #F5F5F5",
"- 	g #FAFAFA",
"; 	g #EFEFEF",
"> 	g #EEEEEE",
", 	g #F4F4F4",
"' 	g #ECECEC",
") 	g #F8F8F8",
"! 	g #F9F9F9",
"~ 	g #FCFCFC",
"{ 	g #F1F1F1",
"] 	g #F7F7F7",
"^ 	g #F2F2F2",
"/ 	g #EBEBEB",
"( 	g #A4A4A4",
"_ 	g #5F5F5F",
": 	g #5B5B5B",
"< 	g #616161",
"[ 	g #5E5E5E",
"} 	g #595959",
"| 	g #606060",
"1 	g #585858",
"2 	g #5D5D5D",
"3 	g #5A5A5A",
"4 	g #5C5C5C",
"5 	g #9C9C9C",
"6 	g #484848",
"7 	g #000000",
"8 	g #4B4B4B",
"9 	g #E0E0E0",
"0 	g #7A7A7A",
"a 	g #838383",
"b 	g #EAEAEA",
"c 	g #272727",
"d 	g #555555",
"e 	g #1A1A1A",
"f 	g #868686",
"g 	g #A6A6A6",
"h 	g #A8A8A8",
"i 	g #B4B4B4",
"j 	g #B3B3B3",
"k 	g #ACACAC",
"l 	g #A7A7A7",
"m 	g #AFAFAF",
"n 	g #B5B5B5",
"o 	g #A9A9A9",
"p 	g #B2B2B2",
"q 	g #ABABAB",
"r 	g #B1B1B1",
"s 	g #AAAAAA",
"t 	g #898989",
"u 	g #1D1D1D",
"v 	g #494949",
"w 	g #DCDCDC",
"x 	g #1B1B1B",
"y 	g #323232",
"z 	g #D0D0D0",
"A 	g #E4E4E4",
"B 	g #B7B7B7",
"C 	g #B6B6B6",
"D 	g #AEAEAE",
"E 	g #B8B8B8",
"F 	g #DADADA",
"G 	g #1E1E1E",
"H 	g #D6D6D6",
"I 	g #090909",
"J 	g #8E8E8E",
"K 	g #D4D4D4",
"L 	g #333333",
"M 	g #0A0A0A",
"N 	g #0B0B0B",
"O 	g #0C0C0C",
"P 	g #242424",
"Q 	g #E9E9E9",
"R 	g #4A4A4A",
"S 	g #DEDEDE",
"T 	g #BEBEBE",
"U 	g #808080",
"V 	g #020202",
"W 	g #909090",
"X 	g #E8E8E8",
"Y 	g #4C4C4C",
"Z 	g #E6E6E6",
"` 	g #202020",
" .	g #C5C5C5",
"..	g #222222",
"+.	g #0F0F0F",
"@.	g #292929",
"#.	g #262626",
"$.	g #141414",
"%.	g #010101",
"&.	g #858585",
"*.	g #E5E5E5",
"=.	g #1C1C1C",
"-.	g #C7C7C7",
";.	g #6C6C6C",
">.	g #848484",
",.	g #030303",
"'.	g #C6C6C6",
").	g #818181",
"!.	g #303030",
"~.	g #565656",
"{.	g #7B7B7B",
"].	g #8D8D8D",
"^.	g #D9D9D9",
"/.	g #1F1F1F",
"(.	g #D3D3D3",
"_.	g #939393",
":.	g #080808",
"<.	g #767676",
"[.	g #878787",
"}.	g #E3E3E3",
"|.	g #C4C4C4",
"1.	g #787878",
"2.	g #CFCFCF",
"3.	g #A3A3A3",
"4.	g #737373",
"5.	g #4D4D4D",
"6.	g #E7E7E7",
"7.	g #DBDBDB",
"8.	g #D1D1D1",
"9.	g #8C8C8C",
"0.	g #DFDFDF",
"a.	g #7D7D7D",
"b.	g #8F8F8F",
"c.	g #7E7E7E",
"d.	g #8A8A8A",
"e.	g #797979",
"f.	g #C8C8C8",
"g.	g #A1A1A1",
"h.	g #747474",
"i.	g #D2D2D2",
"j.	g #CBCBCB",
"k.	g #3C3C3C",
"l.	g #B0B0B0",
"m.	g #757575",
"n.	g #C0C0C0",
"o.	g #050505",
"p.	g #3F3F3F",
"q.	g #2C2C2C",
"r.	g #959595",
"s.	g #414141",
"t.	g #CDCDCD",
"u.	g #2E2E2E",
"v.	g #2F2F2F",
"w.	g #070707",
"x.	g #404040",
"y.	g #C3C3C3",
"z.	g #424242",
"A.	g #7F7F7F",
"B.	g #D7D7D7",
"C.	g #575757",
"D.	g #535353",
"E.	g #161616",
"F.	g #515151",
"G.	g #2B2B2B",
"H.	g #E2E2E2",
"I.	g #D8D8D8",
"J.	g #999999",
"K.	g #111111",
"L.	g #3B3B3B",
"M.	g #A2A2A2",
"N.	g #9A9A9A",
"O.	g #9F9F9F",
"P.	g #9D9D9D",
"Q.	g #A0A0A0",
"R.	g #9B9B9B",
"S.	g #A5A5A5",
"T.	g #2D2D2D",
"U.	g #D5D5D5",
"V.	g #C9C9C9",
"W.	g #CECECE",
"X.	g #CACACA",
"Y.	g #525252",
"Z.	g #707070",
"`.	g #E1E1E1",
" +	g #353535",
".+	g #505050",
"++	g #4E4E4E",
"@+	g #4F4F4F",
". + @ # $ + % & # * + = # = + - ; > + * , ' ) + ! > ; + . $ ' - + ) > & + ~ { ' . + @ # $ + % & # * + = # = + - ; > + * , ' ) + ! > ; + . $ ' - + ) > & + +                                             ",
"~ * ] > $ + % { > . * = > = + - & ; * . , > ) + ) ; & + ~ $ > - + ] ; { + ~ ^ > ~ * ] > $ + % { > . * = > = + - & ; * . , > ) + ) ; & + ~ $ > - + ] ; { + *                                             ",
"= , ] - ) , @ ! - , , ) - ] , @ ! - , , ) - @ , @ - - , = ) - @ , ] - ! , = ! - = , ] - ) , @ ! - , , ) - ] , @ ! - , , ) - @ , @ - - , = ) - @ , ] - ! , ,                                             ",
"; ' ) + % / ^ * + # # ! + ) / $ + + ' > - + = / = + + / ; ~ + ^ ' @ + * / & . + ; ' ) + % / ^ * + # # ! + ) / $ + + ' > - + = / = + + / ; ~ + ^ ' @ + * / '                                             ",
"] ] ] = @ ) ] @ = ] ] ] = @ ) ] @ @ ] ] ] = ] ) ] @ @ ) ] @ = ] ] ] @ @ ) ] @ = ] ] ] = @ ) ] @ = ] ] ] = @ ) ] @ @ ] ] ] = ] ) ] @ @ ) ] @ = ] ] ] @ @ ) ]                                             ",
". + @ ' ^ + ~ ; / + + = / = + - > ' + + , / ) + ! # # + * ^ / % + ) ' ; + . { / . + @ ' ^ + ~ ; / + + = / = + - > ' + + , / ) + ! # # + * ^ / % + ) ' ; + +                                             ",
") ! ] = @ ! ) = = ! ! ] = ] ! ) = = ! ! @ = ] ! ] = = ! ) @ = ) ! ] = @ ! ) @ = ) ! ] = @ ! ) = = ! ! ] = ] ! ) = = ! ! @ = ] ! ] = = ! ) @ = ) ! ] = @ ! !                                             ",
"{ > ) + - # $ . + ; ; ! + ) # , * + > & - + = # = * * # { % + $ > @ + ~ # ^ ~ + { > ) + - # $ . + ; ; ! + ) # , * + > & - + = # = * * # { % + $ > @ + ~ # ;                                             ",
"{ > ) + - # $ . + ; ; ) * @ / ^ ~ . ' # ) * $ / $ . ~ / > ! + { ' = . % / & - * ; ' @ * ! # $ . + ; ; ! + ) # , * + > ; - + = # = * * # & % + $ # @ + ~ # >                                             ",
". + @ ' ^ + % ; ' + & ( _ : < [ } } < | : 1 2 < 2 } } < | : 1 _ < 2 } 3 < _ 3 1 | < 4 < 5 ^ ~ & ' + + = ' = + - > ' + + , / ) + ! # > + * ^ / % + ) # & + +                                             ",
"~ * ] ; , + - ^ & & 6 7 7 7 7 7 7 7 7 7 7 7 7 7 7 7 7 7 7 7 7 7 7 7 7 7 7 7 7 7 7 7 7 7 7 8 9 , ; . . @ ; @ + ! { ; * . = ; ) * ) & & * ~ , > - * ] & ^ * .                                             ",
", $ ] % ! ^ = - + 0 7 7 7 7 7 7 7 7 7 7 7 7 7 7 7 7 7 7 7 7 7 7 7 7 7 7 7 7 7 7 7 7 7 7 7 7 a ! % $ $ ) % ] $ @ - % $ , ) % @ $ @ - - $ , ! % = $ ] % - $ $                                             ",
"; ' ) + % b ^ * + c 7 7 7 7 7 7 7 7 7 7 7 7 7 7 7 7 7 7 7 7 7 7 7 7 7 7 7 7 7 7 7 7 7 7 7 7 d ' + # # ! + ) / $ + + ' > - + = / = + + / ; ~ + ^ / @ + * / '                                             ",
") ! ] , = - ) = + e 7 7 7 7 c f g h i j k l m n m o o n p q l r i m h s n p q l t u 7 7 7 7 v w = ! ! @ $ @ - ) , , ! ! @ $ ] - ) , , - ! = $ ) ! ] , = - !                                             ",
". + @ ' ^ + % ; - x 7 7 7 y z A r s B C D s p B r q q B n D s j B r q k E i k k ; F G 7 7 7 6 H # + + = ' = + - > ' + + , / ) + ! # > + * ^ / % + ) # & + +                                             ",
") ) ] @ @ ) ) @ + x 7 7 I J K L M N O O N N N O N N N O O N N O O N N N O O N I P Q ( 7 7 7 R S ] ) ) ] @ ] ) ] @ @ ) ) ] @ ] ) ] @ @ ) ) @ @ ) ) ] @ @ ) )                                             ",
"& > ) + - ' $ . + x 7 7 u T U V 7 7 7 7 7 7 7 7 7 7 7 7 7 7 7 7 7 7 7 7 7 7 7 7 7 W X 7 7 7 Y Z + ; > ! + ) # , * + > ; - + = # = + * # & % + $ # @ + . # >                                             ",
"{ ; ] * - > $ ~ + x 7 7 `  .0 7 7 7 ..c c ..M 7 7 7 7 7 +.@.#.@.$.%.7 7 7 7 7 7 7 &.{ 7 7 7 Y *.+ & & ) + ) > , . * ; & ! + = > = * . > { - + $ ; ] * ~ > ;                                             ",
"* + @ ' ^ + ~ ; - x 7 7 =.-.a 7 7 7 # + + ) ;.7 7 7 7 +.l + % + >.,.7 7 7 7 7 7 7 W { 7 7 7 6 H # + + = / = + - > ' + + $ / ) + ! # # + * ^ / % + ) ' ; + +                                             ",
"% . ] & , * - ^ * x 7 7 u '.).7 7 7 w + = = K !.7 7 7 ~.+ , ; + {.,.7 7 7 7 7 7 7 ].{ 7 7 7 v ^.{ ~ . @ & @ * ! { & . ~ = ; ) * ) { { * % , ; ! . ] & ^ * .                                             ",
", ^ ] ~ ! { = - + x 7 7 /. .{.7 7 7 (.= ! ~ + _.:.7 e H ) ! ~ + <.,.7 7 7 7 7 7 7 [.{ 7 7 7 8 }.. $ ^ ) ~ ) { = % ~ ^ $ ! ~ @ ^ @ % % ^ $ ! ~ = ^ ] % - ^ ^                                             ",
"; ' ) + % b ^ * + x 7 7 ` |.1.7 7 7 2.& - + @ # v 7 3.= ; ~ + . 4.,.7 7 7 7 7 7 7 >.{ 7 7 7 5.6.+ # # ! + ) / $ + + ' > - + = / = + + / ; ~ + ^ / @ + * / '                                             ",
"- % ] ^ , ~ ! $ + x 7 7 u '.U 7 7 7 7.. = { ] + 8.| { ~ - = { + 0 ,.7 7 7 7 7 7 7 9.{ 7 7 7 v 7.$ % % @ { @ ~ ) $ ^ % - = { ] % ) ^ ^ ~ - = { ! % ] ^ $ ~ %                                             ",
". + @ ' ^ + % & % x 7 7 =.'.a 7 7 7 0.+ , ' ) + ! }.; + * ^ / + a.,.7 7 7 7 7 7 7 b.{ 7 7 7 6 H > + + = ' = + - ; # + + , ' ) + ! > > + * ^ ' % + ) # & + +                                             ",
"] ] ] ] ] ] ] ] + x 7 7 G '.c.7 7 7 H - ] ; & ) ] ] ] @ # = ] + 1.,.7 7 7 7 7 7 7 d.{ 7 7 7 R 0.) ] ] ] ] ] ] ] ] ] ] ] ] ] ] ] ] ] ] ] ] ] ] ] ] ] ] ] ] ]                                             ",
"& # ) + % ' ^ . + x 7 7 ` |.e.7 7 7 z { * f.g.*.@ + + K e.+ + . h.,.7 7 7 7 7 7 7 &.{ 7 7 7 Y Z + > > ! + ) ' , * + # ; - + = ' = + + ' & % + ^ # @ + . ' >                                             ",
"^ & ] . ! ; , % + x 7 7 /.|.{.7 7 7 i., . j.k.l.] ~ % a y + * + m.,.7 7 7 7 7 7 7 f { 7 7 7 Y A + { { ) . ] ; = ~ . & { ! . @ & @ ~ ~ & ^ - * , & ] . % & {                                             ",
"* + @ / ^ + ~ ; - x 7 7 =.-.a 7 7 7 9 + ] n.` v 6.; -.o.p.* / + a.,.7 7 7 7 7 7 7 W { 7 7 7 6 H # + + = / = + - > ' + + $ / ) + ! # # + * ^ b % + ) ' ; + +                                             ",
"% ~ ] { , . - $ + x 7 7 u '.).7 7 7 7.* ! |.q.7 r.; p.7 s.+ { + {.,.7 7 7 7 7 7 7 ].{ 7 7 7 v F ^ ~ ~ @ { @ . ! ^ { ~ % = & ) . ) ^ ^ . % , & ! . ] { $ . ~                                             ",
"$ { ] . ! & , % + x 7 7 /. .{.7 7 7 i., . t.u.7 e <.7 7 s.+ * + <.,.7 7 7 7 7 7 7 [.{ 7 7 7 8 }.* ^ ^ ) . ) & = % ~ { ^ ! . @ { @ ~ ~ { $ - . , { ] ~ % { {                                             ",
"; ' ) + % b ^ * + x 7 7 ` |.1.7 7 7 2.& + 8.v.7 7 w.7 7 x.+ + . 4.,.7 7 7 7 7 7 7 >.{ 7 7 7 5.6.+ # # ! + ) / $ + + ' > - + = / = + + / ; ~ + ^ / @ + * / '                                             ",
"% . ] & , * - ^ * x 7 7 u '.).7 7 7 w * ! y.q.7 7 7 7 7 s.+ & + {.,.7 7 7 7 7 7 7 ].{ 7 7 7 v ^.{ ~ ~ @ & @ . ! { & . ~ = ; ] . ) { { . % , ; ! . ] & ^ . ~                                             ",
". + @ # ^ + % & % x 7 7 =.'.a 7 7 7 }.+ .  .q.7 7 7 7 7 z.+ ^ + A.,.7 7 7 7 7 7 7 b.{ 7 7 7 6 B.> + + = ' = + - ; # + * , ' ) + ! > > + . ^ ' % + ) # & + +                                             ",
"] ] ] ] ] ] ] ] + x 7 7 G '.a.7 7 7 8 C.D.z.+.7 7 7 7 7 E.C.F.} G.%.7 7 7 7 7 7 7 d.{ 7 7 7 R 0.! ] ] ] ] ] ] ] ] ] ] ] ] ] ] ] ] ] ] ] ] ] ] ] ] ] ] ] ] ]                                             ",
"& # ) + % ' ^ * + x 7 7 ` |.e.7 7 7 7 7 7 7 7 7 7 7 7 7 7 7 7 7 7 7 7 7 7 7 7 7 7 >.{ 7 7 7 Y Z + > > ! + ) ' , + + # ; - + = ' = + + ' & % + ^ ' @ + . ' #                                             ",
"$ ^ ] % ! { = - + x 7 7 /. .{.7 7 7 7 7 7 7 7 7 7 7 7 7 7 7 7 7 7 7 7 7 7 7 7 7 7 [.{ 7 7 7 8 H.. ^ ^ ) % ] { = - % ^ $ ) ~ @ { @ % % { $ ! ~ , ^ ] % - { ^                                             ",
"* + @ / ^ + ~ ; - x 7 7 =.-.a 7 7 7 7 7 7 7 7 7 7 7 7 7 7 7 7 7 7 7 7 7 7 7 7 7 7 W { 7 7 7 6 H # + + = / = + - > ' + + $ / ) + ! # # + * ^ b % + ) ' ; + +                                             ",
"- % ] ^ = ~ ! $ + x 7 7 u '.U 7 7 7 7 7 7 7 7 7 7 7 7 7 7 7 7 7 7 7 7 7 7 7 7 7 7 9.{ 7 7 7 v 7.$ % % @ ^ @ ~ ! $ ^ ~ % = { ) ~ ) ^ $ ~ - = { ! ~ ] ^ , ~ %                                             ",
"^ & ] . ! ; , % + x 7 7 /. .0 7 7 7 7 7 7 7 7 7 7 7 7 7 7 7 7 7 7 7 7 7 7 7 7 7 7 f { 7 7 7 Y A + { { ) * ) ; = ~ . & { ! * @ & @ . ~ & ^ - * , & ] . % & {                                             ",
"; ' ) + % / ^ * + x 7 7 ` |.1.7 7 7 7 7 7 7 7 7 7 7 7 7 7 7 7 7 7 7 7 7 7 7 7 7 7 a { 7 7 7 Y 6.+ # # ! + ) / $ + + ' > - + = / = + + / ; ~ + ^ ' @ + * / #                                             ",
"~ * ] ; $ + - { . x 7 7 x y.&.7 7 7 7 7 7 7 7 7 7 7 7 7 7 7 7 7 7 7 7 7 7 7 7 7 7 r.' 7 7 7 6 I.& . * = > = + ! & ; * . , > ) + ) & & + ~ $ > - * ] ; { + *                                             ",
". + @ # $ + % & ~ x 7 7 M J.i.P 7 %.%.%.%.%.%.%.%.%.%.%.%.%.%.%.%.%.%.%.%.%.%.7 K.X p 7 7 7 6 B.> * + = # = + - ; > + * , # ) + ! > ; + . $ ' - + ) > & + +                                             ",
"@ @ ] ) ) @ @ ) + x 7 7 7 L.^.F l M.J.N.O.M.P.J.5 g.g.J.N.O.M.5 J.P.M.Q.J.R.O.S.}.Z c 7 7 7 R 9 - @ @ ] ) ] @ ] ) ) @ @ ] ) ] @ ] ) ) @ @ ) ) @ @ ] ) ) @ @                                             ",
"& # ) + % / ^ * + x 7 7 7 7 T.Q.i.H '.f.8.B.t.'.t.U.U.'.V.i.B.j.'.W.H (.'.X.(.H O.P 7 7 7 7 Y 6.+ > # ! + ) / , + + ' > - + = ' = + + ' ; % + ^ ' @ + . ' #                                             ",
"= , ] ! ) $ = ! + #.7 7 7 7 7 7 7 7 7 7 7 7 7 7 7 7 7 7 7 7 7 7 7 7 7 7 7 7 7 7 7 7 7 7 7 7 Y.A % , , ) - ] $ @ ! ! , , ) - @ $ @ ! ! $ = ) - = , ] ! ) $ ,                                             ",
"* + @ / ^ + ~ ; , Z.7 7 7 7 7 7 7 7 7 7 7 7 7 7 7 7 7 7 7 7 7 7 7 7 7 7 7 7 7 7 7 7 7 7 7 7 {.' ' + + = / = + - > ' + + $ / ) + ! # # + * ^ b % + ) ' ; + +                                             ",
"- % ] $ = % ! , = `. +7 7 7 7 7 7 7 7 7 7 7 7 7 7 7 7 7 7 7 7 7 7 7 7 7 7 7 7 7 7 7 7 7 7 L.K ) $ - - @ $ @ % ) , $ % - @ $ ] % ) $ $ % - = ^ ! % ] $ , % %                                             ",
"^ & ] * - > , ~ * $ 8.].C.5.R 5..+.+8 8 ++F.5.R 5..+.+R 8 @+F.Y R 5..+.+R Y @+F.Y 8 ++} d.i., ~ * & & ) * ) ; = . * ; { ! + @ ; @ . . ; ^ - + , ; ] * ~ ; &                                             ",
"& # ) + % / ^ * + > ; , = / 0.6.^ $ 9 H.# , X 0.X ^ ^ 9 }.> , Z 9 b $ & 0.A & , }.9 / = = # ^ * + > # ! + ) / , + + ' > - + = ' = + + ' ; % + ^ ' @ + . ' #                                             ",
"~ + @ # $ + % & # * * = # = + - ; > + * , # ) + ! ; ; + . $ # - + ) > { + ~ ^ # ~ + ] > $ + % & # * * = # = + - ; > + * , # ) + ! ; ; + . $ # - + ) > { + +                                             ",
"~ + @ > $ + % { # * * = # = + - & > + * , # ) + ! ; ; + . $ # - + ) > { + ~ ^ # ~ + @ > $ + % { # * * = # = + - & > + * , # ) + ! ; ; + . $ # - + ) > { + +                                             ",
"@ = ] ! ) = @ ) ! = = ] ! ] = @ ! ! = = ) ! ] = ] ! ! = = ) ! @ = ] ! ) = @ ) ! @ = ] ! ) = @ ) ! = = ] ! ] = @ ! ! = = ) ! ] = ] ! ! = = ) ! @ = ] ! ) = =                                             ",
"; ' ) + % / ^ * + # # ! + ) / , + + ' > - + = / = + + / ; ~ + ^ ' @ + . / { . + ; ' ) + % / ^ * + # # ! + ) / , + + ' > - + = / = + + / ; ~ + ^ ' @ + . / #                                             ",
"@ @ ] ] ] = @ ] ) @ @ ] ) ] = ] ] ] @ @ ] ) @ = ] ] ] = @ ] ) @ = ] ] ] = @ ] ) @ @ ] ] ] = @ ] ) @ @ ] ) ] = ] ] ] @ @ ] ) @ = ] ] ] = @ ] ) @ = ] ] ] = @                                             ",
"* + @ ' ^ + ~ ; / + + = / = + - > ' + + $ / ) + ! # # + * ^ / % + ) ' ; + . & / * + @ ' ^ + ~ ; / + + = / = + - > ' + + $ / ) + ! # # + * ^ / % + ) ' ; + +                                             ",
"! - ] , @ - ) = , - - @ , @ - ) , , - ! @ , ] - ) , , - ! @ , ) - ] , = - ! = , ! - ] , @ - ) = , - - @ , @ - ) , , - ! @ , ] - ) , , - ! @ , ) - ] , = - -                                             ",
"{ ; ] + - > $ ~ + & ; ) + ) > , . * ; & - + = > = * . > { % + $ > ] * ~ > ^ ~ + { ; ] + - > $ ~ + & ; ) + ) > , . * ; & - + = > = * . > { % + $ > ] * ~ > ;                                             ",
"& > ) + - ' $ . + ; > ! + ) ' , * + > ; - + = # = + * # & % + $ # @ + . ' { ~ + & > ) + - ' $ . + ; > ! + ) ' , * + > ; - + = # = + * # & % + $ # @ + . # >                                             "};
