/* XPM */
static char * desafio_teclas_r_xpm[] = {
"50 51 60 1",
" 	c None",
".	c #000000",
"+	c #363636",
"@	c #ADADAD",
"#	c #CACACA",
"$	c #CCCCCC",
"%	c #808080",
"&	c #F8F8F8",
"*	c #FFFFFF",
"=	c #4C4C4C",
"-	c #F9F9F9",
";	c #C8C8C8",
">	c #838383",
",	c #7E7E7E",
"'	c #B9B9B9",
")	c #C0C0C0",
"!	c #D8D8D8",
"~	c #707070",
"{	c #E4E4E4",
"]	c #1D1D1D",
"^	c #8A8A8A",
"/	c #CDCDCD",
"(	c #AEAEAE",
"_	c #484848",
":	c #AFAFAF",
"<	c #FAFAFA",
"[	c #A9A9A9",
"}	c #A5A5A5",
"|	c #EEEEEE",
"1	c #D9D9D9",
"2	c #202020",
"3	c #5B5B5B",
"4	c #D3D3D3",
"5	c #3D3D3D",
"6	c #DFDFDF",
"7	c #898989",
"8	c #989898",
"9	c #EAEAEA",
"0	c #FEFEFE",
"a	c #8E8E8E",
"b	c #F2F2F2",
"c	c #EBEBEB",
"d	c #BFBFBF",
"e	c #DDDDDD",
"f	c #222222",
"g	c #939393",
"h	c #666666",
"i	c #E6E6E6",
"j	c #D1D1D1",
"k	c #8B8B8B",
"l	c #6B6B6B",
"m	c #E1E1E1",
"n	c #7F7F7F",
"o	c #727272",
"p	c #DEDEDE",
"q	c #767676",
"r	c #7D7D7D",
"s	c #A7A7A7",
"t	c #CECECE",
"u	c #D5D5D5",
"   ............................................   ",
" ................................................ ",
" ................................................ ",
"..................................................",
"..................................................",
".......+@#$$$$$$$$$$$$$$$$$$$$$$$$$$$$$$#@+.......",
"......%&**********************************&%......",
".....=-*;>,,,,,,,,,,,,,,,,,,,,,,,,,,,,,,>;*-=.....",
".....'*)..................................)*'.....",
".....!*~..................................~*!.....",
".....{*]..^//////////$(_..................]*{.....",
".....{*]..:************<[.................]*{.....",
".....{*]..:**************}................]*{.....",
".....{*]..:**************|................]*{.....",
".....{*]..:****122223*****................]*{.....",
".....{*]..:****4....5*****................]*{.....",
".....{*]..:****4....5*****................]*{.....",
".....{*]..:****4....5*****................]*{.....",
".....{*]..:****677778*****................]*{.....",
".....{*]..:**************9................]*{.....",
".....{*]..:*************0a................]*{.....",
".....{*]..:************ba.................]*{.....",
".....{*]..:****cd|****ef..................]*{.....",
".....{*]..:****4.g****0h..................]*{.....",
".....{*]..:****4..i****j..................]*{.....",
".....{*]..:****4..k****0l.................]*{.....",
".....{*]..:****4...m****!.................]*{.....",
".....{*]..:****4...n*****o................]*{.....",
".....{*]..:****4....p****p................]*{.....",
".....{*]..:****4....q*****r...............]*{.....",
".....{*]..s****t.....u****p...............]*{.....",
".....{*]..................................]*{.....",
".....{*]..................................]*{.....",
".....{*]..................................]*{.....",
".....{*]..................................]*{.....",
".....{*]..................................]*{.....",
".....{*]..................................]*{.....",
".....{*]..................................]*{.....",
".....{*]..................................]*{.....",
".....{*]..................................]*{.....",
".....{*]..................................]*{.....",
".....!*~..................................~*!.....",
".....'*)..................................)*'.....",
".....=-*;>,,,,,,,,,,,,,,,,,,,,,,,,,,,,,,>;*-=.....",
"......%&**********************************&%......",
".......+@#$$$$$$$$$$$$$$$$$$$$$$$$$$$$$$#@+.......",
"..................................................",
"..................................................",
" ................................................ ",
" ................................................ ",
"   ............................................   "};
