/* XPM */
static const char * desafio_teclas_c_xpm[] = {
"100 100 2 1",
" 	c None",
".	c #000000",
"       ......................................................................................       ",
"     ..........................................................................................     ",
"    ............................................................................................    ",
"   ..............................................................................................   ",
"  ................................................................................................  ",
"  ................................................................................................  ",
" .................................................................................................. ",
" .................................................................................................. ",
" .................................................................................................. ",
" .................................................................................................. ",
" ...................                                                            ................... ",
" ...............                                                                    ............... ",
" .............                                                                       .............. ",
" ............                                                                          ............ ",
" ............     ................................................................     ............ ",
" ...........     ..................................................................     ........... ",
" ...........    ....................................................................    ........... ",
" ..........    ......................................................................    .......... ",
" ..........    ......................................................................    .......... ",
" ..........    ......................................................................    .......... ",
" ..........    ............                   .......................................    .......... ",
" ..........    ..........                       .....................................    .......... ",
" ..........    ........                          ....................................    .......... ",
" ..........    .......                            ...................................    .......... ",
" ..........    ......                              ..................................    .......... ",
" ..........    ......                              ..................................    .......... ",
" ..........    ......                               .................................    .......... ",
" ..........    ......          ..........           .................................    .......... ",
" ..........    ......          ...........          .................................    .......... ",
" ..........    ......          ...........          .................................    .......... ",
" ..........    ......          ......................................................    .......... ",
" ..........    ......          ......................................................    .......... ",
" ..........    ......          ......................................................    .......... ",
" ..........    ......          ......................................................    .......... ",
" ..........    ......          ......................................................    .......... ",
" ..........    ......          ......................................................    .......... ",
" ..........    ......          ......................................................    .......... ",
" ..........    ......          ......................................................    .......... ",
" ..........    ......          ......................................................    .......... ",
" ..........    ......          ......................................................    .......... ",
" ..........    ......          ......................................................    .......... ",
" ..........    ......          ......................................................    .......... ",
" ..........    ......          ......................................................    .......... ",
" ..........    ......          ......................................................    .......... ",
" ..........    ......          ......................................................    .......... ",
" ..........    ......          ......................................................    .......... ",
" ..........    ......          ......................................................    .......... ",
" ..........    ......          ......................................................    .......... ",
" ..........    ......          ......................................................    .......... ",
" ..........    ......          ...........         ..................................    .......... ",
" ..........    ......          ...........          .................................    .......... ",
" ..........    ......          ...........          .................................    .......... ",
" ..........    ......          ..........           .................................    .......... ",
" ..........    ......                              ..................................    .......... ",
" ..........    ......                              ..................................    .......... ",
" ..........    .......                             ..................................    .......... ",
" ..........    .......                            ...................................    .......... ",
" ..........    ........                          ....................................    .......... ",
" ..........    ..........                       .....................................    .......... ",
" ..........    ............                  ........................................    .......... ",
" ..........    ......................................................................    .......... ",
" ..........    ......................................................................    .......... ",
" ..........    ......................................................................    .......... ",
" ..........    ......................................................................    .......... ",
" ..........    ......................................................................    .......... ",
" ..........    ......................................................................    .......... ",
" ..........    ......................................................................    .......... ",
" ..........    ......................................................................    .......... ",
" ..........    ......................................................................    .......... ",
" ..........    ......................................................................    .......... ",
" ..........    ......................................................................    .......... ",
" ..........    ......................................................................    .......... ",
" ..........    ......................................................................    .......... ",
" ..........    ......................................................................    .......... ",
" ..........    ......................................................................    .......... ",
" ..........    ......................................................................    .......... ",
" ..........    ......................................................................    .......... ",
" ..........    ......................................................................    .......... ",
" ..........    ......................................................................    .......... ",
" ..........    ......................................................................    .......... ",
" ..........    ......................................................................    .......... ",
" ..........    ......................................................................    .......... ",
" ..........    ......................................................................    .......... ",
" ...........    ....................................................................    ........... ",
" ...........     ..................................................................     ........... ",
" ............      ..............................................................      ............ ",
" ............                                                                         ............. ",
" ..............                                                                      .............. ",
" ...............                                                                    ............... ",
" .................................................................................................. ",
" .................................................................................................. ",
" .................................................................................................. ",
" .................................................................................................. ",
" .................................................................................................. ",
"  ................................................................................................  ",
"  ................................................................................................  ",
"   ..............................................................................................   ",
"    ............................................................................................    ",
"     ..........................................................................................     ",
"        ....................................................................................        "};
