/* XPM */
static char * desafio_teclas_j_xpm[] = {
"50 50 42 1",
" 	c None",
".	c #000000",
"+	c #4F4F4F",
"@	c #BCBCBC",
"#	c #E2E2E2",
"$	c #E7E7E7",
"%	c #757575",
"&	c #F4F4F4",
"*	c #FFFFFF",
"=	c #212121",
"-	c #EFEFEF",
";	c #D6D6D6",
">	c #7F7F7F",
",	c #6E6E6E",
"'	c #929292",
")	c #E4E4E4",
"!	c #1D1D1D",
"~	c #AAAAAA",
"{	c #B5B5B5",
"]	c #313131",
"^	c #CCCCCC",
"/	c #B9B9B9",
"(	c #434343",
"_	c #ABABAB",
":	c #D5D5D5",
"<	c #8D8D8D",
"[	c #CECECE",
"}	c #696969",
"|	c #797979",
"1	c #C5C5C5",
"2	c #F7F7F7",
"3	c #6F6F6F",
"4	c #FBFBFB",
"5	c #8A8A8A",
"6	c #FDFDFD",
"7	c #C1C1C1",
"8	c #3A3A3A",
"9	c #A6A6A6",
"0	c #CDCDCD",
"a	c #D3D3D3",
"b	c #6A6A6A",
"c	c #BDBDBD",
"   ............................................   ",
"  ..............................................  ",
" ................................................ ",
" ................................................ ",
"..................................................",
".......+@#$$$$$$$$$$$$$$$$$$$$$$$$$$$$$$#@+.......",
"......%&**********************************&%......",
".....=-*;>,,,,,,,,,,,,,,,,,,,,,,,,,,,,,,>;*-=.....",
".....'*)!................................!)*'.....",
".....~*{...........]^^^^^................./*~.....",
".....~*~...........(*****.................~*~.....",
".....~*~...........(*****.................~*~.....",
".....~*~...........(*****.................~*~.....",
".....~*~...........(*****.................~*~.....",
".....~*~...........(*****.................~*~.....",
".....~*~...........(*****.................~*~.....",
".....~*~...........(*****.................~*~.....",
".....~*~...........(*****.................~*~.....",
".....~*~...........(*****.................~*~.....",
".....~*~...........(*****.................~*~.....",
".....~*~...........(*****.................~*~.....",
".....~*~...........(*****.................~*~.....",
".....~*~...........(*****.................~*~.....",
".....~*~...........(*****.................~*~.....",
".....~*~.._::::<...(*****.................~*~.....",
".....~*~..[****/}}}|*****.................~*~.....",
".....~*~..1*************2.................~*~.....",
".....~*~..34************@.................~*~.....",
".....~*~...5&*********67..................~*~.....",
".....~*~....890;;;;;a/b...................~*~.....",
".....~*~..................................~*~.....",
".....~*~..................................~*~.....",
".....~*~..................................~*~.....",
".....~*~..................................~*~.....",
".....~*~..................................~*~.....",
".....~*~..................................~*~.....",
".....~*~..................................~*~.....",
".....~*~..................................~*~.....",
".....~*~..................................~*~.....",
".....~*~..................................~*~.....",
".....~*{................................../*~.....",
".....'*)!................................!)*'.....",
".....=-*;>,,,,,,,,,,,,,,,,,,,,,,,,,,,,,,>;*-=.....",
"......%&**********************************&%......",
".......+c#$$$$$$$$$$$$$$$$$$$$$$$$$$$$$$#c+.......",
"..................................................",
" ................................................ ",
" ................................................ ",
"  ..............................................  ",
"   ............................................   "};
