/* XPM */
static char * missel_xpm[] = {
"70 70 259 2",
"  	c None",
". 	c #4C4C4C",
"+ 	c #484848",
"@ 	c #4A4A4A",
"# 	c #4B4B4B",
"$ 	c #444444",
"% 	c #464646",
"& 	c #494949",
"* 	c #414141",
"= 	c #434343",
"- 	c #454545",
"; 	c #474747",
"> 	c #3E3E3E",
", 	c #424242",
"' 	c #3B3B3B",
") 	c #3D3D3D",
"! 	c #363636",
"~ 	c #383838",
"{ 	c #3A3A3A",
"] 	c #3C3C3C",
"^ 	c #3F3F3F",
"/ 	c #333333",
"( 	c #353535",
"_ 	c #373737",
": 	c #393939",
"< 	c #404040",
"[ 	c #303030",
"} 	c #323232",
"| 	c #2B2B2B",
"1 	c #2C2C2C",
"2 	c #2F2F2F",
"3 	c #343434",
"4 	c #282828",
"5 	c #2A2A2A",
"6 	c #2D2D2D",
"7 	c #313131",
"8 	c #252525",
"9 	c #262626",
"0 	c #292929",
"a 	c #2E2E2E",
"b 	c #181818",
"c 	c #121212",
"d 	c #0D0D0D",
"e 	c #101010",
"f 	c #212121",
"g 	c #232323",
"h 	c #272727",
"i 	c #1E1E1E",
"j 	c #000000",
"k 	c #131313",
"l 	c #141414",
"m 	c #1F1F1F",
"n 	c #202020",
"o 	c #222222",
"p 	c #242424",
"q 	c #1B1B1B",
"r 	c #020202",
"s 	c #191919",
"t 	c #151515",
"u 	c #161616",
"v 	c #1D1D1D",
"w 	c #060606",
"x 	c #1A1A1A",
"y 	c #171717",
"z 	c #0A0A0A",
"A 	c #0E0E0E",
"B 	c #111111",
"C 	c #1C1C1C",
"D 	c #0F0F0F",
"E 	c #030303",
"F 	c #090909",
"G 	c #010101",
"H 	c #050505",
"I 	c #0B0B0B",
"J 	c #040404",
"K 	c #515151",
"L 	c #535353",
"M 	c #0C0C0C",
"N 	c #565656",
"O 	c #5A5A5A",
"P 	c #5E5E5E",
"Q 	c #575757",
"R 	c #080808",
"S 	c #595959",
"T 	c #626262",
"U 	c #5B5B5B",
"V 	c #4E4E4E",
"W 	c #636363",
"X 	c #5D5D5D",
"Y 	c #505050",
"Z 	c #585858",
"` 	c #5F5F5F",
" .	c #525252",
"..	c #555555",
"+.	c #606060",
"@.	c #545454",
"#.	c #616161",
"$.	c #070707",
"%.	c #4F4F4F",
"&.	c #4D4D4D",
"*.	c #5C5C5C",
"=.	c #040505",
"-.	c #0F1212",
";.	c #140C0C",
">.	c #111414",
",.	c #432F2F",
"'.	c #610F0F",
").	c #720101",
"!.	c #060B0B",
"~.	c #583434",
"{.	c #810D0D",
"].	c #780000",
"^.	c #770000",
"/.	c #050909",
"(.	c #652323",
"_.	c #B20101",
":.	c #930000",
"<.	c #7C0000",
"[.	c #080909",
"}.	c #8E3030",
"|.	c #E00000",
"1.	c #C60000",
"2.	c #AB0000",
"3.	c #8E0000",
"4.	c #7A0000",
"5.	c #2C2929",
"6.	c #943A3A",
"7.	c #DB0404",
"8.	c #D90000",
"9.	c #C30000",
"0.	c #A50000",
"a.	c #860000",
"b.	c #712F2F",
"c.	c #AD0909",
"d.	c #C20000",
"e.	c #D80000",
"f.	c #D60000",
"g.	c #BD0000",
"h.	c #9D0000",
"i.	c #7F0000",
"j.	c #232222",
"k.	c #1B1E1E",
"l.	c #461718",
"m.	c #7D0608",
"n.	c #8E0002",
"o.	c #A60001",
"p.	c #D20000",
"q.	c #B60000",
"r.	c #790000",
"s.	c #191B1B",
"t.	c #3B0D0F",
"u.	c #890B10",
"v.	c #750609",
"w.	c #790305",
"x.	c #8C0102",
"y.	c #DA0000",
"z.	c #DE0000",
"A.	c #CD0000",
"B.	c #AC0000",
"C.	c #880000",
"D.	c #1E2222",
"E.	c #6F3F41",
"F.	c #C11A23",
"G.	c #A3131A",
"H.	c #870C11",
"I.	c #76060A",
"J.	c #780305",
"K.	c #A70001",
"L.	c #C40000",
"M.	c #DB0000",
"N.	c #DD0000",
"O.	c #A10000",
"P.	c #800000",
"Q.	c #101514",
"R.	c #6C4B4D",
"S.	c #DB313A",
"T.	c #DA202A",
"U.	c #C51C24",
"V.	c #A8151C",
"W.	c #8A0D12",
"X.	c #78070B",
"Y.	c #770405",
"Z.	c #890103",
"`.	c #BF0000",
" +	c #960000",
".+	c #020303",
"++	c #231516",
"@+	c #B22E35",
"#+	c #E1222C",
"$+	c #E0212B",
"%+	c #DC212A",
"&+	c #CB1D26",
"*+	c #AE161E",
"=+	c #900E14",
"-+	c #7A080C",
";+	c #760306",
">+	c #880103",
",+	c #C70000",
"'+	c #D5202A",
")+	c #DF212B",
"!+	c #DD212B",
"~+	c #D11E28",
"{+	c #B51820",
"]+	c #971116",
"^+	c #7D090D",
"/+	c #760407",
"(+	c #860103",
"_+	c #A50001",
":+	c #C80000",
"<+	c #D30000",
"[+	c #A80000",
"}+	c #D72029",
"|+	c #BD1A22",
"1+	c #9E1219",
"2+	c #820B0F",
"3+	c #750508",
"4+	c #840204",
"5+	c #A40001",
"6+	c #C90000",
"7+	c #CA0000",
"8+	c #760000",
"9+	c #DB212B",
"0+	c #C71C25",
"a+	c #A8141C",
"b+	c #880C11",
"c+	c #770609",
"d+	c #810204",
"e+	c #A20001",
"f+	c #BA0000",
"g+	c #750000",
"h+	c #DE212B",
"i+	c #D21F28",
"j+	c #B61821",
"k+	c #920F15",
"l+	c #79070B",
"m+	c #7E0305",
"n+	c #A00101",
"o+	c #A30000",
"p+	c #C61C25",
"q+	c #A1131A",
"r+	c #7F0A0E",
"s+	c #7B0305",
"t+	c #9E0102",
"u+	c #D00000",
"v+	c #8C0000",
"w+	c #D51F29",
"x+	c #B41820",
"y+	c #890C12",
"z+	c #790407",
"A+	c #9B0102",
"B+	c #D10000",
"C+	c #C50000",
"D+	c #C61C24",
"E+	c #991117",
"F+	c #7A070A",
"G+	c #980103",
"H+	c #D52029",
"I+	c #AA151D",
"J+	c #7B080B",
"                                            .                                                                                               ",
"                                          + @ #                                                                                             ",
"                                          $ % + &                                                                                           ",
"                                          * = - ; &                                                                                         ",
"                                          > * , $ - %                                                                                       ",
"                                          ' ) > * , $ -                                                                                     ",
"                                        ! ~ { ] ) ^ * = $                                                                                   ",
"                                        / ( _ : { ] > < , ,                                                                                 ",
"                                        [ } / ( _ : ' ) ^ * *                                                                               ",
"                                      | 1 2 [ } 3 ! ~ : ' ) ^ <                                                                             ",
"                                      4 5 | 6 2 7 / 3 ! ~ { ] )                                                                             ",
"                                      8 9 0 5 1 a [ } / ( _ : 2                                                                             ",
"                              b c d e f g 8 h 0 5 6 a [ } / _ i j                                                                           ",
"                            g i b k l m n o p 8 4 0 | 6 a 7 } q r                                                                           ",
"                          6 0 g i s t u v m f g p 9 4 5 1 6 a b w                                                                           ",
"                        } 7 a 0 p i x t k s v m o g 8 h 4 | 5 y z                                                                           ",
"                        } } 7 a 0 p m q u c l s i n f g 9 h h y A                                                                           ",
"                        } } } [ 6 0 p m q y c B l q m n o p g y B                                                                           ",
"                        6 6 } } [ 6 0 p n C y l e D x v m f f b                                                                             ",
"                  | 4 8 f v 5 / } [ 6 0 p n C y b p } | i i m q                                                                             ",
"            ! / [ 1 5 h p n i [ } } [ 6 0 p f o 8 g 3 ] _ 8 i s                                                                             ",
"  + $ * > ' ~ ( } 2 | 0 8 o m g } } } [ 6 5 0 u E k 9 : = = : 5 C                                                                           ",
". @ % = * ) { _ / [ 6 5 h p f i 5 / } } [ 4 m F G H l 4 ) @ . = / o                                                                         ",
"  # + - , > ] : ( } 2 1 0 8 g m f [ } } 9 g 4 x I G J l 0 * K L @ ] 5                                                                       ",
"    @ ; $ * ) { ~ 3 7 a 5 4 p o v 4 } | B / 3 5 C M r J l 5 = N O L $ a                                                                     ",
"      & - , ^ ] : ! / [ 6 0 9 g n m [ x l 0 ! ~ 6 v M r J k 5 - O P Q & 7                                                                   ",
"        % $ * > ' ~ 3 } a | 4 8 o v p w R x 2 ' ] 7 m A r E c 5 $ S T U V 3 m                                                               ",
"          - = < ) : ! / [ 6 5 h g n v z r d f 3 ^ ^ } n A E E B 0 , S W X Y : n                                                             ",
"            $ , ^ ' ~ ( } a 1 4 9 o m q J w k h { = * 3 f D E r e 4 * Z W P K ] g                                                           ",
"              , * ) { _ / 7 6 | h p f i k E I x 6 > - , ( o e J r D 8 ^ N W `  .> o                                                         ",
"                * ^ ] : _ } a 5 h g f m l J F B n / , + $ ! g B E E A p ) ..W +.L > g                                                       ",
"                  < ) 2 i q b y y y b q A E R d u 8 _ $ & % _ p B H r A g ] @.T #.@.< p                                                     ",
"                        j r w z A B       r H I B x 5 : - # ; ~ p B H r d o {  .T #...* h                                                   ",
"                                            r $.A l v 1 ' % # ; _ p c H r M f : K T #.@., h                                                 ",
"                                              J F D u n a ] % # ; _ p c H r M m : K #.#...= 9                                               ",
"                                                H I B b f a ] % # ; _ 8 k H r I m ~ K #.#.N , 8                                             ",
"                                                  w M c b o [ ) ; # % _ 8 k H r I m _ Y #.T N = h                                           ",
"                                                    w d c b o 2 ) ; # % _ 8 k H r I m ! %.#.T Q $ 5                                         ",
"                                                    r w d k b o [ ) ; # % _ 8 k H r z v ! V +.T N - 5                                       ",
"                                                      E R d k s g [ ) ; # % _ 8 k H G z v ( &.+.T Q - h                                     ",
"                                                        E R A k s g [ ) ; # ; _ 8 k H G F C 3 &.` T Z - h                                   ",
"                                                          E R A k s g 7 > ; # % ~ 8 k H r F C / # P W Z % 0                                 ",
"                                                            E R A k s g [ > + # % ~ 9 l H G F q } @ P T Z ; 1                               ",
"                                                              E F A k s g [ > ; # % ~ 9 l H G F x 7 & X W Z ; |                             ",
"                                                                E F A k s g 7 > + # % ~ 9 l w G F x [ & X T Z - 9                           ",
"                                                                  E F A k s g 7 > + # % ~ 9 l w G R s [ ; *.#.N * o                         ",
"                                                                    E R A k s p 7 > + # % ~ 9 l w G R s 2 - Q *.Y : C                       ",
"                                                                      E R A l s p 7 > + # % ~ 9 l w G R b 6 * Y  .% [ t                     ",
"                                                                        E F A l s p 7 > + # % ~ 9 l w G w u 0 : % - _ f M                   ",
"                                                                          J F A l x p } > + # % ~ 9 l H j w l g 2 _ / 8 c =.                ",
"                                                                            E F A k x p 7 > + # % _ p c H G H e x o 8 q -.;.                ",
"                                                                              J F A l x p 7 > ; @ $ ( o B H j J I c c >.,.'.).              ",
"                                                                                J F A l x p 7 ) - ; < [ n e E G r H !.~.{.].^.^.            ",
"                                                                                  E F A l x p [ ' , * { | q d E j /.(._.:.<.^.^.^.          ",
"                                                                                    J F A k s o 6 ! ] ' } p u [.y }.|.1.2.3.4.^.^.          ",
"                                                                                      E R A k s f 5 7 3 } 0 q 5.6.7.|.8.9.0.a.^.^.^.        ",
"                                                                                        E R D l x m 9 5 5 8 8 b.c.d.e.|.f.g.h.i.^.^.        ",
"                                                                                          E F e t s v f j.k.l.m.n.o.d.8.|.p.q.:.r.^.^.      ",
"                                                                                            E F B u s q s.t.u.v.w.x.o.9.y.z.A.B.C.^.^.      ",
"                                                                                              E z B t D.E.F.G.H.I.J.x.K.L.M.N.1.O.P.^.^.    ",
"                                                                                                E z Q.R.S.T.U.V.W.X.Y.Z.K.1.N.M.`. +4.^.    ",
"                                                                                                  .+++@+#+$+%+&+*+=+-+;+>+o.,+N.e.q.C.^.^.  ",
"                                                                                                      '+$+)+)+!+~+{+]+^+/+(+_+:+z.<+[+<.^.  ",
"                                                                                                        )+)+)+)+)+}+|+1+2+3+4+5+6+z.7+:.8+  ",
"                                                                                                          )+)+)+)+$+9+0+a+b+c+d+e+7+N.f+i.g+",
"                                                                                                              )+)+)+)+h+i+j+k+l+m+n+A.8.o+g+",
"                                                                                                                  )+)+)+$+T.p+q+r+s+t+u+u+v+",
"                                                                                                                      )+)+)+h+w+x+y+z+A+B+C+",
"                                                                                                                          )+)+)+!+D+E+F+G+B+",
"                                                                                                                                $+#+H+I+J+  "};
