/* XPM */
static const char * player_green_xpm[] = {
"77 129 81 1",
" 	c None",
".	c #FFFFFF",
"+	c #EEEEEE",
"@	c #EDEDED",
"#	c #FF0000",
"$	c #007F3F",
"%	c #F3F3F3",
"&	c #FAFAFA",
"*	c #F6F6F6",
"=	c #FBFBFB",
"-	c #F1F1F1",
";	c #007D3B",
">	c #00772E",
",	c #007830",
"'	c #F6F3F5",
")	c #007B37",
"!	c #007A34",
"~	c #EDF3F3",
"{	c #FFF6F6",
"]	c #FFD4D4",
"^	c #007427",
"/	c #EDF8F8",
"(	c #F8FFFF",
"_	c #FFB2B2",
":	c #FFDBDB",
"<	c #158549",
"[	c #FF2828",
"}	c #A5CBB5",
"|	c #FF3737",
"1	c #FFC6C6",
"2	c #FFEDED",
"3	c #FE2020",
"4	c #ABCEBA",
"5	c #F2C1C1",
"6	c #FF5B5B",
"7	c #FFBFBF",
"8	c #FF6969",
"9	c #D3E2DA",
"0	c #FF7979",
"a	c #FFA8A8",
"b	c #F69494",
"c	c #DEEDE5",
"d	c #419564",
"e	c #FF9F9F",
"f	c #FFE4E4",
"g	c #FF8C8C",
"h	c #FF5353",
"i	c #EED9D9",
"j	c #E3E9E6",
"k	c #EEE3E3",
"l	c #FC3D3D",
"m	c #BEDACA",
"n	c #5EA37B",
"o	c #7CB393",
"p	c #F0CFCF",
"q	c #F5A0A0",
"r	c #F96A6A",
"s	c #F78585",
"t	c #FF4949",
"u	c #C6D9CE",
"v	c #FF1313",
"w	c #8DBDA1",
"x	c #FA5E5E",
"y	c #539D73",
"z	c #FF8989",
"A	c #318E59",
"B	c #97BDA7",
"C	c #7AB290",
"D	c #4A9466",
"E	c #B6CFC1",
"F	c #58A177",
"G	c #89BA9D",
"H	c #D0E6DA",
"I	c #F69090",
"J	c #AAC8B7",
"K	c #F2B8B8",
"L	c #FD3030",
"M	c #6AA581",
"N	c #FF7777",
"O	c #2A8D55",
"P	c #F0CACA",
"                                       d>>,,>^<                              ",
"                                     A>;$$$$$$;!,                            ",
"                                    ,;$$$$$$$$$$$>                           ",
"                                   !;$$$$$$$$$$$$$>                          ",
"                                  A;$$$$$$$$$$$$$$$^                         ",
"                                  >$$$$$$$$$$$$$$$$)d                        ",
"                                 A;$$$$$$$$$$$$$$$$$>                        ",
"                                 ^$$$$$$$$$$$$$$$$$$!                        ",
"                                 ,$$$$$$$$$$$$$$$$$$;d                       ",
"                                 !$$$$$$$$$$$$$$$$$$;$                       ",
"                                 !$$$$$$$$$$$$$$$$$$$)                       ",
"                                 !$$$$$$$$$$$$$$$$$$;<                       ",
"                                 >$$$$$$$$$$$$$$$$$$)                        ",
"                                 >$$$$$$$$$$$$$$$$$$,                        ",
"                                  )$$$$$$$$$$$$$$$$$;                        ",
"                                  >$$$$$$$$$$$$$$$$!                         ",
"                                   >$$$$$$$$$$$$$$;<                         ",
"                                   y,$$$$$$$$$$$$;;                          ",
"                                     ^;$$$$$$$$$,<                           ",
"                                      <>);$$;),)                             ",
"                                         O;$$y                               ",
"                                                                             ",
"                                                                             ",
"                                      FDD                                    ",
"                                   <^!);;),^                                 ",
"                                 D>;$$$$$$$$)>                               ",
"                                $)$$$$$$$$$$$$^                              ",
"                               ^;$$$$$$$$$$$$$$>                             ",
"                              >$$$$$$$$$$$$$$$$$^                            ",
"                            d,$$$$$$$$$$$$$$$$$$;d                           ",
"                           <)$$$$$$$$$$$$$$$$$$$$>                           ",
"                          >;$$$$$$$$$$$$$$$$$$$$$;A                          ",
"                         ^$$$$$$$$$$$$$$$$$$$$$$$$>                          ",
"                       y,$$$$$$$$$$$$$$$$$$$$$$$$$;A                         ",
"                      <)$$$$$$$$$$$$$$$$$$$$$$$$$$$^                         ",
"                     ,;$$$$$$$$$$$$$$$$$$$$$$$$$$$$;A                        ",
"                    ^;$$$$$$$$$$$$$$$$$$$$$$$$$$$$$$>                        ",
"                  y>$$$$$$$$$$$$$$$$$$$$$$$$$$$$$$$$;O                       ",
"                 A!$$$$$$$$$$$$$$$$$$$$$$$$$$$$$$$$$$>                       ",
"                !)$$$$$$$$$$$$$$$$$$$$$$$$$$$$$$$$$$$;A                      ",
"               >;$$$$$$$$$$$$$$$$$$$$$$$$$$$$$$$$$$$$$>                      ",
"              >$$$$$$$$$$$$$$$$$$$$$$$$$$$$$$$$$$$$$$$;O                     ",
"            A!$$$$$$$$$$$$$$$$$$$$$$$$$$$$$$$$$$$$$$$$$>                     ",
"           <)$$$$$$$$$$$$);$$$$$$$$$$$$$$$$$$$$$$$$$$$$;O                    ",
"           ,$$$$$$$$$$$$> F;$$$$$$$$$$$$$$$$$$$$$$$$$$$$>                    ",
"          ,$$$$$$$$$$$$>  $;$$$$$$$$$$$$$$$$$$$$$$$$$$$$;O                   ",
"          ^$$$$$$$$$$;>   >$$$$$$$$$$$$$$$$$$$$$$$$$$$$$$>                   ",
"          ,$$$$$$$$$)<    ,$$$$$$$$$$$$$$$$$$$$$$$$$$$$$$;$                  ",
"          )$$$$$$$$,d     !$$$$$$$$$$$$$$$$$$$;d !$$$$$$$$>                  ",
"         O;$$$$$$$,      d;$$$$$$$$$$$$$$$$$$$)  ,$$$$$$$$;<                 ",
"         !$$$$$$$)y      !$$$$$$$$$$$$$$$$$$$$,   ,$$$$$$$$)y                ",
"         ,$$$$$$$!       >$$$$$$$$$$$$$$$$$$$$^   $;$$$$$$$$)$               ",
"         )$$$$$$$>       !$$$$$$$$$$$$$$$$$$$;<    ,$$$$$$$$$;^              ",
"        O;$$$$$$$>      D;$$$$$$$$$$$$$$$$$$$)     ;;$$$$$$$$$$!<            ",
"        ^$$$$$$$;$      <;$$$$$$$$$$$$$$$$$$$,      ,$$$$$$$$$$$;>           ",
"        >$$$$$$$)       ,$$$$$$$$$$$$$$$$$$$$>      $;$$$$$$$$$$$$,<         ",
"        ,$$$$$$$,       ,$$$$$$$$$$$$$$$$$$$$!       ,;$$$$$$$$$$$$;,        ",
"       y)$$$$$$$>       )$$$$$$$$$$$$$$$$$$$;d        <,$$$$$$$$$$$$$,d      ",
"       <;$$$$$$;$      O;$$$$$$$$$$$$$$$$$$$!           >;$$$$$$$$$$$$)>     ",
"       >$$$$$$$;d      ^$$$$$$$$$$$$$$$$$$$$>            ;!$$$$$$$$$$$$$>D   ",
"       ,$$$$$$$)       >$$$$$$$$$$$$$$$$$$$$!              ^;$$$$$$$$$$$$)^  ",
"       )$$$$$$$,       !$$$$$$$$$$$$$$$$$$$;A               $)$$$$$$$$$$$$;, ",
"      O;$$$$$$$^      D;$$$$$$$$$$$$$$$$$$$)                 F>;$$$$$$$$$$$) ",
"      ;$$$$$$$;<      <;$$$$$$$$$$$$$$$$$$$,                   ))$$$$$$$$$$$)",
"      >$$$$$$$)       >$$$$$$$$$$$$$$$$$$$$^                    d>$$$$$$$$$$>",
"      !$$$$$$$,       ,$$$$$$$$$$$$$$$$$$$$)                      ,;$$$$$$$;A",
"      )$$$$$$$>       )$$$$$$$$$$$$$$$$$$$)y                       A,$$$$$$> ",
"     d;$$$$$$$;      $;$$$$$$$$$$$$$$$$$$$!                          ^);;;^  ",
"      )$$$$$$;D      >$$$$$$$$$$$$$$$$$$$$,                            O<d   ",
"      >$$$$$$^       >$$$$$$$$$$$$$$$$$$$$!                                  ",
"      D,$$$$>        !$$$$$$$$$$$$$$$$$$$$$^                                 ",
"        >>>,        D;$$$$$$$$$$$$$$$$$$$$$$)                                ",
"                    )$$$$$$$$$$$$$$$$$$$$$$$;$                               ",
"                    >$$$$$$$$$$$$$$$$$$$$$$$$)A                              ",
"                    !$$$$$$$$$$$$$$$$$$$$$$$$$!                              ",
"                   y)$$$$$$$$$$$$$$$$$$$$$$$$$$,                             ",
"                   <;$$$$$$$$$$$$$$$$$$$$$$$$$$$>                            ",
"                   !$$$$$$$$$$$$$$$$$$$$$$$$$$$$$,                           ",
"                   ,$$$$$$$$$$$$$$$$$$$$$$$$$$$$$;!                          ",
"                   )$$$$$$$$$$$$$$$$$$$$$$$$$$$$$$;<                         ",
"                  A;$$$$$$$$$$$$$);$$$$$$$$$$$$$$$$)D                        ",
"                  ^$$$$$$$$$$$$$) $;$$$$$$$$$$$$$$$$,                        ",
"                  >$$$$$$$$$$$$$,  >$$$$$$$$$$$$$$$$$>                       ",
"                  !$$$$$$$$$$$$;$   ^$$$$$$$$$$$$$$$$$>                      ",
"                 y)$$$$$$$$$$$$;d    >$$$$$$$$$$$$$$$$$!                     ",
"                 <;$$$$$$$$$$$$!      ^$$$$$$$$$$$$$$$$;$                    ",
"                 >$$$$$$$$$$$$$>       >$$$$$$$$$$$$$$$$)O                   ",
"                 ,$$$$$$$$$$$$$>        ,$$$$$$$$$$$$$$$$!y                  ",
"                 )$$$$$$$$$$$$;A        F,$$$$$$$$$$$$$$$$,                  ",
"                <;$$$$$$$$$$$$)          d)$$$$$$$$$$$$$$$$>                 ",
"                ,$$$$$$$$$$$$$!           O)$$$$$$$$$$$$$$$$>                ",
"                >$$$$$$$$$$$$$>            <;$$$$$$$$$$$$$$$;>               ",
"                !$$$$$$$$$$$$$^             ;;$$$$$$$$$$$$$$$)               ",
"               y)$$$$$$$$$$$$;A              );$$$$$$$$$$$$$$$;              ",
"               ;$$$$$$$$$$$$$!                >;$$$$$$$$$$$$$$>              ",
"               >$$$$$$$$$$$$$,                 >$$$$$$$$$$$$$$,              ",
"              <;$$$$$$$$$$$$$!                  ^$$$$$$$$$$$$$)              ",
"              !$$$$$$$$$$$$$;<                   ,$$$$$$$$$$$$;<             ",
"             ^$$$$$$$$$$$$$$!                    <;$$$$$$$$$$$$>             ",
"            y)$$$$$$$$$$$$$$!                     )$$$$$$$$$$$$>             ",
"            >$$$$$$$$$$$$$$!                      ,$$$$$$$$$$$$,             ",
"           <;$$$$$$$$$$$$$;$                      >$$$$$$$$$$$$)             ",
"           !$$$$$$$$$$$$$$>                       )$$$$$$$$$$$$;D            ",
"          ,$$$$$$$$$$$$$$)d                       O;$$$$$$$$$$$$$            ",
"         F)$$$$$$$$$$$$$$^                        y)$$$$$$$$$$$$>            ",
"         >$$$$$$$$$$$$$$!                          !$$$$$$$$$$$$,            ",
"        <;$$$$$$$$$$$$$;$                          ,$$$$$$$$$$$$)            ",
"        ,$$$$$$$$$$$$$$>                           ^$$$$$$$$$$$$;d           ",
"       )$$$$$$$$$$$$$$;d                           $;$$$$$$$$$$$;<           ",
"      y)$$$$$$$$$$$$$$^                            y;$$$$$$$$$$$$!           ",
"      >$$$$$$$$$$$$$$!                              !$$$$$$$$$$$$>           ",
"     O;$$$$$$$$$$$$$;$                              ,$$$$$$$$$$$$!           ",
"     ,$$$$$$$$$$$$$$>                               ,$$$$$$$$$$$$)           ",
"    );$$$$$$$$$$$$$;O                               $;$$$$$$$$$$$;<          ",
"   F)$$$$$$$$$$$$$$>                                A;$$$$$$$$$$$$^          ",
"   ^$$$$$$$$$$$$$$!                                  )$$$$$$$$$$$$>          ",
"  O;$$$$$$$$$$$$$;)                                  ,$$$$$$$$$$$$,          ",
"  ,$$$$$$$$$$$$$$>                                   ^$$$$$$$$$$$$)          ",
" );$$$$$$$$$$$$$;<                                   ;$$$$$$$$$$$$;d         ",
" ,$$$$$$$$$$$$$$>                                    d;$$$$$$$$$$$$$         ",
"d;$$$$$$$$$$$$$)                                      )$$$$$$$$$$$$>         ",
",$$$$$$$$$$$$$$>                                      !$$$$$$$$$$$$,         ",
">$$$$$$$$$$$$$,                                       >$$$$$$$$$$$$,         ",
"<;$$$$$$$$$$$;O                                       ^$$$$$$$$$$$$>         ",
" !$$$$$$$$$$$^                                         )$$$$$$$$$$;<         ",
" >$$$$$$$$$$)                                          ^$$$$$$$$$$,          ",
"  ^$$$$$$$$)$                                           >$$$$$$$$)<          ",
"   ^;$$$$;,O                                             >;$$$$;,O           ",
"    A,>>>$                                                <,,,>;             "};
