/* XPM */
static const char * player_red_xpm[] = {
"77 129 8 1",
" 	c None",
".	c #FF0000",
"+	c #FF2828",
"@	c #FF1313",
"#	c #FF3737",
"$	c #FE2020",
"%	c #FC3D3D",
"&	c #FD3030",
"                                        ......+                              ",
"                                      ...........                            ",
"                                    ..............                           ",
"                                   @...............                          ",
"                                   .................                         ",
"                                  ..................#                        ",
"                                  ...................                        ",
"                                 ....................                        ",
"                                 ....................#                       ",
"                                 .....................                       ",
"                                 .....................                       ",
"                                 .....................                       ",
"                                 ....................                        ",
"                                 ....................                        ",
"                                  ...................                        ",
"                                  ..................                         ",
"                                   .................                         ",
"                                    ...............                          ",
"                                     .............                           ",
"                                      ..........                             ",
"                                         $...%                               ",
"                                                                             ",
"                                                                             ",
"                                                                             ",
"                                    ........                                 ",
"                                  ............                               ",
"                                &..............                              ",
"                               .................                             ",
"                              ...................                            ",
"                             ....................%                           ",
"                           &......................                           ",
"                          ........................&                          ",
"                         ..........................                          ",
"                        ...........................#                         ",
"                       .............................                         ",
"                     ...............................&                        ",
"                    .................................                        ",
"                   ..................................+                       ",
"                 %....................................                       ",
"                @.....................................&                      ",
"               ........................................                      ",
"              .........................................@                     ",
"             ...........................................                     ",
"           #............................................+                    ",
"           ..............  ..............................                    ",
"          ..............  +..............................$                   ",
"          .............   ................................                   ",
"          ............    ................................@                  ",
"          ..........$     .....................& ..........                  ",
"         %.........       .....................  ..........$                 ",
"         .........#      ......................   ..........                 ",
"         .........       ......................   ............               ",
"         .........       ......................    ............              ",
"         .........       .....................     .............$            ",
"        ..........      &.....................      ..............           ",
"        .........       ......................      ...............#         ",
"        .........       ......................       ................        ",
"        .........       .....................@        ................       ",
"       &.........      %.....................           ................     ",
"       .........&      ......................            ................    ",
"       .........       ......................              ................  ",
"       .........       .....................$               ................ ",
"       .........       .....................                  .............. ",
"      @.........      +.....................                   ..............",
"      .........       ......................                    &............",
"      .........       ......................                      ..........+",
"      .........       .....................                        +........ ",
"      .........      &.....................                          ......  ",
"      ........+      ......................                            ...   ",
"      ........       ......................                                  ",
"       ......%       .......................                                 ",
"        ....         ........................                                ",
"                    ..........................                               ",
"                    ..........................%                              ",
"                    ...........................                              ",
"                    ............................                             ",
"                   #.............................                            ",
"                   ...............................                           ",
"                   ................................                          ",
"                   ................................$                         ",
"                  %.................................                         ",
"                  ............... ...................                        ",
"                  ...............  ...................                       ",
"                  ...............   ...................                      ",
"                  ..............$    ...................                     ",
"                 +..............      ..................@                    ",
"                 ...............       ..................#                   ",
"                 ...............        ..................                   ",
"                 ..............$         ..................                  ",
"                &..............          &..................                 ",
"                ...............           &..................                ",
"                ...............            ...................               ",
"                ...............             ..................               ",
"                ..............$              ..................              ",
"               ...............                .................              ",
"               ...............                 ................              ",
"              #...............                  ...............              ",
"              ................                   ...............             ",
"             ................                    +..............             ",
"             ................                     ..............             ",
"            ................                      ..............             ",
"           %................                      ..............             ",
"           ................                       ..............%            ",
"          ................+                       #..............            ",
"          ................                         ..............            ",
"         ................                          ..............            ",
"        #................                          ..............            ",
"        ................                           ..............#           ",
"       ................$                           ...............           ",
"       ................                             ..............           ",
"      ................                              ..............           ",
"     #................                              ..............           ",
"     ................                               ..............           ",
"    ................@                               $.............@          ",
"    ................                                %..............          ",
"   ................                                  ..............          ",
"  %................                                  ..............          ",
"  ................                                   ..............          ",
" .................                                   ..............&         ",
" ................                                     ..............         ",
" ...............%                                     ..............         ",
"................                                      ..............         ",
"...............                                       ..............         ",
"@..............                                       ..............         ",
" .............                                         .............         ",
" ............%                                         ............          ",
"  ...........                                           ...........          ",
"   .........                                             .........           ",
"    +.....                                                ......             "};
