/* XPM */
static const char * player_green_xpm[] = {
"78 129 11 1",
" 	c None",
".	c #00772E",
"+	c #007830",
"@	c #007427",
"#	c #158549",
"$	c #318E59",
"%	c #007D3B",
"&	c #007F3F",
"*	c #007A34",
"=	c #007B37",
"-	c #2A8D55",
"                                        ..++.@#                               ",
"                                     $.%&&&&&&%*+                             ",
"                                    +%&&&&&&&&&&&.                            ",
"                                   *%&&&&&&&&&&&&&.                           ",
"                                  $%&&&&&&&&&&&&&&&@                          ",
"                                  .&&&&&&&&&&&&&&&&=                          ",
"                                 $%&&&&&&&&&&&&&&&&&.                         ",
"                                 @&&&&&&&&&&&&&&&&&&*                         ",
"                                 +&&&&&&&&&&&&&&&&&&%                         ",
"                                 *&&&&&&&&&&&&&&&&&&%&                        ",
"                                 *&&&&&&&&&&&&&&&&&&&=                        ",
"                                 *&&&&&&&&&&&&&&&&&&%#                        ",
"                                 .&&&&&&&&&&&&&&&&&&=                         ",
"                                 .&&&&&&&&&&&&&&&&&&+                         ",
"                                  =&&&&&&&&&&&&&&&&&%                         ",
"                                  .&&&&&&&&&&&&&&&&*                          ",
"                                   .&&&&&&&&&&&&&&%#                          ",
"                                    +&&&&&&&&&&&&%%                           ",
"                                     @%&&&&&&&&&+#                            ",
"                                      #.=%&&%=+=                              ",
"                                         -%&&                                 ",
"                                                                              ",
"                                                                              ",
"                                                                              ",
"                                   #@*=%%=+@                                  ",
"                                  .%&&&&&&&&=.                                ",
"                                &=&&&&&&&&&&&&@                               ",
"                               @%&&&&&&&&&&&&&&.                              ",
"                              .&&&&&&&&&&&&&&&&&@                             ",
"                             +&&&&&&&&&&&&&&&&&&%                             ",
"                           #=&&&&&&&&&&&&&&&&&&&&.                            ",
"                          .%&&&&&&&&&&&&&&&&&&&&&%$                           ",
"                         @&&&&&&&&&&&&&&&&&&&&&&&&.                           ",
"                        +&&&&&&&&&&&&&&&&&&&&&&&&&%$                          ",
"                      #=&&&&&&&&&&&&&&&&&&&&&&&&&&&@                          ",
"                     +%&&&&&&&&&&&&&&&&&&&&&&&&&&&&%$                         ",
"                    @%&&&&&&&&&&&&&&&&&&&&&&&&&&&&&&.                         ",
"                   .&&&&&&&&&&&&&&&&&&&&&&&&&&&&&&&&%-                        ",
"                 $*&&&&&&&&&&&&&&&&&&&&&&&&&&&&&&&&&&.                        ",
"                *=&&&&&&&&&&&&&&&&&&&&&&&&&&&&&&&&&&&%$                       ",
"               .%&&&&&&&&&&&&&&&&&&&&&&&&&&&&&&&&&&&&&.                       ",
"              .&&&&&&&&&&&&&&&&&&&&&&&&&&&&&&&&&&&&&&&%-                      ",
"            $*&&&&&&&&&&&&&&&&&&&&&&&&&&&&&&&&&&&&&&&&&.                      ",
"           #=&&&&&&&&&&&&=%&&&&&&&&&&&&&&&&&&&&&&&&&&&&%-                     ",
"           +&&&&&&&&&&&&.  %&&&&&&&&&&&&&&&&&&&&&&&&&&&&.                     ",
"          +&&&&&&&&&&&&.  &%&&&&&&&&&&&&&&&&&&&&&&&&&&&&%-                    ",
"          @&&&&&&&&&&%.   .&&&&&&&&&&&&&&&&&&&&&&&&&&&&&&.                    ",
"          +&&&&&&&&&=#    +&&&&&&&&&&&&&&&&&&&&&&&&&&&&&&%&                   ",
"          =&&&&&&&&+      *&&&&&&&&&&&&&&&&&&&%  *&&&&&&&&.                   ",
"         -%&&&&&&&+       %&&&&&&&&&&&&&&&&&&&=  +&&&&&&&&%#                  ",
"         *&&&&&&&=       *&&&&&&&&&&&&&&&&&&&&+   +&&&&&&&&=                  ",
"         +&&&&&&&*       .&&&&&&&&&&&&&&&&&&&&@   &%&&&&&&&&=&                ",
"         =&&&&&&&.       *&&&&&&&&&&&&&&&&&&&%#    +&&&&&&&&&%@               ",
"        -%&&&&&&&.       %&&&&&&&&&&&&&&&&&&&=     %%&&&&&&&&&&*#             ",
"        @&&&&&&&%&      #%&&&&&&&&&&&&&&&&&&&+      +&&&&&&&&&&&%.            ",
"        .&&&&&&&=       +&&&&&&&&&&&&&&&&&&&&.      &%&&&&&&&&&&&&+#          ",
"        +&&&&&&&+       +&&&&&&&&&&&&&&&&&&&&*       +%&&&&&&&&&&&&%+         ",
"        =&&&&&&&.       =&&&&&&&&&&&&&&&&&&&%         #+&&&&&&&&&&&&&+        ",
"       #%&&&&&&%&      -%&&&&&&&&&&&&&&&&&&&*           .%&&&&&&&&&&&&=.      ",
"       .&&&&&&&%       @&&&&&&&&&&&&&&&&&&&&.            %*&&&&&&&&&&&&&.     ",
"       +&&&&&&&=       .&&&&&&&&&&&&&&&&&&&&*              @%&&&&&&&&&&&&=@   ",
"       =&&&&&&&+       *&&&&&&&&&&&&&&&&&&&%$               &=&&&&&&&&&&&&%+  ",
"      -%&&&&&&&@       %&&&&&&&&&&&&&&&&&&&=                  .%&&&&&&&&&&&=  ",
"      %&&&&&&&%#      #%&&&&&&&&&&&&&&&&&&&+                   ==&&&&&&&&&&&= ",
"      .&&&&&&&=       .&&&&&&&&&&&&&&&&&&&&@                     .&&&&&&&&&&. ",
"      *&&&&&&&+       +&&&&&&&&&&&&&&&&&&&&=                      +%&&&&&&&%$ ",
"      =&&&&&&&.       =&&&&&&&&&&&&&&&&&&&=                        $+&&&&&&.  ",
"      %&&&&&&&%      &%&&&&&&&&&&&&&&&&&&&*                          @=%%%@   ",
"      =&&&&&&%       .&&&&&&&&&&&&&&&&&&&&+                            -#     ",
"      .&&&&&&@       .&&&&&&&&&&&&&&&&&&&&*                                   ",
"       +&&&&.        *&&&&&&&&&&&&&&&&&&&&&@                                  ",
"        ...+         %&&&&&&&&&&&&&&&&&&&&&&=                                 ",
"                    =&&&&&&&&&&&&&&&&&&&&&&&%&                                ",
"                    .&&&&&&&&&&&&&&&&&&&&&&&&=$                               ",
"                    *&&&&&&&&&&&&&&&&&&&&&&&&&*                               ",
"                    =&&&&&&&&&&&&&&&&&&&&&&&&&&+                              ",
"                   #%&&&&&&&&&&&&&&&&&&&&&&&&&&&.                             ",
"                   *&&&&&&&&&&&&&&&&&&&&&&&&&&&&&+                            ",
"                   +&&&&&&&&&&&&&&&&&&&&&&&&&&&&&%*                           ",
"                   =&&&&&&&&&&&&&&&&&&&&&&&&&&&&&&%#                          ",
"                  $%&&&&&&&&&&&&&=%&&&&&&&&&&&&&&&&=                          ",
"                  @&&&&&&&&&&&&&= &%&&&&&&&&&&&&&&&&+                         ",
"                  .&&&&&&&&&&&&&+  .&&&&&&&&&&&&&&&&&.                        ",
"                  *&&&&&&&&&&&&%&   @&&&&&&&&&&&&&&&&&.                       ",
"                  =&&&&&&&&&&&&%     .&&&&&&&&&&&&&&&&&*                      ",
"                 #%&&&&&&&&&&&&*      @&&&&&&&&&&&&&&&&%&                     ",
"                 .&&&&&&&&&&&&&.       .&&&&&&&&&&&&&&&&=-                    ",
"                 +&&&&&&&&&&&&&.        +&&&&&&&&&&&&&&&&*                    ",
"                 =&&&&&&&&&&&&%$         +&&&&&&&&&&&&&&&&+                   ",
"                #%&&&&&&&&&&&&=           =&&&&&&&&&&&&&&&&.                  ",
"                +&&&&&&&&&&&&&*           -=&&&&&&&&&&&&&&&&.                 ",
"                .&&&&&&&&&&&&&.            #%&&&&&&&&&&&&&&&%.                ",
"                *&&&&&&&&&&&&&@             %%&&&&&&&&&&&&&&&=                ",
"                =&&&&&&&&&&&&%$              =%&&&&&&&&&&&&&&&%               ",
"               %&&&&&&&&&&&&&*                .%&&&&&&&&&&&&&&.               ",
"               .&&&&&&&&&&&&&+                 .&&&&&&&&&&&&&&+               ",
"              #%&&&&&&&&&&&&&*                  @&&&&&&&&&&&&&=               ",
"              *&&&&&&&&&&&&&%#                   +&&&&&&&&&&&&%#              ",
"             @&&&&&&&&&&&&&&*                    #%&&&&&&&&&&&&.              ",
"             =&&&&&&&&&&&&&&*                     =&&&&&&&&&&&&.              ",
"            .&&&&&&&&&&&&&&*                      +&&&&&&&&&&&&+              ",
"           #%&&&&&&&&&&&&&%&                      .&&&&&&&&&&&&=              ",
"           *&&&&&&&&&&&&&&.                       =&&&&&&&&&&&&%              ",
"          +&&&&&&&&&&&&&&=                        -%&&&&&&&&&&&&&             ",
"          =&&&&&&&&&&&&&&@                         =&&&&&&&&&&&&.             ",
"         .&&&&&&&&&&&&&&*                          *&&&&&&&&&&&&+             ",
"        #%&&&&&&&&&&&&&%&                          +&&&&&&&&&&&&=             ",
"        +&&&&&&&&&&&&&&.                           @&&&&&&&&&&&&%             ",
"       =&&&&&&&&&&&&&&%                            &%&&&&&&&&&&&%#            ",
"       =&&&&&&&&&&&&&&@                             %&&&&&&&&&&&&*            ",
"      .&&&&&&&&&&&&&&*                              *&&&&&&&&&&&&.            ",
"     -%&&&&&&&&&&&&&%&                              +&&&&&&&&&&&&*            ",
"     +&&&&&&&&&&&&&&.                               +&&&&&&&&&&&&=            ",
"    =%&&&&&&&&&&&&&%-                               &%&&&&&&&&&&&%#           ",
"    =&&&&&&&&&&&&&&.                                $%&&&&&&&&&&&&@           ",
"   @&&&&&&&&&&&&&&*                                  =&&&&&&&&&&&&.           ",
"  -%&&&&&&&&&&&&&%=                                  +&&&&&&&&&&&&+           ",
"  +&&&&&&&&&&&&&&.                                   @&&&&&&&&&&&&=           ",
" =%&&&&&&&&&&&&&%#                                   %&&&&&&&&&&&&%           ",
" +&&&&&&&&&&&&&&.                                     %&&&&&&&&&&&&&          ",
" %&&&&&&&&&&&&&=                                      =&&&&&&&&&&&&.          ",
"+&&&&&&&&&&&&&&.                                      *&&&&&&&&&&&&+          ",
".&&&&&&&&&&&&&+                                       .&&&&&&&&&&&&+          ",
"#%&&&&&&&&&&&%-                                       @&&&&&&&&&&&&.          ",
" *&&&&&&&&&&&@                                         =&&&&&&&&&&%#          ",
" .&&&&&&&&&&=                                          @&&&&&&&&&&+           ",
"  @&&&&&&&&=&                                           .&&&&&&&&=#           ",
"   @%&&&&%+-                                             .%&&&&%+-            ",
"    $+...&                                                #+++.%              "};
